<svg width="17" height="18" viewBox="0 0 17 18" fill="none" xmlns="http://www.w3.org/2000/svg">
<path d="M15.1858 8.74667L8.67623 15.6392C7.87876 16.4836 6.79715 16.9579 5.66936 16.9579C4.54156 16.9579 3.45995 16.4836 2.66248 15.6392C1.86501 14.7948 1.41699 13.6496 1.41699 12.4554C1.41699 11.2613 1.86501 10.1161 2.66248 9.27167L9.17206 2.37917C9.70371 1.81625 10.4248 1.5 11.1766 1.5C11.9285 1.5 12.6496 1.81625 13.1812 2.37917C13.7129 2.94209 14.0116 3.70558 14.0116 4.50167C14.0116 5.29776 13.7129 6.06125 13.1812 6.62417L6.66456 13.5167C6.39874 13.7981 6.0382 13.9563 5.66227 13.9563C5.28634 13.9563 4.9258 13.7981 4.65998 13.5167C4.39416 13.2352 4.24482 12.8535 4.24482 12.4554C4.24482 12.0574 4.39416 11.6756 4.65998 11.3942L10.6737 5.03417" stroke="#8A1538" stroke-width="1.5" stroke-linecap="round" stroke-linejoin="round"/>
</svg>
