<svg width="18" height="18" viewBox="0 0 18 18" fill="none" xmlns="http://www.w3.org/2000/svg">
<path d="M1.5 13.75V7C1.5 6.0335 2.2835 5.25 3.25 5.25C3.80083 5.25 4.3195 4.99066 4.65 4.55L6.195 2.49C6.30831 2.33892 6.48615 2.25 6.675 2.25H11.325C11.5139 2.25 11.6917 2.33892 11.805 2.49L13.35 4.55C13.6805 4.99066 14.1992 5.25 14.75 5.25C15.7165 5.25 16.5 6.0335 16.5 7V13.75C16.5 14.8546 15.6046 15.75 14.5 15.75H3.5C2.39543 15.75 1.5 14.8546 1.5 13.75Z" stroke="#8A1538" stroke-width="1.5" stroke-linecap="round" stroke-linejoin="round"/>
<path d="M9 12.75C10.6569 12.75 12 11.4069 12 9.75C12 8.09315 10.6569 6.75 9 6.75C7.34315 6.75 6 8.09315 6 9.75C6 11.4069 7.34315 12.75 9 12.75Z" stroke="#8A1538" stroke-width="1.5" stroke-linecap="round" stroke-linejoin="round"/>
</svg>
