<svg width="24" height="20" viewBox="0 0 24 20" fill="none" xmlns="http://www.w3.org/2000/svg">
<rect width="24" height="20" rx="8" fill="#E6E6E6"/>
<mask id="path-2-inside-1_2528_10892" fill="white">
<path d="M15.3333 13.3359H8.66667V11.3359L6 14.0026L8.66667 16.6693V14.6693H16.6667V10.6693H15.3333M8.66667 6.66927H15.3333V8.66927L18 6.0026L15.3333 3.33594V5.33594H7.33333V9.33594H8.66667V6.66927Z"/>
</mask>
<path d="M15.3333 13.3359H8.66667V11.3359L6 14.0026L8.66667 16.6693V14.6693H16.6667V10.6693H15.3333M8.66667 6.66927H15.3333V8.66927L18 6.0026L15.3333 3.33594V5.33594H7.33333V9.33594H8.66667V6.66927Z" fill="#808080"/>
<path d="M8.66667 13.3359H7.66667V14.3359H8.66667V13.3359ZM8.66667 11.3359H9.66667V8.92172L7.95956 10.6288L8.66667 11.3359ZM6 14.0026L5.29289 13.2955L4.58579 14.0026L5.29289 14.7097L6 14.0026ZM8.66667 16.6693L7.95956 17.3764L9.66667 19.0835V16.6693H8.66667ZM8.66667 14.6693V13.6693H7.66667V14.6693H8.66667ZM16.6667 14.6693V15.6693H17.6667V14.6693H16.6667ZM16.6667 10.6693H17.6667V9.66927H16.6667V10.6693ZM8.66667 6.66927V5.66927H7.66667V6.66927H8.66667ZM15.3333 6.66927H16.3333V5.66927H15.3333V6.66927ZM15.3333 8.66927H14.3333V11.0835L16.0404 9.37638L15.3333 8.66927ZM18 6.0026L18.7071 6.70971L19.4142 6.0026L18.7071 5.2955L18 6.0026ZM15.3333 3.33594L16.0404 2.62883L14.3333 0.921724V3.33594H15.3333ZM15.3333 5.33594V6.33594H16.3333V5.33594H15.3333ZM7.33333 5.33594V4.33594H6.33333V5.33594H7.33333ZM7.33333 9.33594H6.33333V10.3359H7.33333V9.33594ZM8.66667 9.33594V10.3359H9.66667V9.33594H8.66667ZM15.3333 13.3359V12.3359H8.66667V13.3359V14.3359H15.3333V13.3359ZM8.66667 13.3359H9.66667V11.3359H8.66667H7.66667V13.3359H8.66667ZM8.66667 11.3359L7.95956 10.6288L5.29289 13.2955L6 14.0026L6.70711 14.7097L9.37377 12.043L8.66667 11.3359ZM6 14.0026L5.29289 14.7097L7.95956 17.3764L8.66667 16.6693L9.37377 15.9622L6.70711 13.2955L6 14.0026ZM8.66667 16.6693H9.66667V14.6693H8.66667H7.66667V16.6693H8.66667ZM8.66667 14.6693V15.6693H16.6667V14.6693V13.6693H8.66667V14.6693ZM16.6667 14.6693H17.6667V10.6693H16.6667H15.6667V14.6693H16.6667ZM16.6667 10.6693V9.66927H15.3333V10.6693V11.6693H16.6667V10.6693ZM8.66667 6.66927V7.66927H15.3333V6.66927V5.66927H8.66667V6.66927ZM15.3333 6.66927H14.3333V8.66927H15.3333H16.3333V6.66927H15.3333ZM15.3333 8.66927L16.0404 9.37638L18.7071 6.70971L18 6.0026L17.2929 5.2955L14.6262 7.96216L15.3333 8.66927ZM18 6.0026L18.7071 5.2955L16.0404 2.62883L15.3333 3.33594L14.6262 4.04304L17.2929 6.70971L18 6.0026ZM15.3333 3.33594H14.3333V5.33594H15.3333H16.3333V3.33594H15.3333ZM15.3333 5.33594V4.33594H7.33333V5.33594V6.33594H15.3333V5.33594ZM7.33333 5.33594H6.33333V9.33594H7.33333H8.33333V5.33594H7.33333ZM7.33333 9.33594V10.3359H8.66667V9.33594V8.33594H7.33333V9.33594ZM8.66667 9.33594H9.66667V6.66927H8.66667H7.66667V9.33594H8.66667Z" fill="#8A1538" mask="url(#path-2-inside-1_2528_10892)"/>
</svg>
