<svg width="21" height="21" viewBox="0 0 21 21" fill="none" xmlns="http://www.w3.org/2000/svg">
<path d="M7.4375 12.25C7.19588 12.25 7 12.0541 7 11.8125C7 11.5709 7.19588 11.375 7.4375 11.375C7.67912 11.375 7.875 11.5709 7.875 11.8125C7.875 12.0541 7.67912 12.25 7.4375 12.25Z" fill="#8A1538" stroke="#8A1538" stroke-width="1.5" stroke-linecap="round" stroke-linejoin="round"/>
<path d="M13.5625 12.25C13.3209 12.25 13.125 12.0541 13.125 11.8125C13.125 11.5709 13.3209 11.375 13.5625 11.375C13.8041 11.375 14 11.5709 14 11.8125C14 12.0541 13.8041 12.25 13.5625 12.25Z" fill="#8A1538" stroke="#8A1538" stroke-width="1.5" stroke-linecap="round" stroke-linejoin="round"/>
<path d="M8.75 15.75H12.25M19.25 10.5C19.25 15.3325 15.3325 19.25 10.5 19.25C5.66751 19.25 1.75 15.3325 1.75 10.5C1.75 5.66751 5.66751 1.75 10.5 1.75C15.3325 1.75 19.25 5.66751 19.25 10.5Z" stroke="#8A1538" stroke-width="1.5" stroke-linecap="round" stroke-linejoin="round"/>
</svg>
