<svg width="24" height="24" viewBox="0 0 24 24" fill="none" xmlns="http://www.w3.org/2000/svg">
<path d="M12.0576 1.75C14.2479 1.74999 15.9683 1.75012 17.3115 1.93066C18.6882 2.11575 19.7805 2.50313 20.6387 3.36133C21.4969 4.21953 21.8842 5.31182 22.0693 6.68848C22.2499 8.03174 22.25 9.75212 22.25 11.9424V12.0576C22.25 14.2479 22.2499 15.9683 22.0693 17.3115C21.8842 18.6882 21.4969 19.7805 20.6387 20.6387C19.7805 21.4969 18.6882 21.8842 17.3115 22.0693C15.9683 22.2499 14.2479 22.25 12.0576 22.25H11.9424C9.75212 22.25 8.03174 22.2499 6.68848 22.0693C5.31182 21.8842 4.21953 21.4969 3.36133 20.6387C2.50313 19.7805 2.11575 18.6882 1.93066 17.3115C1.75012 15.9683 1.74999 14.2479 1.75 12.0576V11.9424C1.74999 9.75212 1.75012 8.03174 1.93066 6.68848C2.11575 5.31182 2.50313 4.21953 3.36133 3.36133C4.21953 2.50313 5.31182 2.11575 6.68848 1.93066C8.03174 1.75012 9.75213 1.74999 11.9424 1.75H12.0576ZM3.30273 8.25C3.25277 9.26406 3.25 10.4888 3.25 12C3.25 14.2604 3.25137 15.8804 3.41699 17.1123C3.57972 18.3225 3.88885 19.0451 4.42188 19.5781C4.9549 20.1111 5.67747 20.4203 6.8877 20.583C8.1196 20.7486 9.73963 20.75 12 20.75C14.2604 20.75 15.8804 20.7486 17.1123 20.583C18.3225 20.4203 19.0451 20.1111 19.5781 19.5781C20.1111 19.0451 20.4203 18.3225 20.583 17.1123C20.7486 15.8804 20.75 14.2604 20.75 12C20.75 10.4888 20.7472 9.26406 20.6973 8.25H3.30273ZM9.79883 10.3213C10.3499 10.1512 10.8783 10.3127 11.3418 10.5273C11.7989 10.739 12.3502 11.0801 13.0068 11.4863L13.0889 11.5371C13.7704 11.9587 14.3392 12.3102 14.751 12.6377C15.1747 12.9748 15.5473 13.3735 15.6816 13.9287C15.7722 14.3032 15.7722 14.6968 15.6816 15.0713C15.5473 15.6265 15.1747 16.0252 14.751 16.3623C14.3392 16.6898 13.7704 17.0413 13.0889 17.4629L13.0068 17.5137C12.3502 17.9199 11.7989 18.261 11.3418 18.4727C10.8783 18.6873 10.3499 18.8488 9.79883 18.6787C9.43467 18.5663 9.11102 18.3558 8.85547 18.0752C8.48357 17.6666 8.36113 17.1323 8.30566 16.5986C8.25039 16.0668 8.24998 15.3797 8.25 14.543V14.457C8.24998 13.6203 8.25039 12.9332 8.30566 12.4014C8.36113 11.8677 8.48358 11.3334 8.85547 10.9248C9.11102 10.6442 9.43467 10.4337 9.79883 10.3213ZM10.2412 11.7539C10.1445 11.7838 10.048 11.8433 9.96484 11.9346C9.92692 11.9762 9.84386 12.1045 9.79688 12.5566C9.75067 13.0015 9.75 13.6098 9.75 14.5C9.75 15.3901 9.75067 15.9985 9.79688 16.4434C9.84386 16.8955 9.92692 17.0238 9.96484 17.0654C10.048 17.1567 10.1445 17.2162 10.2412 17.2461C10.2511 17.2492 10.3513 17.2783 10.7119 17.1113C11.0767 16.9424 11.5507 16.6506 12.2598 16.2119C12.9916 15.7592 13.4826 15.4539 13.8164 15.1885C14.1459 14.9264 14.2063 14.79 14.2236 14.7188C14.2582 14.5758 14.2582 14.4242 14.2236 14.2812C14.2063 14.21 14.1458 14.0735 13.8164 13.8115C13.4826 13.5461 12.9916 13.2408 12.2598 12.7881C11.5507 12.3494 11.0767 12.0576 10.7119 11.8887C10.3514 11.7217 10.2512 11.7508 10.2412 11.7539ZM8.6582 3.28418C7.98771 3.30794 7.40358 3.34763 6.8877 3.41699C5.67747 3.57972 4.9549 3.88885 4.42188 4.42188C3.90943 4.93432 3.60586 5.62223 3.43848 6.75H6.58008L8.6582 3.28418ZM10.4268 3.25195L8.3291 6.75H13.5801L15.6514 3.29688C14.6568 3.25155 13.4625 3.25 12 3.25C11.4372 3.25 10.9141 3.24925 10.4268 3.25195ZM15.3291 6.75H20.5615C20.3941 5.62223 20.0906 4.93432 19.5781 4.42188C19.0748 3.91853 18.402 3.61748 17.3096 3.44824L15.3291 6.75Z" fill="#161616"/>
</svg>
