<svg width="24" height="20" viewBox="0 0 24 20" fill="none" xmlns="http://www.w3.org/2000/svg">
<rect width="24" height="20" rx="8" fill="#E6E6E6"/>
<path d="M12 16C13.1867 16 14.3467 15.6481 15.3334 14.9888C16.3201 14.3295 17.0892 13.3925 17.5433 12.2961C17.9974 11.1997 18.1162 9.99335 17.8847 8.82946C17.6532 7.66558 17.0818 6.59648 16.2426 5.75736C15.4035 4.91825 14.3344 4.3468 13.1705 4.11529C12.0067 3.88378 10.8003 4.0026 9.7039 4.45673C8.60754 4.91085 7.67047 5.67989 7.01118 6.66658C6.35189 7.65328 6 8.81331 6 10C6 10.992 6.24 11.9267 6.66667 12.7513L6 16L9.24867 15.3333C10.0727 15.7593 11.0087 16 12 16Z" stroke="#8A1538" stroke-width="1.5" stroke-linecap="round" stroke-linejoin="round"/>
</svg>
