<svg width="24" height="24" viewBox="0 0 24 24" fill="none" xmlns="http://www.w3.org/2000/svg">
<path d="M8.9502 18.8965C9.44719 18.8964 9.84958 18.4931 9.84961 17.9961C9.84956 17.4991 9.44717 17.0958 8.9502 17.0957C8.88498 17.0957 8.81969 17.0836 8.75781 17.0586L8.69727 17.0293C5.71768 15.115 2.90243 12.5982 2.90234 9.14062C2.90234 5.70636 5.70564 2.90332 8.9502 2.90332C10.6432 2.90335 12.219 3.66288 13.3428 4.89453C13.6778 5.26167 14.2471 5.28803 14.6143 4.95312C14.9814 4.61816 15.0077 4.04885 14.6729 3.68164C13.2379 2.10878 11.192 1.10257 8.9502 1.10254C4.67426 1.10254 1.10156 4.74993 1.10156 9.14062C1.10164 13.6512 4.76315 16.6449 7.74902 18.5596L7.76172 18.5674L7.7666 18.5713L7.78027 18.5791C8.13504 18.7864 8.53848 18.8965 8.9502 18.8965ZM8.32617 12.3311C8.81322 12.4298 9.28782 12.1149 9.38672 11.6279C9.4855 11.1408 9.17073 10.6662 8.68359 10.5674C7.95296 10.4191 7.40433 9.77196 7.4043 9C7.4043 8.11783 8.12002 7.40161 9.00488 7.40137C9.52845 7.40137 9.99363 7.65083 10.2871 8.04102C10.5858 8.43822 11.1496 8.51824 11.5469 8.21973C11.9442 7.92104 12.0242 7.35726 11.7256 6.95996C11.1065 6.13648 10.1179 5.60059 9.00488 5.60059C7.12743 5.60083 5.60449 7.12219 5.60449 9C5.60453 10.6461 6.77387 12.0163 8.32617 12.3311ZM12.4922 22.7178C12.7376 22.7579 13.021 22.7568 13.334 22.7354L19.834 22.7354C19.857 22.7354 19.8804 22.7345 19.9033 22.7324C19.9553 22.7277 19.9935 22.7274 20.0498 22.7266C20.0959 22.7259 20.1545 22.7252 20.2422 22.7217C20.3862 22.7159 20.6107 22.7009 20.834 22.6221C21.0799 22.5352 21.3486 22.3615 21.5146 22.04C21.6604 21.7577 21.6819 21.4456 21.6504 21.1514V16.3018H21.999C22.4131 16.3017 22.7489 15.9658 22.749 15.5518C22.749 15.1376 22.4132 14.8018 21.999 14.8018H21.7979C22.0811 14.1862 22.2307 13.5302 22.207 12.8564C22.1662 11.6978 21.6154 10.5939 20.5635 9.65527C19.7899 8.96501 19.1323 8.40764 18.6055 7.96094C18.4312 7.81318 18.2711 7.67705 18.126 7.55273C17.83 7.29922 17.602 7.09863 17.4316 6.93359C17.254 6.7614 17.1779 6.66498 17.1514 6.62109C17.0156 6.3964 16.7723 6.25893 16.5098 6.25879C16.2471 6.25879 16.003 6.39629 15.8672 6.62109C15.8394 6.66702 15.7633 6.76494 15.5879 6.93652C15.4194 7.10141 15.1936 7.30152 14.9004 7.55469C14.7407 7.69257 14.5623 7.84444 14.3662 8.01172C13.8531 8.4495 13.2182 8.9918 12.4746 9.65527C12.4606 9.66774 12.4466 9.68085 12.4336 9.69434C11.3837 10.7833 10.8263 11.8759 10.8066 13.0068C10.7956 13.6438 10.956 14.2409 11.2314 14.8018H11.0273C10.6131 14.8018 10.2773 15.1375 10.2773 15.5518C10.2775 15.9659 10.6132 16.3018 11.0273 16.3018H11.3477V21.0938C11.3477 21.1086 11.3478 21.1239 11.3486 21.1387C11.3499 21.1599 11.3512 21.1834 11.3525 21.208C11.3595 21.337 11.3686 21.5068 11.3936 21.6533C11.4262 21.8446 11.5024 22.1153 11.7266 22.3457C11.9515 22.5769 12.2345 22.6756 12.4922 22.7178ZM12.9863 14.8018C12.5126 14.1568 12.2971 13.5809 12.3066 13.0322C12.3174 12.418 12.613 11.676 13.4941 10.7559C14.215 10.1131 14.8218 9.59523 15.3271 9.16406C15.5272 8.99336 15.7117 8.83646 15.8809 8.69043C16.1191 8.48473 16.3314 8.29732 16.5117 8.12793C16.6942 8.29782 16.9085 8.48605 17.1494 8.69238C17.3021 8.82316 17.4677 8.96256 17.6455 9.11328C18.1705 9.55843 18.8065 10.0981 19.5645 10.7744C20.3656 11.4893 20.684 12.2269 20.708 12.9092C20.7294 13.517 20.5203 14.1651 20.0703 14.8018L12.9863 14.8018ZM12.8574 21.248C12.8554 21.2161 12.8536 21.1844 12.8516 21.1484C12.8503 21.1253 12.8493 21.1003 12.8477 21.0723V16.3018L20.1504 16.3018V21.1953C20.1504 21.2046 20.151 21.2144 20.1514 21.2236C20.1235 21.2245 20.0956 21.225 20.0645 21.2256C20.0449 21.226 20.0234 21.226 20 21.2266C19.9435 21.2279 19.8741 21.23 19.8027 21.2354H17.2529L17.2754 19.8643C17.2822 19.4501 16.9522 19.1084 16.5381 19.1016C16.124 19.0948 15.7832 19.4257 15.7764 19.8398L15.7529 21.2354H13.3076C13.2897 21.2354 13.2718 21.236 13.2539 21.2373C13.0762 21.2501 12.948 21.2519 12.8574 21.248Z" fill="white"/>
</svg>
