<svg width="24" height="24" viewBox="0 0 24 24" fill="none" xmlns="http://www.w3.org/2000/svg">
<g clip-path="url(#clip0_2001_7732)">
<path d="M1.7695 4.1285C1.8735 2.851 2.851 1.8735 4.1285 1.7695C5.7425 1.6385 8.318 1.5 12 1.5C15.682 1.5 18.2575 1.6385 19.8715 1.7695C21.149 1.8735 22.1265 2.851 22.2305 4.1285C22.3615 5.7425 22.5 8.318 22.5 12C22.5 15.682 22.3615 18.2575 22.2305 19.8715C22.1265 21.149 21.149 22.1265 19.8715 22.2305C18.2575 22.3615 15.682 22.5 12 22.5C8.318 22.5 5.7425 22.3615 4.1285 22.2305C2.851 22.1265 1.8735 21.149 1.7695 19.8715C1.6385 18.2575 1.5 15.682 1.5 12C1.5 8.318 1.6385 5.7425 1.7695 4.1285Z" stroke="#160309" stroke-width="1.5" stroke-linecap="round" stroke-linejoin="round"/>
<path d="M22.4027 7.00313H1.59766M10.1442 1.57812L6.14016 6.91663M18.3582 1.69212L14.4322 6.92663M8.67616 11.9401C8.80116 11.0751 9.56366 10.5831 10.3787 10.8981C10.9507 11.1196 11.7217 11.4646 12.7352 12.0031C13.7042 12.5181 14.4512 12.9736 15.0152 13.3506C15.8942 13.9381 15.8942 15.0681 15.0152 15.6556C14.4512 16.0326 13.7042 16.4881 12.7352 17.0031C11.7217 17.5416 10.9507 17.8866 10.3787 18.1081C9.56366 18.4231 8.80116 17.9311 8.67616 17.0661C8.55635 16.2171 8.49737 15.3606 8.49966 14.5031C8.49966 13.4641 8.58116 12.5981 8.67616 11.9401Z" stroke="#160309" stroke-width="1.5" stroke-linecap="round" stroke-linejoin="round"/>
</g>
<defs>
<clipPath id="clip0_2001_7732">
<rect width="24" height="24" fill="white"/>
</clipPath>
</defs>
</svg>
