<svg width="24" height="24" viewBox="0 0 24 24" fill="none" xmlns="http://www.w3.org/2000/svg">
<path fill-rule="evenodd" clip-rule="evenodd" d="M14.25 2.5C13.2835 2.5 12.5 3.2835 12.5 4.25C12.5 4.98111 12.1958 5.5738 11.7103 6.0246C11.2481 6.45382 10.6333 6.74614 9.98717 6.96151C9.29028 7.19381 8.59289 7.50522 8.0423 8.25602C7.48303 9.01866 7 10.3406 7 12.75C7 14.6278 7.42818 15.8273 7.89569 16.6185C8.2813 17.271 8.69416 17.6614 9.04117 17.9895C9.12519 18.0689 9.20535 18.1447 9.28033 18.2197C9.49483 18.4342 9.559 18.7568 9.44291 19.037C9.32682 19.3173 9.05335 19.5 8.75 19.5C7.31611 19.5 6.52522 19.9421 6.09104 20.3944C5.90423 20.589 5.77092 20.7983 5.67878 21H17.75C18.4404 21 19 20.4404 19 19.75C19 19.0596 18.4404 18.5 17.75 18.5C13.7365 18.5 11.3617 17.2821 10.086 15.5737C8.83213 13.8946 8.76813 11.9093 9.01299 10.611C9.08976 10.204 9.48197 9.93622 9.889 10.013C10.296 10.0898 10.5638 10.482 10.487 10.889C10.2918 11.9241 10.3637 13.4387 11.2879 14.6763C12.0973 15.7601 13.6653 16.7693 16.6608 16.9656C16.6347 16.9055 16.6069 16.8447 16.5768 16.783C16.3927 16.4055 16.1649 16.0947 15.834 15.874C15.5378 15.6766 15.2433 15.5007 14.9442 15.3221C14.8838 15.286 14.8233 15.2499 14.7626 15.2134C14.4116 15.0028 14.048 14.7791 13.727 14.5295C13.0635 14.0134 12.5 13.3182 12.5 12.25C12.5 11.5557 12.3818 10.4759 12.2566 9.53662C12.1949 9.07408 12.1332 8.65735 12.0868 8.35623C12.0637 8.20577 12.0444 8.08444 12.031 8.00099L12.0155 7.90539L12.0115 7.88099L12.0103 7.87361M18.2989 17.0548C19.5547 17.3092 20.5 18.4192 20.5 19.75C20.5 21.2688 19.2688 22.5 17.75 22.5H4.75C4.33579 22.5 4 22.1642 4 21.75C4 21.0768 4.26137 20.1343 5.00896 19.3556C5.5178 18.8256 6.22235 18.4014 7.15596 18.1764C6.971 17.9467 6.78225 17.6827 6.60431 17.3815C5.98848 16.3394 5.5 14.8722 5.5 12.75C5.5 10.1594 6.01697 8.48134 6.8327 7.36898C7.65711 6.24478 8.70972 5.80619 9.51283 5.53849C10.0667 5.35386 10.4519 5.14618 10.6897 4.9254C10.9042 4.7262 11 4.51889 11 4.25C11 2.45507 12.4551 1 14.25 1C16.0449 1 17.5 2.45507 17.5 4.25C17.5 5.18065 16.9871 6.24342 16.2649 6.96578C15.6349 7.59586 14.7015 8.09398 13.6658 7.87505L13.5492 7.99774C13.5555 8.0384 13.5623 8.08195 13.5694 8.12814C13.6168 8.4364 13.6801 8.86342 13.7434 9.33838C13.8682 10.2741 14 11.4443 14 12.25C14 12.6818 14.1865 12.9866 14.648 13.3455C14.8895 13.5334 15.1822 13.7159 15.5343 13.9272C15.5898 13.9605 15.6467 13.9944 15.7048 14.0291C16.0042 14.2079 16.336 14.4059 16.666 14.626C17.2914 15.0428 17.67 15.6024 17.9251 16.1257C18.0751 16.4334 18.199 16.7709 18.2989 17.0548Z" stroke="#333333" stroke-linecap="round" stroke-linejoin="round"/>
</svg>
