<svg width="32" height="32" viewBox="0 0 32 32" fill="none" xmlns="http://www.w3.org/2000/svg">
<rect x="0.5" y="0.5" width="31" height="31" rx="7.5" stroke="#D7BA83"/>
<path fill-rule="evenodd" clip-rule="evenodd" d="M14.206 18.7211C14.6043 18.6073 14.8349 18.1923 14.7212 17.794C14.6074 17.3957 14.1923 17.165 13.794 17.2788L13.7513 17.291C12.1657 17.7439 10.9167 18.1006 9.94427 18.497C8.94685 18.9035 8.17064 19.3779 7.56834 20.1055C7.45819 20.2386 7.3541 20.3765 7.25638 20.519C6.34541 21.8467 6.26364 23.5043 6.25001 25.9958C6.24775 26.4101 6.58169 26.7477 6.9959 26.7499C7.41011 26.7522 7.74772 26.4183 7.74999 26.004C7.76416 23.413 7.88769 22.2502 8.49324 21.3676C8.56547 21.2623 8.64241 21.1604 8.72382 21.062C9.10999 20.5955 9.63893 20.2412 10.5104 19.886C11.3982 19.5242 12.5683 19.1889 14.206 18.7211ZM18.206 17.2788C17.8077 17.165 17.3926 17.3957 17.2788 17.794C17.1651 18.1923 17.3957 18.6073 17.794 18.7211C19.4317 19.1889 20.6018 19.5242 21.4896 19.886C22.3611 20.2412 22.89 20.5955 23.2762 21.062C23.3576 21.1604 23.4345 21.2623 23.5068 21.3676C24.1123 22.2502 24.2358 23.413 24.25 26.004C24.2523 26.4183 24.5899 26.7522 25.0041 26.7499C25.4183 26.7477 25.7523 26.4101 25.75 25.9958C25.7364 23.5043 25.6546 21.8467 24.7436 20.519C24.6459 20.3766 24.5418 20.2386 24.4317 20.1055C23.8294 19.3779 23.0532 18.9035 22.0557 18.497C21.0833 18.1006 19.8344 17.7439 18.2488 17.291L18.2487 17.291L18.2487 17.291L18.206 17.2788ZM12.8544 9.25C13.2167 7.827 14.4777 6.75 15.9998 6.75C17.5219 6.75 18.7829 7.827 19.1452 9.25H12.8544ZM11.2504 10.0261C11.2501 10.0174 11.25 10.0087 11.25 10C11.25 9.97987 11.2508 9.95993 11.2523 9.9402C11.3307 7.40722 13.3601 5.25 15.9998 5.25C18.637 5.25 20.6651 7.40314 20.747 9.93301C20.749 9.95508 20.75 9.97742 20.75 10C20.75 10.0112 20.7498 10.0223 20.7493 10.0333C20.7533 10.3663 20.7235 10.7054 20.6569 11.0465L20.2364 13.2019C19.8364 15.252 18.073 16.75 15.9998 16.75C13.9267 16.75 12.1632 15.252 11.7632 13.2019L11.3427 11.0465C11.2757 10.7029 11.2459 10.3614 11.2504 10.0261ZM12.8131 10.75C12.8137 10.7531 12.8143 10.7562 12.8149 10.7593L13.2355 12.9146C13.5029 14.2855 14.6697 15.25 15.9998 15.25C17.33 15.25 18.4967 14.2855 18.7642 12.9146L19.1847 10.7593C19.1853 10.7562 19.1859 10.7531 19.1865 10.75L12.8131 10.75ZM16 19.25C16.4142 19.25 16.75 19.5858 16.75 20V24C16.75 24.4142 16.4142 24.75 16 24.75C15.5858 24.75 15.25 24.4142 15.25 24V20C15.25 19.5858 15.5858 19.25 16 19.25Z" fill="#333333"/>
</svg>
