<svg width="56" height="56" viewBox="0 0 56 56" fill="none" xmlns="http://www.w3.org/2000/svg">
<path d="M5.34961 33.2461C5.02801 32.3348 5.50582 31.3355 6.41699 31.0137C7.32836 30.692 8.32869 31.1697 8.65039 32.0811L9.19531 33.627C10.2704 36.673 11.0308 38.8204 11.8115 40.4297C12.5727 41.9985 13.281 42.8956 14.1641 43.5205C15.0474 44.1455 16.1301 44.5153 17.8633 44.7109C19.6405 44.9115 21.9178 44.9141 25.1475 44.9141L30.8516 44.9141C34.0818 44.9141 36.3594 44.9116 38.1367 44.7109C39.8699 44.5153 40.9516 44.1455 41.835 43.5205C42.7181 42.8956 43.4263 41.9986 44.1875 40.4297C44.9682 38.8204 45.7286 36.673 46.8037 33.627L47.3496 32.0811C47.6714 31.1698 48.6707 30.6921 49.582 31.0137C50.4934 31.3353 50.9719 32.3347 50.6504 33.2461L50.0693 34.8906C49.0371 37.8153 48.2138 40.1495 47.3369 41.957C46.4307 43.8249 45.3959 45.2887 43.8564 46.3779C42.317 47.4671 40.5923 47.9556 38.5293 48.1885C36.5329 48.4138 34.0576 48.4141 30.9561 48.4141L25.043 48.4141C21.9414 48.4141 19.4661 48.4138 17.4697 48.1885C15.4069 47.9556 13.6819 47.4671 12.1426 46.3779C10.6033 45.2888 9.56924 43.8248 8.66309 41.957C7.78613 40.1495 6.96193 37.8154 5.92969 34.8906L5.34961 33.2461ZM20.9463 16.4189C20.2533 15.7453 20.2376 14.6374 20.9111 13.9443C21.1181 13.7314 21.4577 13.307 21.9551 12.6738C21.9911 12.628 22.0283 12.5815 22.0654 12.5342C22.5089 11.9692 23.0284 11.3055 23.5645 10.6729C24.1388 9.99504 24.7822 9.29153 25.4248 8.74414C25.7469 8.4698 26.1104 8.19827 26.501 7.98926C26.8776 7.78775 27.3966 7.58013 27.999 7.58008C28.6017 7.58008 29.1214 7.78767 29.498 7.98926C29.8886 8.19826 30.2512 8.46982 30.5732 8.74414C31.2159 9.2915 31.8592 9.99502 32.4336 10.6729C32.9696 11.3054 33.4901 11.9683 33.9336 12.5332C33.9708 12.5805 34.0069 12.6279 34.043 12.6738C34.5404 13.3071 34.8809 13.7314 35.0879 13.9443C35.7611 14.6374 35.7456 15.7454 35.0527 16.4189C34.3598 17.0925 33.2518 17.0765 32.5781 16.3838C32.2117 16.0068 31.7395 15.4069 31.291 14.8359C31.2564 14.7919 31.2215 14.7467 31.1865 14.7021C30.7364 14.1289 30.2552 13.5156 29.7637 12.9355C29.759 12.93 29.7537 12.9245 29.749 12.9189L29.749 32.6641C29.7488 33.6304 28.9654 34.4141 27.999 34.4141C27.0327 34.4139 26.2492 33.6303 26.249 32.6641L26.249 12.9189C26.2444 12.9244 26.24 12.9301 26.2354 12.9355C25.7439 13.5156 25.2625 14.1289 24.8125 14.7021C24.7775 14.7467 24.7426 14.7919 24.708 14.8359C24.2595 15.4069 23.7873 16.0068 23.4209 16.3838C22.7473 17.0767 21.6393 17.0923 20.9463 16.4189Z" fill="#8A1538"/>
</svg>
