<svg width="46" height="46" viewBox="0 0 46 46" fill="none" xmlns="http://www.w3.org/2000/svg">
<rect width="46" height="46" rx="23" fill="#D7BA83"/>
<path d="M20.0801 13.7871C22.033 13.7381 23.967 13.738 25.9199 13.7871L25.9775 13.7891C27.5024 13.8274 28.7296 13.858 29.7129 14.0293C30.7424 14.2086 31.5793 14.5522 32.2861 15.2617C32.99 15.9683 33.3319 16.7929 33.5078 17.8057C33.6753 18.77 33.7008 19.9673 33.7324 21.4502L33.7334 21.5088C33.7546 22.5051 33.7546 23.4959 33.7334 24.4922L33.7324 24.5508C33.7008 26.0336 33.6753 27.231 33.5078 28.1953C33.3319 29.208 32.99 30.0328 32.2861 30.7393C31.5793 31.4488 30.7424 31.7924 29.7129 31.9717C28.7296 32.1429 27.5023 32.1736 25.9775 32.2119L25.9199 32.2139C23.967 32.2629 22.033 32.2629 20.0801 32.2139L20.0215 32.2119C18.4967 32.1736 17.2694 32.1429 16.2861 31.9717C15.2567 31.7924 14.4197 31.4488 13.7129 30.7393C13.0091 30.0328 12.6671 29.2079 12.4912 28.1953C12.3237 27.231 12.2982 26.0336 12.2666 24.5508L12.2656 24.4922C12.2444 23.4959 12.2444 22.5051 12.2656 21.5088L12.2666 21.4502C12.2982 19.9674 12.3237 18.77 12.4912 17.8057C12.6671 16.793 13.0091 15.9682 13.7129 15.2617C14.4197 14.5522 15.2567 14.2086 16.2861 14.0293C17.2695 13.858 18.4967 13.8273 20.0215 13.7891L20.0801 13.7871ZM26.4551 21.5664C25.1618 22.2992 24.1105 22.7471 22.998 22.7471C21.8858 22.747 20.835 22.299 19.542 21.5664L13.9209 18.3809C13.8171 19.1732 13.7948 20.1752 13.7656 21.541C13.7448 22.5159 13.7448 23.485 13.7656 24.46C13.7988 26.0155 13.8239 27.0989 13.9697 27.9385C14.1093 28.7422 14.3492 29.2519 14.7764 29.6807C15.2006 30.1063 15.7166 30.3501 16.5439 30.4941C17.4051 30.6441 18.5208 30.6738 20.1172 30.7139C22.0451 30.7623 23.954 30.7623 25.8818 30.7139C27.4785 30.6738 28.5948 30.6441 29.4561 30.4941C30.2833 30.35 30.7994 30.1065 31.2236 29.6807C31.6508 29.2518 31.8907 28.7422 32.0303 27.9385C32.1761 27.0989 32.2012 26.0155 32.2344 24.46C32.2552 23.485 32.2552 22.5159 32.2344 21.541C32.2052 20.1746 32.1811 19.1724 32.0771 18.3799L26.4551 21.5664ZM25.8818 15.2871C23.954 15.2387 22.0451 15.2387 20.1172 15.2871C18.5207 15.3272 17.4051 15.3569 16.5439 15.5068C15.7166 15.6509 15.2006 15.8946 14.7764 16.3203C14.6031 16.4942 14.4612 16.6818 14.3438 16.8965L20.2812 20.2607C21.5364 20.9719 22.2979 21.247 22.998 21.2471C23.6982 21.2471 24.4605 20.972 25.7158 20.2607L31.6543 16.8955C31.537 16.6815 31.3965 16.4938 31.2236 16.3203C30.7994 15.8945 30.2833 15.651 29.4561 15.5068C28.5948 15.3568 27.4785 15.3272 25.8818 15.2871Z" fill="#161616"/>
</svg>
