<svg width="46" height="46" viewBox="0 0 46 46" fill="none" xmlns="http://www.w3.org/2000/svg">
<rect width="46" height="46" rx="23" fill="#D7BA83"/>
<path d="M32 21.5H24.5V20H32V21.5ZM29 26H24.5V24.5H29V26ZM35 14V32H11V14H35ZM33.5 15.5H12.5V30.5H33.5V15.5ZM18.5 24.5C18.0859 24.5 17.6992 24.5781 17.3398 24.7344C16.9805 24.8906 16.6602 25.1055 16.3789 25.3789C16.0977 25.6523 15.8828 25.9688 15.7344 26.3281C15.5859 26.6875 15.5078 27.0781 15.5 27.5H14C14 27.0938 14.0547 26.6992 14.1641 26.3164C14.2734 25.9336 14.4258 25.5703 14.6211 25.2266C14.8164 24.8828 15.0586 24.5703 15.3477 24.2891C15.6367 24.0078 15.9609 23.7656 16.3203 23.5625C16.0625 23.2891 15.8633 22.9727 15.7227 22.6133C15.582 22.2539 15.5078 21.8828 15.5 21.5C15.5 21.0859 15.5781 20.6992 15.7344 20.3398C15.8906 19.9805 16.1055 19.6602 16.3789 19.3789C16.6523 19.0977 16.9688 18.8828 17.3281 18.7344C17.6875 18.5859 18.0781 18.5078 18.5 18.5C18.9141 18.5 19.3008 18.5781 19.6602 18.7344C20.0195 18.8906 20.3398 19.1055 20.6211 19.3789C20.9023 19.6523 21.1172 19.9688 21.2656 20.3281C21.4141 20.6875 21.4922 21.0781 21.5 21.5C21.5 21.8828 21.4297 22.2539 21.2891 22.6133C21.1484 22.9727 20.9453 23.2891 20.6797 23.5625C21.0391 23.7656 21.3594 24.0078 21.6406 24.2891C21.9219 24.5703 22.1641 24.8789 22.3672 25.2148C22.5703 25.5508 22.7266 25.9141 22.8359 26.3047C22.9453 26.6953 23 27.0938 23 27.5H21.5C21.5 27.0859 21.4219 26.6992 21.2656 26.3398C21.1094 25.9805 20.8945 25.6602 20.6211 25.3789C20.3477 25.0977 20.0312 24.8828 19.6719 24.7344C19.3125 24.5859 18.9219 24.5078 18.5 24.5ZM17 21.5C17 21.7109 17.0391 21.9062 17.1172 22.0859C17.1953 22.2656 17.3008 22.4219 17.4336 22.5547C17.5664 22.6875 17.7266 22.7969 17.9141 22.8828C18.1016 22.9688 18.2969 23.0078 18.5 23C18.7109 23 18.9062 22.9609 19.0859 22.8828C19.2656 22.8047 19.4219 22.6992 19.5547 22.5664C19.6875 22.4336 19.7969 22.2734 19.8828 22.0859C19.9688 21.8984 20.0078 21.7031 20 21.5C20 21.2891 19.9609 21.0938 19.8828 20.9141C19.8047 20.7344 19.6992 20.5781 19.5664 20.4453C19.4336 20.3125 19.2734 20.2031 19.0859 20.1172C18.8984 20.0312 18.7031 19.9922 18.5 20C18.2891 20 18.0938 20.0391 17.9141 20.1172C17.7344 20.1953 17.5781 20.3008 17.4453 20.4336C17.3125 20.5664 17.2031 20.7266 17.1172 20.9141C17.0312 21.1016 16.9922 21.2969 17 21.5Z" fill="#8A1538"/>
</svg>
