<svg width="46" height="46" viewBox="0 0 46 46" fill="none" xmlns="http://www.w3.org/2000/svg">
<rect width="46" height="46" rx="23" fill="#D7BA83"/>
<path fill-rule="evenodd" clip-rule="evenodd" d="M18.0161 14.8051C17.862 14.758 17.6732 14.7501 16.9761 14.7501C16.4902 14.7501 16.1692 14.7506 15.9189 14.7705C15.68 14.7895 15.5576 14.8232 15.4679 14.8643C15.1852 14.9937 14.905 15.3023 14.8033 15.5961C14.7256 15.8205 14.733 16.0558 14.821 16.9678C15.246 21.3718 16.6558 24.6933 18.9812 27.0188C21.3066 29.3442 24.6282 30.754 29.0322 31.179C29.9441 31.267 30.1794 31.2744 30.4039 31.1966C30.6977 31.0949 31.0062 30.8147 31.1357 30.5321C31.1768 30.4423 31.2105 30.3199 31.2294 30.0811C31.2493 29.8308 31.2499 29.5098 31.2499 29.0239C31.2499 28.3268 31.242 28.138 31.1949 27.9839C31.1259 27.7585 30.995 27.5571 30.8171 27.4025C30.6954 27.2969 30.526 27.213 29.889 26.9299L28.983 26.5272C28.2932 26.2206 28.1035 26.1464 27.9284 26.1298C27.733 26.1112 27.536 26.1386 27.3531 26.2098C27.1892 26.2736 27.027 26.3968 26.447 26.8801C26.4207 26.902 26.3947 26.9237 26.369 26.9451C25.9086 27.3294 25.5441 27.6337 25.091 27.7993C24.683 27.9483 24.1725 28.0005 23.7429 27.9372C23.2661 27.867 22.893 27.6672 22.429 27.4188C22.4061 27.4065 22.383 27.3942 22.3597 27.3817C20.5827 26.4321 19.5679 25.4172 18.6183 23.6403C18.6058 23.617 18.5934 23.5939 18.5812 23.571C18.3328 23.107 18.133 22.7338 18.0628 22.2571C17.9994 21.8274 18.0517 21.317 18.2007 20.909C18.3663 20.4558 18.6705 20.0913 19.0548 19.6309C19.0763 19.6053 19.098 19.5793 19.1199 19.553C19.6032 18.973 19.7263 18.8107 19.7901 18.6469C19.8614 18.464 19.8888 18.267 19.8702 18.0716C19.8535 17.8965 19.7794 17.7068 19.4728 17.0169L19.0701 16.1109C18.787 15.474 18.7031 15.3046 18.5974 15.1829C18.4429 15.005 18.2415 14.8741 18.0161 14.8051ZM17.0741 13.25C17.6261 13.2496 18.0581 13.2493 18.455 13.3708C18.9492 13.522 19.391 13.8091 19.7299 14.1993C20.0021 14.5127 20.1772 14.9075 20.4011 15.4121C20.4141 15.4416 20.4274 15.4715 20.4408 15.5017L20.8435 16.4077C20.858 16.4404 20.8724 16.4726 20.8865 16.5044C21.1298 17.0507 21.3206 17.479 21.3634 17.9296C21.4042 18.358 21.3441 18.7901 21.1879 19.1912C21.0237 19.6129 20.7232 19.9729 20.34 20.432C20.3177 20.4587 20.2951 20.4858 20.2722 20.5132C19.7924 21.089 19.6745 21.2462 19.6096 21.4237C19.5462 21.5973 19.5198 21.8556 19.5467 22.0384C19.5748 22.2291 19.6412 22.372 19.9412 22.9333C20.7509 24.4485 21.5514 25.249 23.0667 26.0588C23.628 26.3587 23.7708 26.4251 23.9615 26.4532C24.1443 26.4802 24.4027 26.4537 24.5762 26.3903C24.7538 26.3255 24.911 26.2075 25.4867 25.7277C25.5142 25.7049 25.5413 25.6823 25.568 25.6599C26.0271 25.2767 26.387 24.9763 26.8088 24.8121C27.2099 24.6559 27.6419 24.5958 28.0704 24.6365C28.521 24.6794 28.9493 24.8701 29.4956 25.1135C29.5274 25.1276 29.5596 25.142 29.5923 25.1565L30.4982 25.5591C30.5285 25.5726 30.5584 25.5858 30.5879 25.5989C31.0924 25.8227 31.4873 25.9979 31.8007 26.2701C32.1909 26.609 32.478 27.0507 32.6292 27.545C32.7506 27.9419 32.7503 28.3738 32.7499 28.9258C32.7499 28.9581 32.7499 28.9908 32.7499 29.0239V29.0521C32.7499 29.5022 32.7499 29.8831 32.7247 30.1999C32.6981 30.5347 32.6407 30.8484 32.4995 31.1567C32.1995 31.8117 31.5755 32.3784 30.8946 32.6141C30.3231 32.8119 29.7408 32.7552 29.01 32.6839C28.9698 32.68 28.9292 32.676 28.8881 32.672C24.2417 32.2237 20.557 30.7159 17.9205 28.0794C15.2841 25.4429 13.7763 21.7583 13.3279 17.1118C13.324 17.0708 13.32 17.0302 13.3161 16.99C13.2448 16.2592 13.188 15.6768 13.3859 15.1053C13.6216 14.4245 14.1882 13.8005 14.8433 13.5005C15.1516 13.3593 15.4653 13.3018 15.8001 13.2752C16.1168 13.2501 16.4977 13.2501 16.9478 13.2501L16.9761 13.2501C17.0092 13.2501 17.0419 13.2501 17.0741 13.25Z" fill="#161616"/>
</svg>
