<svg width="46" height="46" viewBox="0 0 46 46" fill="none" xmlns="http://www.w3.org/2000/svg">
<rect width="46" height="46" rx="23" fill="#D7BA83"/>
<path fill-rule="evenodd" clip-rule="evenodd" d="M23.002 12.25C26.828 12.2502 30.478 14.5134 32.0059 18.085C33.4259 21.4047 32.6594 24.2365 31.0586 26.6611C29.7308 28.6723 27.787 30.4628 26.0391 32.0732C25.7287 32.3592 25.4244 32.6392 25.1309 32.9141C24.5559 33.4523 23.7922 33.7499 23.002 33.75C22.2116 33.75 21.4471 33.4524 20.8721 32.9141L20.8711 32.9131C20.5605 32.6205 20.237 32.3215 19.9072 32.0166C18.1782 30.4177 16.2613 28.645 14.9473 26.6592C13.3448 24.2371 12.5754 21.4086 13.9971 18.085C15.525 14.5133 19.1758 12.25 23.002 12.25ZM23.002 13.75C19.7426 13.75 16.6548 15.6854 15.376 18.6748C14.2026 21.418 14.7959 23.7127 16.1983 25.832C17.4028 27.6525 19.1588 29.278 20.8897 30.8809C21.2282 31.1944 21.5661 31.5072 21.8984 31.8203C22.1907 32.0935 22.5862 32.25 23.002 32.25C23.418 32.2499 23.8132 32.093 24.1055 31.8193C24.4176 31.527 24.7341 31.2345 25.0518 30.9414C26.805 29.3238 28.5891 27.6781 29.8067 25.834C31.2075 23.7121 31.7988 21.4143 30.627 18.6748C29.3482 15.6856 26.2612 13.7502 23.002 13.75ZM23 17.75C25.3472 17.75 27.25 19.6528 27.25 22C27.25 24.3472 25.3472 26.25 23 26.25C20.6528 26.25 18.75 24.3472 18.75 22C18.75 19.6528 20.6528 17.75 23 17.75ZM23 19.25C21.4812 19.25 20.25 20.4812 20.25 22C20.25 23.5188 21.4812 24.75 23 24.75C24.5188 24.75 25.75 23.5188 25.75 22C25.75 20.4812 24.5188 19.25 23 19.25Z" fill="#8A1538"/>
</svg>
