<svg width="46" height="46" viewBox="0 0 46 46" fill="none" xmlns="http://www.w3.org/2000/svg">
<rect width="46" height="46" rx="23" fill="#D7BA83"/>
<path d="M23.1562 12.75C23.7173 12.7499 24.2299 12.7501 24.6562 12.8242C25.1429 12.9089 25.5751 13.0968 25.9404 13.498C26.2813 13.8724 26.4836 14.345 26.6484 14.8848C26.7977 15.3737 26.9344 15.9917 27.1006 16.75H30.6104C31.0062 16.7496 31.3364 16.7497 31.6191 16.8203C32.4281 17.0225 33.0907 17.6557 33.2285 18.501C33.2761 18.7933 33.2307 19.1201 33.1826 19.4629C33.1786 19.4914 33.1749 19.5201 33.1709 19.5488C33.1655 19.5875 33.1595 19.6255 33.1543 19.6631C33.0104 20.7031 32.9193 21.3664 32.6875 21.9307C32.5679 22.2219 32.4203 22.4983 32.25 22.7588V24.5537C32.25 26.3938 32.2498 27.8469 32.1055 28.9834C31.9576 30.1483 31.6474 31.0941 30.9395 31.8438C30.2257 32.5995 29.3153 32.9363 28.1953 33.0957C27.1138 33.2496 25.7344 33.25 24.0039 33.25H21.9971C20.2663 33.25 18.8863 33.2497 17.8047 33.0957C16.6849 32.9363 15.7752 32.5993 15.0615 31.8438C14.3535 31.0941 14.0424 30.1483 13.8945 28.9834C13.7502 27.8469 13.75 26.3937 13.75 24.5537V22.7598C13.5794 22.4989 13.4313 22.2223 13.3115 21.9307C13.0798 21.3664 12.9886 20.703 12.8447 19.6631C12.8395 19.6255 12.8335 19.5875 12.8281 19.5488C12.8241 19.5201 12.8204 19.4914 12.8164 19.4629C12.7683 19.1201 12.7229 18.7933 12.7705 18.501C12.9083 17.6557 13.5709 17.0225 14.3799 16.8203C14.6627 16.7497 14.9929 16.7496 15.3887 16.75H18.8965C19.0626 15.9917 19.1994 15.3737 19.3486 14.8848C19.5134 14.345 19.7158 13.8724 20.0566 13.498C20.4219 13.0969 20.8542 12.9089 21.3408 12.8242C21.7671 12.7501 22.2797 12.7499 22.8408 12.75H23.1562ZM30.75 24.2607C30.1451 24.6652 29.4536 24.9608 28.7109 25.1182C28.0866 25.2504 27.3714 25.2501 26.1875 25.25H25.7383C25.612 26.6517 24.4345 27.75 23 27.75C21.5656 27.7498 20.3889 26.6515 20.2627 25.25H19.8115C18.6276 25.2501 17.9124 25.2504 17.2881 25.1182C16.5457 24.9609 15.8547 24.665 15.25 24.2607V24.5C15.25 26.4057 15.2519 27.7639 15.3828 28.7949C15.5115 29.8083 15.7539 30.3916 16.1523 30.8135C16.5451 31.2292 17.0793 31.4779 18.0166 31.6113C18.9802 31.7484 20.2527 31.75 22.0557 31.75H23.9443C25.7476 31.75 27.0207 31.7485 27.9844 31.6113C28.9218 31.4779 29.4559 31.2293 29.8486 30.8135C30.247 30.3916 30.4895 29.8083 30.6182 28.7949C30.7491 27.7639 30.75 26.4057 30.75 24.5V24.2607ZM22.0029 23.7539C21.9585 23.7559 21.9389 23.7589 21.9336 23.7598C21.8495 23.7832 21.7834 23.8485 21.7598 23.9326C21.759 23.9375 21.756 23.9575 21.7539 24.0029C21.7506 24.0753 21.75 24.1722 21.75 24.334V25C21.75 25.6902 22.3098 26.2498 23 26.25C23.6904 26.25 24.25 25.6904 24.25 25V24.334C24.25 24.1722 24.2504 24.0753 24.2471 24.0029C24.245 23.9575 24.242 23.9375 24.2412 23.9326C24.2176 23.8485 24.1515 23.7832 24.0674 23.7598C24.0624 23.7589 24.0424 23.756 23.9971 23.7539C23.9248 23.7506 23.8285 23.75 23.667 23.75H22.334C22.1722 23.75 22.0753 23.7506 22.0029 23.7539ZM15.4756 18.25C14.946 18.25 14.8211 18.2559 14.7432 18.2754C14.4423 18.3506 14.2808 18.5594 14.251 18.7422C14.251 18.7422 14.2459 18.7704 14.2549 18.873C14.2642 18.9797 14.2835 19.1196 14.3145 19.3428C14.4797 20.5358 14.5492 20.9949 14.6992 21.3604C14.7851 21.5695 14.8932 21.77 15.0195 21.96C15.082 22.02 15.1322 22.0914 15.1709 22.1699C15.7317 22.8945 16.5848 23.4354 17.5996 23.6504C18.0503 23.7458 18.596 23.75 19.917 23.75H20.2725C20.2813 23.6808 20.292 23.6125 20.3096 23.5469C20.4715 22.9431 20.944 22.4714 21.5479 22.3096C21.7743 22.249 22.0271 22.2495 22.2695 22.25H23.7314C23.9738 22.2495 24.2267 22.249 24.4531 22.3096C25.0569 22.4713 25.5285 22.9432 25.6904 23.5469C25.708 23.6125 25.7197 23.6808 25.7285 23.75H26.082C27.403 23.75 27.9487 23.7458 28.3994 23.6504C29.4168 23.4349 30.2712 22.8914 30.832 22.1641C30.8699 22.089 30.9178 22.0199 30.9775 21.9619C31.1045 21.7713 31.2135 21.5704 31.2998 21.3604C31.4499 20.9949 31.5193 20.5358 31.6846 19.3428C31.7155 19.1196 31.7348 18.9797 31.7441 18.873C31.7531 18.7704 31.7481 18.7422 31.748 18.7422C31.7182 18.5594 31.5567 18.3506 31.2559 18.2754C31.1779 18.2559 31.053 18.25 30.5234 18.25H15.4756ZM22.8965 14.25C22.2618 14.25 21.8807 14.2525 21.5977 14.3018C21.361 14.3429 21.259 14.4067 21.166 14.5088C21.0486 14.6378 20.9254 14.8576 20.7832 15.3232C20.6724 15.6862 20.5667 16.1449 20.4326 16.75H25.5645C25.4304 16.1449 25.3246 15.6862 25.2139 15.3232C25.0717 14.8576 24.9484 14.6379 24.8311 14.5088C24.7381 14.4067 24.636 14.3429 24.3994 14.3018C24.1164 14.2525 23.7353 14.25 23.1006 14.25H22.8965Z" fill="#8A1538"/>
</svg>
