<svg width="20" height="20" viewBox="0 0 20 20" fill="none" xmlns="http://www.w3.org/2000/svg">
<path fill-rule="evenodd" clip-rule="evenodd" d="M3.72035 3.60836C5.33631 2.01995 7.55414 1.03906 9.99984 1.03906C10.5737 1.03906 11.1355 1.0931 11.6802 1.19652C15.8245 1.98336 18.9582 5.62376 18.9582 9.9974C18.9582 10.5136 18.9144 11.0201 18.8303 11.5133C18.1098 15.739 14.4311 18.9557 9.99984 18.9557C5.05229 18.9557 1.0415 14.9449 1.0415 9.9974C1.0415 7.49588 2.06763 5.2329 3.72035 3.60836ZM5.35735 3.84327C5.71974 4.08564 6.03259 4.4124 6.37458 4.77375C7.4857 5.9478 8.43946 5.91653 8.96077 5.64111C9.16818 5.53153 9.23734 5.43229 9.27396 5.3584C9.32379 5.25784 9.34317 5.15132 9.38355 4.92941C9.38548 4.9188 9.38746 4.90792 9.38949 4.89676C9.42861 4.68214 9.49016 4.35987 9.69435 4.05149C9.90809 3.72869 10.233 3.48268 10.6885 3.30216C10.9613 3.19411 11.0861 3.02249 11.1348 2.84332C11.1708 2.71064 11.1711 2.54691 11.1215 2.37001C10.7557 2.3167 10.3811 2.28906 9.99984 2.28906C8.25639 2.28906 6.64885 2.8673 5.35735 3.84327ZM12.4104 2.6733C12.4079 2.84044 12.3855 3.00736 12.3411 3.1709C12.1857 3.74312 11.7753 4.21609 11.149 4.46426C10.8713 4.5743 10.7775 4.67985 10.7366 4.74161C10.6861 4.81778 10.6571 4.91304 10.6192 5.1209C10.616 5.13884 10.6126 5.15819 10.609 5.17876C10.5767 5.36243 10.5272 5.64464 10.394 5.91347C10.2302 6.24389 9.96204 6.52586 9.54468 6.74635C8.39995 7.35113 6.85465 7.09952 5.4667 5.63297C4.94329 5.07992 4.67509 4.83635 4.36887 4.73326C3.0797 6.11158 2.2915 7.96193 2.2915 9.9974C2.2915 13.8503 5.11827 17.043 8.81102 17.6146C8.79935 17.548 8.79162 17.4802 8.78791 17.4112C8.7602 16.8959 8.96456 16.421 9.18775 16.0371C9.51316 15.4776 9.61205 15.2966 9.66319 15.0914C9.71749 14.8735 9.72201 14.6118 9.72201 13.8677C9.72201 13.4575 9.78191 13.044 9.96559 12.6744C10.1566 12.2901 10.4622 11.9926 10.8785 11.8003C11.6572 11.4404 12.7884 11.4653 14.2891 11.7655C14.4614 11.8 14.6427 11.7739 14.8813 11.6758C15.0795 11.5943 15.2689 11.4857 15.5022 11.3521C15.575 11.3104 15.6521 11.2663 15.735 11.2197C16.2391 10.9369 16.8861 10.6127 17.6798 10.6641C17.6986 10.4445 17.7082 10.2221 17.7082 9.9974C17.7082 6.58247 15.487 3.68522 12.4104 2.6733ZM17.4693 11.9097C17.1026 11.9212 16.7571 12.0796 16.3467 12.3099C16.2901 12.3416 16.2303 12.376 16.168 12.4118C15.9227 12.5526 15.6382 12.7161 15.3567 12.8318C14.9823 12.9858 14.5402 13.0905 14.0439 12.9912C12.5684 12.6961 11.7898 12.7562 11.4029 12.935C11.2363 13.012 11.1451 13.1098 11.085 13.2307C11.0175 13.3664 10.972 13.5683 10.972 13.8677C10.972 13.896 10.972 13.9238 10.972 13.9513C10.9722 14.5803 10.9723 15.0076 10.8761 15.3937C10.7769 15.7918 10.5796 16.1308 10.3052 16.6021C10.2931 16.623 10.2808 16.6441 10.2683 16.6655C10.0889 16.9741 10.0279 17.1915 10.0361 17.3441C10.0408 17.4319 10.0704 17.552 10.2229 17.7026C13.721 17.6031 16.6366 15.1727 17.4693 11.9097Z" fill="#CFAE70"/>
</svg>
