<svg width="24" height="24" viewBox="0 0 24 24" fill="none" xmlns="http://www.w3.org/2000/svg">
<path d="M5.98829 4.92621C6.12874 5.06683 6.20763 5.25746 6.20763 5.45621C6.20763 5.65496 6.12874 5.84558 5.98829 5.98621C5.19896 6.77551 4.57283 7.71255 4.14565 8.74384C3.71847 9.77512 3.4986 10.8805 3.4986 11.9967C3.4986 13.113 3.71847 14.2183 4.14565 15.2496C4.57283 16.2809 5.19896 17.2179 5.98829 18.0072C6.12484 18.1487 6.20035 18.3382 6.19855 18.5349C6.19674 18.7315 6.11778 18.9196 5.97866 19.0586C5.83953 19.1976 5.65139 19.2764 5.45474 19.278C5.25809 19.2796 5.06867 19.2039 4.92729 19.0672C1.02229 15.1622 1.02229 8.83121 4.92729 4.92621C5.06791 4.78576 5.25853 4.70687 5.45729 4.70687C5.65604 4.70687 5.84766 4.78576 5.98829 4.92621ZM19.0683 4.92621C22.9733 8.83121 22.9733 15.1632 19.0683 19.0682C18.9261 19.2007 18.7381 19.2728 18.5438 19.2694C18.3495 19.266 18.1641 19.1872 18.0267 19.0498C17.8892 18.9124 17.8105 18.727 17.8071 18.5327C17.8037 18.3384 17.8758 18.1504 18.0083 18.0082C18.7978 17.2189 19.424 16.2818 19.8513 15.2504C20.2786 14.219 20.4985 13.1136 20.4985 11.9972C20.4985 10.8808 20.2786 9.77539 19.8513 8.74401C19.424 7.71264 18.7978 6.77553 18.0083 5.98621C17.9346 5.91755 17.8755 5.83475 17.8345 5.74275C17.7935 5.65075 17.7715 5.55143 17.7697 5.45073C17.7679 5.35003 17.7864 5.25 17.8242 5.15661C17.8619 5.06322 17.918 4.97839 17.9892 4.90717C18.0605 4.83595 18.1453 4.77981 18.2387 4.74209C18.3321 4.70436 18.4321 4.68584 18.5328 4.68762C18.6335 4.68939 18.7328 4.71144 18.8248 4.75243C18.9168 4.79342 18.9996 4.85252 19.0683 4.92621ZM8.81629 7.75421C8.95674 7.89483 9.03563 8.08546 9.03563 8.28421C9.03563 8.48296 8.95674 8.67358 8.81629 8.81421C8.39827 9.23209 8.06667 9.72823 7.84043 10.2743C7.61419 10.8204 7.49775 11.4056 7.49775 11.9967C7.49775 12.5878 7.61419 13.1731 7.84043 13.7191C8.06667 14.2652 8.39827 14.7613 8.81629 15.1792C8.94877 15.3214 9.02089 15.5094 9.01746 15.7037C9.01403 15.898 8.93532 16.0834 8.79791 16.2208C8.66049 16.3582 8.47511 16.437 8.28081 16.4404C8.08651 16.4438 7.89846 16.3717 7.75629 16.2392C6.63115 15.114 5.99907 13.5879 5.99907 11.9967C5.99907 10.4055 6.63115 8.87942 7.75629 7.75421C7.89691 7.61376 8.08753 7.53487 8.28629 7.53487C8.48504 7.53487 8.67566 7.61376 8.81629 7.75421ZM16.2413 7.75421C17.3664 8.87942 17.9985 10.4055 17.9985 11.9967C17.9985 13.5879 17.3664 15.114 16.2413 16.2392C16.1721 16.3109 16.0894 16.368 15.9979 16.4074C15.9064 16.4467 15.808 16.4675 15.7084 16.4684C15.6089 16.4693 15.5101 16.4504 15.4179 16.4127C15.3257 16.375 15.242 16.3194 15.1715 16.249C15.101 16.1786 15.0453 16.0949 15.0076 16.0028C14.9698 15.9106 14.9508 15.8118 14.9516 15.7123C14.9524 15.6127 14.9731 15.5143 15.0123 15.4227C15.0516 15.3312 15.1087 15.2484 15.1803 15.1792C15.5982 14.7613 15.9296 14.2653 16.1558 13.7193C16.3819 13.1733 16.4983 12.5882 16.4983 11.9972C16.4983 11.4063 16.3819 10.8211 16.1558 10.2751C15.9296 9.72915 15.5982 9.23307 15.1803 8.81521C15.0478 8.67303 14.9757 8.48499 14.9791 8.29069C14.9825 8.09638 15.0613 7.911 15.1987 7.77359C15.3361 7.63617 15.5215 7.55746 15.7158 7.55403C15.9101 7.55061 16.0981 7.62273 16.2403 7.75521M11.9983 10.4972C12.3961 10.4972 12.7776 10.6552 13.0589 10.9365C13.3403 11.2179 13.4983 11.5994 13.4983 11.9972C13.4983 12.395 13.3403 12.7766 13.0589 13.0579C12.7776 13.3392 12.3961 13.4972 11.9983 13.4972C11.6005 13.4972 11.2189 13.3392 10.9376 13.0579C10.6563 12.7766 10.4983 12.395 10.4983 11.9972C10.4983 11.5994 10.6563 11.2179 10.9376 10.9365C11.2189 10.6552 11.6005 10.4972 11.9983 10.4972Z" fill="#8A1538"/>
</svg>
