<svg width="225" height="176" viewBox="0 0 225 176" fill="none" xmlns="http://www.w3.org/2000/svg">
<g clip-path="url(#clip0_2720_42022)">
<rect y="12.8516" width="137" height="134" rx="30" transform="rotate(-5.38242 0 12.8516)" fill="white"/>
<path d="M68.7257 2.46114C83.8112 1.03972 95.6601 -0.07682 105.028 0.295331C114.628 0.676697 122.401 2.63276 128.867 7.98564C135.334 13.3385 138.707 20.6091 140.875 29.9689C142.99 39.1027 144.107 50.9516 145.528 66.0372L145.602 66.8247C147.024 81.9103 148.14 93.7592 147.768 103.127C147.387 112.727 145.431 120.5 140.078 126.967C134.725 133.433 127.454 136.806 118.094 138.974C108.961 141.089 97.1116 142.206 82.0261 143.627L81.2386 143.701C66.153 145.123 54.3041 146.239 44.936 145.867C35.336 145.486 27.5633 143.53 21.0968 138.177C14.6303 132.824 11.2569 125.553 9.08916 116.193C6.97379 107.06 5.85756 95.2107 4.43632 80.1251L4.36212 79.3376C2.94069 64.252 1.82416 52.4031 2.19631 43.035C2.57767 33.435 4.53373 25.6623 9.88661 19.1958C15.2395 12.7293 22.5101 9.3559 31.8699 7.18819C41.0037 5.07281 52.8526 3.95658 67.9382 2.53534L68.7257 2.46114ZM74.3887 107.509C59.1063 98.7755 40.5019 95.0834 21.9064 97.2043L21.7928 97.2159C20.0714 97.3741 18.3558 97.5793 16.6478 97.8282C17.3777 104.125 18.1616 109.384 19.1963 113.852C21.1021 122.081 23.6966 126.859 27.7131 130.184C31.7296 133.509 36.9081 135.165 45.3482 135.5C53.9387 135.842 65.094 134.801 80.6591 133.335C87.7796 132.664 93.9766 132.076 99.4069 131.452C93.6055 121.878 85.0698 113.614 74.3887 107.509ZM122.022 101.649C113.309 102.435 104.761 105.691 96.6856 111.449C102.258 116.945 106.904 123.161 110.453 129.922C112.336 129.597 114.099 129.25 115.753 128.867C123.982 126.961 128.76 124.367 132.085 120.35C135.409 116.335 137.065 111.158 137.401 102.721C132.228 101.52 127.092 101.166 122.047 101.647L122.022 101.649ZM69.3051 12.8275C53.74 14.294 42.5867 15.3556 34.2111 17.2954C25.9822 19.2012 21.2042 21.7957 17.8794 25.8121C14.5546 29.8286 12.8982 35.0071 12.5629 43.4472C12.2217 52.0377 13.262 63.193 14.7285 78.7581C15.019 81.8416 15.2953 84.7517 15.564 87.5015C17.2988 87.2555 19.0407 87.0511 20.7875 86.8897C41.4334 84.5468 62.2486 88.6218 79.5361 98.5014C82.7311 100.327 85.7692 102.332 88.6358 104.498C98.5723 96.9028 109.533 92.3616 121.077 91.3173C126.458 90.8059 131.873 91.0737 137.263 92.0924C136.917 85.3133 136.162 77.2389 135.236 67.4042C133.769 51.839 132.708 40.6857 130.768 32.3101C128.862 24.0812 126.268 19.3032 122.251 15.9784C118.235 12.6536 113.056 10.9972 104.616 10.6619C96.0256 10.3207 84.8703 11.361 69.3051 12.8275ZM101.59 23.6799C110.148 22.8737 117.738 29.1569 118.544 37.714C119.35 46.271 113.067 53.8614 104.51 54.6677C95.9531 55.4739 88.3626 49.1906 87.5564 40.6336C86.7502 32.0766 93.0334 24.4861 101.59 23.6799ZM102.564 34.0092C99.7113 34.2779 97.6169 36.808 97.8857 39.6604C98.1544 42.5127 100.685 44.6072 103.537 44.3384C106.389 44.0697 108.484 41.5395 108.215 38.6872C107.946 35.8348 105.416 33.7404 102.564 34.0092Z" fill="#161616"/>
</g>
<g clip-path="url(#clip1_2720_42022)">
<rect x="86.875" y="36.2578" width="138" height="136" rx="30" transform="rotate(1.57243 86.875 36.2578)" fill="white"/>
<path d="M156.306 36.1205C171.635 36.5412 183.675 36.872 193.042 38.3637C202.64 39.8924 210.211 42.7457 216.055 48.7726C221.899 54.7995 224.403 62.3351 225.44 71.7741C226.452 80.9854 226.129 92.7393 225.718 107.703L225.696 108.484C225.286 123.449 224.964 135.203 223.448 144.344C221.895 153.712 218.981 161.099 212.815 166.796C206.649 172.494 198.933 174.927 189.266 175.927C179.831 176.903 167.791 176.573 152.462 176.152L151.662 176.13C136.333 175.709 124.293 175.378 114.926 173.886C105.328 172.358 97.7575 169.504 91.9133 163.478C86.0692 157.451 83.5652 149.915 82.5283 140.476C81.5163 131.265 81.8395 119.511 82.2504 104.547L82.2718 103.766C82.6825 88.8016 83.0046 77.0476 84.5204 67.9058C86.0736 58.5378 88.9872 51.151 95.1532 45.4537C101.319 39.7566 109.035 37.3229 118.703 36.3231C128.137 35.3474 140.177 35.6776 155.506 36.0985L156.306 36.1205ZM155.625 46.3556C139.808 45.9214 128.473 45.6211 119.822 46.5158C111.323 47.3949 106.206 49.3642 102.376 52.9028C98.5464 56.4415 96.2518 61.3209 94.8862 69.557C93.4963 77.94 93.181 89.0043 92.7572 104.444C92.3333 119.884 92.0411 130.949 92.969 139.396C93.8807 147.695 95.9042 152.693 99.5342 156.436C103.164 160.179 108.165 162.426 116.603 163.77C125.192 165.138 136.527 165.46 152.343 165.895C168.16 166.329 179.495 166.629 188.146 165.734C196.646 164.855 201.762 162.886 205.592 159.347C209.422 155.809 211.716 150.929 213.082 142.693C214.472 134.31 214.787 123.246 215.211 107.806C215.635 92.3658 215.927 81.3009 214.999 72.8542C214.087 64.5555 212.064 59.5576 208.434 55.8142C204.804 52.0708 199.803 49.8237 191.365 48.4797C182.776 47.1118 171.441 46.7898 155.625 46.3556ZM139.365 77.1554C143.254 76.0996 146.923 77.3079 150.126 78.8635C153.285 80.3974 157.077 82.8323 161.595 85.7335L162.157 86.0938C166.848 89.1052 170.76 91.6159 173.58 93.9326C176.483 96.3175 179.021 99.1121 179.856 102.932C180.419 105.508 180.345 108.192 179.642 110.732C178.598 114.501 175.911 117.152 172.882 119.374C169.938 121.533 165.895 123.825 161.046 126.575L160.465 126.905C155.794 129.553 151.875 131.776 148.636 133.134C145.353 134.512 141.623 135.517 137.798 134.249C135.27 133.411 133.044 131.908 131.308 129.941C128.783 127.078 128.025 123.407 127.737 119.751C127.45 116.107 127.579 111.414 127.736 105.699L127.752 105.111C127.909 99.3956 128.038 94.7023 128.524 91.08C129.012 87.4451 129.97 83.8209 132.649 81.1015C134.49 79.2325 136.795 77.8533 139.365 77.1554ZM145.46 88.0396C142.949 86.8204 142.252 87.0147 142.191 87.0316C141.508 87.2171 140.821 87.6036 140.221 88.2124C139.948 88.49 139.348 89.3475 138.934 92.4257C138.527 95.4558 138.407 99.6113 138.24 105.693C138.073 111.774 137.965 115.93 138.206 118.978C138.45 122.076 139.002 122.965 139.259 123.257C139.825 123.897 140.489 124.32 141.161 124.543C141.221 124.563 141.906 124.795 144.48 123.716C147.065 122.632 150.433 120.732 155.478 117.872C160.686 114.918 164.181 112.926 166.567 111.176C168.923 109.448 169.372 108.529 169.506 108.046C169.774 107.076 169.802 106.042 169.588 105.06C169.48 104.57 169.084 103.627 166.825 101.772C164.539 99.8936 161.159 97.7129 156.12 94.4782C151.24 91.3453 147.981 89.2638 145.46 88.0396Z" fill="#333333"/>
</g>
<defs>
<clipPath id="clip0_2720_42022">
<rect y="12.8516" width="137" height="134" rx="30" transform="rotate(-5.38242 0 12.8516)" fill="white"/>
</clipPath>
<clipPath id="clip1_2720_42022">
<rect x="86.875" y="36.2578" width="138" height="136" rx="30" transform="rotate(1.57243 86.875 36.2578)" fill="white"/>
</clipPath>
</defs>
</svg>
