<svg width="1004" height="968" viewBox="0 0 1004 968" fill="none" xmlns="http://www.w3.org/2000/svg">
<rect x="466.5" y="711" width="71" height="28" rx="12" fill="#D5BDAF"/>
<path d="M479.273 720.614V719.364H488V720.614H484.341V731H482.932V720.614H479.273ZM492.273 731.182C491.485 731.182 490.794 730.994 490.199 730.619C489.608 730.244 489.146 729.72 488.812 729.045C488.483 728.371 488.318 727.583 488.318 726.682C488.318 725.773 488.483 724.979 488.812 724.301C489.146 723.623 489.608 723.097 490.199 722.722C490.794 722.347 491.485 722.159 492.273 722.159C493.061 722.159 493.75 722.347 494.341 722.722C494.936 723.097 495.398 723.623 495.727 724.301C496.061 724.979 496.227 725.773 496.227 726.682C496.227 727.583 496.061 728.371 495.727 729.045C495.398 729.72 494.936 730.244 494.341 730.619C493.75 730.994 493.061 731.182 492.273 731.182ZM492.273 729.977C492.871 729.977 493.364 729.824 493.75 729.517C494.136 729.21 494.422 728.807 494.608 728.307C494.794 727.807 494.886 727.265 494.886 726.682C494.886 726.098 494.794 725.555 494.608 725.051C494.422 724.547 494.136 724.14 493.75 723.83C493.364 723.519 492.871 723.364 492.273 723.364C491.674 723.364 491.182 723.519 490.795 723.83C490.409 724.14 490.123 724.547 489.938 725.051C489.752 725.555 489.659 726.098 489.659 726.682C489.659 727.265 489.752 727.807 489.938 728.307C490.123 728.807 490.409 729.21 490.795 729.517C491.182 729.824 491.674 729.977 492.273 729.977ZM501.57 731.182C500.842 731.182 500.2 730.998 499.643 730.631C499.087 730.259 498.651 729.737 498.337 729.062C498.022 728.384 497.865 727.583 497.865 726.659C497.865 725.742 498.022 724.947 498.337 724.273C498.651 723.598 499.089 723.078 499.649 722.71C500.21 722.343 500.857 722.159 501.592 722.159C502.161 722.159 502.609 722.254 502.939 722.443C503.272 722.629 503.526 722.841 503.7 723.08C503.878 723.314 504.017 723.508 504.115 723.659H504.229V719.364H505.57V731H504.274V729.659H504.115C504.017 729.818 503.876 730.019 503.695 730.261C503.513 730.5 503.253 730.714 502.916 730.903C502.579 731.089 502.13 731.182 501.57 731.182ZM501.751 729.977C502.289 729.977 502.744 729.837 503.115 729.557C503.486 729.273 503.768 728.881 503.962 728.381C504.155 727.877 504.251 727.295 504.251 726.636C504.251 725.985 504.157 725.415 503.967 724.926C503.778 724.434 503.498 724.051 503.126 723.778C502.755 723.502 502.297 723.364 501.751 723.364C501.183 723.364 500.71 723.509 500.331 723.801C499.956 724.089 499.674 724.481 499.484 724.977C499.299 725.47 499.206 726.023 499.206 726.636C499.206 727.258 499.301 727.822 499.49 728.33C499.683 728.833 499.967 729.235 500.342 729.534C500.721 729.83 501.191 729.977 501.751 729.977ZM510.78 731.205C510.227 731.205 509.725 731.1 509.274 730.892C508.823 730.68 508.465 730.375 508.2 729.977C507.935 729.576 507.803 729.091 507.803 728.523C507.803 728.023 507.901 727.617 508.098 727.307C508.295 726.992 508.558 726.746 508.888 726.568C509.217 726.39 509.581 726.258 509.979 726.17C510.38 726.08 510.784 726.008 511.189 725.955C511.719 725.886 512.149 725.835 512.479 725.801C512.812 725.763 513.054 725.701 513.206 725.614C513.361 725.527 513.439 725.375 513.439 725.159V725.114C513.439 724.553 513.286 724.117 512.979 723.807C512.676 723.496 512.215 723.341 511.598 723.341C510.958 723.341 510.456 723.481 510.092 723.761C509.729 724.042 509.473 724.341 509.325 724.659L508.053 724.205C508.28 723.674 508.583 723.261 508.962 722.966C509.344 722.667 509.761 722.458 510.212 722.341C510.666 722.22 511.113 722.159 511.553 722.159C511.833 722.159 512.155 722.193 512.518 722.261C512.886 722.326 513.24 722.46 513.581 722.665C513.926 722.869 514.212 723.178 514.439 723.591C514.666 724.004 514.78 724.557 514.78 725.25V731H513.439V729.818H513.371C513.28 730.008 513.128 730.21 512.916 730.426C512.704 730.642 512.422 730.826 512.07 730.977C511.717 731.129 511.287 731.205 510.78 731.205ZM510.984 730C511.515 730 511.962 729.896 512.325 729.688C512.693 729.479 512.969 729.21 513.155 728.881C513.344 728.551 513.439 728.205 513.439 727.841V726.614C513.382 726.682 513.257 726.744 513.064 726.801C512.875 726.854 512.655 726.902 512.405 726.943C512.159 726.981 511.918 727.015 511.683 727.045C511.452 727.072 511.265 727.095 511.121 727.114C510.772 727.159 510.446 727.233 510.143 727.335C509.844 727.434 509.602 727.583 509.416 727.784C509.234 727.981 509.143 728.25 509.143 728.591C509.143 729.057 509.316 729.409 509.661 729.648C510.009 729.883 510.45 730 510.984 730ZM517.778 734.273C517.551 734.273 517.348 734.254 517.17 734.216C516.992 734.182 516.869 734.148 516.801 734.114L517.142 732.932C517.468 733.015 517.756 733.045 518.006 733.023C518.256 733 518.477 732.888 518.67 732.688C518.867 732.491 519.047 732.17 519.21 731.727L519.46 731.045L516.233 722.273H517.688L520.097 729.227H520.188L522.597 722.273H524.051L520.347 732.273C520.18 732.723 519.973 733.097 519.727 733.392C519.481 733.691 519.195 733.913 518.869 734.057C518.547 734.201 518.184 734.273 517.778 734.273Z" fill="white"/>
<rect x="24" y="755" width="598" height="53" rx="12" fill="white"/>
<path d="M47.2273 770.182C47.2273 771.409 47.0057 772.47 46.5625 773.364C46.1193 774.258 45.5114 774.947 44.7386 775.432C43.9659 775.917 43.0833 776.159 42.0909 776.159C41.0985 776.159 40.2159 775.917 39.4432 775.432C38.6705 774.947 38.0625 774.258 37.6193 773.364C37.1761 772.47 36.9545 771.409 36.9545 770.182C36.9545 768.955 37.1761 767.894 37.6193 767C38.0625 766.106 38.6705 765.417 39.4432 764.932C40.2159 764.447 41.0985 764.205 42.0909 764.205C43.0833 764.205 43.9659 764.447 44.7386 764.932C45.5114 765.417 46.1193 766.106 46.5625 767C47.0057 767.894 47.2273 768.955 47.2273 770.182ZM45.8636 770.182C45.8636 769.174 45.6951 768.324 45.358 767.631C45.0246 766.938 44.572 766.413 44 766.057C43.4318 765.701 42.7955 765.523 42.0909 765.523C41.3864 765.523 40.7481 765.701 40.1761 766.057C39.608 766.413 39.1553 766.938 38.8182 767.631C38.4848 768.324 38.3182 769.174 38.3182 770.182C38.3182 771.189 38.4848 772.04 38.8182 772.733C39.1553 773.426 39.608 773.951 40.1761 774.307C40.7481 774.663 41.3864 774.841 42.0909 774.841C42.7955 774.841 43.4318 774.663 44 774.307C44.572 773.951 45.0246 773.426 45.358 772.733C45.6951 772.04 45.8636 771.189 45.8636 770.182ZM49.5966 764.364H51.2784L55.233 774.023H55.3693L59.3239 764.364H61.0057V776H59.6875V767.159H59.5739L55.9375 776H54.6648L51.0284 767.159H50.9148V776H49.5966V764.364ZM71.7855 768C71.6605 767.617 71.4957 767.275 71.2912 766.972C71.0904 766.665 70.8499 766.403 70.5696 766.188C70.2931 765.972 69.9787 765.807 69.6264 765.693C69.2741 765.58 68.8878 765.523 68.4673 765.523C67.7779 765.523 67.151 765.701 66.5866 766.057C66.0223 766.413 65.5734 766.938 65.2401 767.631C64.9067 768.324 64.7401 769.174 64.7401 770.182C64.7401 771.189 64.9086 772.04 65.2457 772.733C65.5829 773.426 66.0393 773.951 66.6151 774.307C67.1908 774.663 67.8385 774.841 68.5582 774.841C69.2249 774.841 69.812 774.699 70.3196 774.415C70.831 774.127 71.2287 773.722 71.5128 773.199C71.8007 772.672 71.9446 772.053 71.9446 771.341L72.3764 771.432H68.8764V770.182H73.3082V771.432C73.3082 772.39 73.1037 773.223 72.6946 773.932C72.2893 774.64 71.7287 775.189 71.0128 775.58C70.3007 775.966 69.4825 776.159 68.5582 776.159C67.5279 776.159 66.6226 775.917 65.8423 775.432C65.0658 774.947 64.4598 774.258 64.0241 773.364C63.5923 772.47 63.3764 771.409 63.3764 770.182C63.3764 769.261 63.4995 768.434 63.7457 767.699C63.9957 766.96 64.348 766.331 64.8026 765.812C65.2571 765.294 65.795 764.896 66.4162 764.619C67.0374 764.343 67.7211 764.205 68.4673 764.205C69.081 764.205 69.6529 764.297 70.1832 764.483C70.7173 764.665 71.1927 764.924 71.6094 765.261C72.0298 765.595 72.3802 765.994 72.6605 766.46C72.9408 766.922 73.134 767.436 73.2401 768H71.7855ZM78.8125 777.12H94.8125V761.12H78.8125V777.12ZM103.835 776.182C103.108 776.182 102.466 775.998 101.909 775.631C101.352 775.259 100.917 774.737 100.602 774.062C100.288 773.384 100.131 772.583 100.131 771.659C100.131 770.742 100.288 769.947 100.602 769.273C100.917 768.598 101.354 768.078 101.915 767.71C102.475 767.343 103.123 767.159 103.858 767.159C104.426 767.159 104.875 767.254 105.205 767.443C105.538 767.629 105.792 767.841 105.966 768.08C106.144 768.314 106.282 768.508 106.381 768.659H106.494V764.364H107.835V776H106.54V774.659H106.381C106.282 774.818 106.142 775.019 105.96 775.261C105.778 775.5 105.519 775.714 105.182 775.903C104.845 776.089 104.396 776.182 103.835 776.182ZM104.017 774.977C104.555 774.977 105.009 774.837 105.381 774.557C105.752 774.273 106.034 773.881 106.227 773.381C106.42 772.877 106.517 772.295 106.517 771.636C106.517 770.985 106.422 770.415 106.233 769.926C106.044 769.434 105.763 769.051 105.392 768.778C105.021 768.502 104.563 768.364 104.017 768.364C103.449 768.364 102.975 768.509 102.597 768.801C102.222 769.089 101.939 769.481 101.75 769.977C101.564 770.47 101.472 771.023 101.472 771.636C101.472 772.258 101.566 772.822 101.756 773.33C101.949 773.833 102.233 774.235 102.608 774.534C102.987 774.83 103.456 774.977 104.017 774.977ZM114.023 776.182C113.235 776.182 112.544 775.994 111.949 775.619C111.358 775.244 110.896 774.72 110.562 774.045C110.233 773.371 110.068 772.583 110.068 771.682C110.068 770.773 110.233 769.979 110.562 769.301C110.896 768.623 111.358 768.097 111.949 767.722C112.544 767.347 113.235 767.159 114.023 767.159C114.811 767.159 115.5 767.347 116.091 767.722C116.686 768.097 117.148 768.623 117.477 769.301C117.811 769.979 117.977 770.773 117.977 771.682C117.977 772.583 117.811 773.371 117.477 774.045C117.148 774.72 116.686 775.244 116.091 775.619C115.5 775.994 114.811 776.182 114.023 776.182ZM114.023 774.977C114.621 774.977 115.114 774.824 115.5 774.517C115.886 774.21 116.172 773.807 116.358 773.307C116.544 772.807 116.636 772.265 116.636 771.682C116.636 771.098 116.544 770.555 116.358 770.051C116.172 769.547 115.886 769.14 115.5 768.83C115.114 768.519 114.621 768.364 114.023 768.364C113.424 768.364 112.932 768.519 112.545 768.83C112.159 769.14 111.873 769.547 111.688 770.051C111.502 770.555 111.409 771.098 111.409 771.682C111.409 772.265 111.502 772.807 111.688 773.307C111.873 773.807 112.159 774.21 112.545 774.517C112.932 774.824 113.424 774.977 114.023 774.977ZM125.388 779.273C125.161 779.273 124.958 779.254 124.78 779.216C124.602 779.182 124.479 779.148 124.411 779.114L124.751 777.932C125.077 778.015 125.365 778.045 125.615 778.023C125.865 778 126.087 777.888 126.28 777.688C126.477 777.491 126.657 777.17 126.82 776.727L127.07 776.045L123.842 767.273H125.297L127.706 774.227H127.797L130.206 767.273H131.661L127.956 777.273C127.789 777.723 127.583 778.097 127.337 778.392C127.09 778.691 126.804 778.913 126.479 779.057C126.157 779.201 125.793 779.273 125.388 779.273ZM136.663 776.182C135.875 776.182 135.184 775.994 134.589 775.619C133.999 775.244 133.536 774.72 133.203 774.045C132.874 773.371 132.709 772.583 132.709 771.682C132.709 770.773 132.874 769.979 133.203 769.301C133.536 768.623 133.999 768.097 134.589 767.722C135.184 767.347 135.875 767.159 136.663 767.159C137.451 767.159 138.141 767.347 138.732 767.722C139.326 768.097 139.788 768.623 140.118 769.301C140.451 769.979 140.618 770.773 140.618 771.682C140.618 772.583 140.451 773.371 140.118 774.045C139.788 774.72 139.326 775.244 138.732 775.619C138.141 775.994 137.451 776.182 136.663 776.182ZM136.663 774.977C137.262 774.977 137.754 774.824 138.141 774.517C138.527 774.21 138.813 773.807 138.999 773.307C139.184 772.807 139.277 772.265 139.277 771.682C139.277 771.098 139.184 770.555 138.999 770.051C138.813 769.547 138.527 769.14 138.141 768.83C137.754 768.519 137.262 768.364 136.663 768.364C136.065 768.364 135.572 768.519 135.186 768.83C134.8 769.14 134.514 769.547 134.328 770.051C134.143 770.555 134.05 771.098 134.05 771.682C134.05 772.265 134.143 772.807 134.328 773.307C134.514 773.807 134.8 774.21 135.186 774.517C135.572 774.824 136.065 774.977 136.663 774.977ZM148.165 772.432V767.273H149.506V776H148.165V774.523H148.074C147.869 774.966 147.551 775.343 147.119 775.653C146.688 775.96 146.142 776.114 145.483 776.114C144.938 776.114 144.453 775.994 144.028 775.756C143.604 775.513 143.271 775.15 143.028 774.665C142.786 774.176 142.665 773.561 142.665 772.818V767.273H144.006V772.727C144.006 773.364 144.184 773.871 144.54 774.25C144.9 774.629 145.358 774.818 145.915 774.818C146.248 774.818 146.587 774.733 146.932 774.562C147.28 774.392 147.572 774.131 147.807 773.778C148.045 773.426 148.165 772.977 148.165 772.432ZM156.462 776V767.273H157.757V768.591H157.848C158.007 768.159 158.295 767.809 158.712 767.54C159.128 767.271 159.598 767.136 160.121 767.136C160.219 767.136 160.342 767.138 160.49 767.142C160.638 767.146 160.75 767.152 160.825 767.159V768.523C160.78 768.511 160.676 768.494 160.513 768.472C160.354 768.445 160.185 768.432 160.007 768.432C159.583 768.432 159.204 768.521 158.871 768.699C158.541 768.873 158.28 769.116 158.087 769.426C157.897 769.733 157.803 770.083 157.803 770.477V776H156.462ZM165.808 776.182C164.967 776.182 164.242 775.996 163.632 775.625C163.026 775.25 162.558 774.727 162.229 774.057C161.903 773.383 161.74 772.598 161.74 771.705C161.74 770.811 161.903 770.023 162.229 769.341C162.558 768.655 163.017 768.121 163.604 767.739C164.195 767.352 164.884 767.159 165.672 767.159C166.126 767.159 166.575 767.235 167.018 767.386C167.462 767.538 167.865 767.784 168.229 768.125C168.592 768.462 168.882 768.909 169.098 769.466C169.314 770.023 169.422 770.708 169.422 771.523V772.091H162.695V770.932H168.058C168.058 770.439 167.96 770 167.763 769.614C167.57 769.227 167.293 768.922 166.933 768.699C166.577 768.475 166.157 768.364 165.672 768.364C165.138 768.364 164.676 768.496 164.286 768.761C163.899 769.023 163.602 769.364 163.393 769.784C163.185 770.205 163.081 770.655 163.081 771.136V771.909C163.081 772.568 163.195 773.127 163.422 773.585C163.653 774.04 163.973 774.386 164.382 774.625C164.791 774.86 165.267 774.977 165.808 774.977C166.161 774.977 166.479 774.928 166.763 774.83C167.051 774.727 167.299 774.576 167.507 774.375C167.715 774.17 167.876 773.917 167.99 773.614L169.286 773.977C169.149 774.417 168.92 774.803 168.598 775.136C168.276 775.466 167.878 775.723 167.405 775.909C166.931 776.091 166.399 776.182 165.808 776.182ZM171.462 776V767.273H172.757V768.636H172.871C173.053 768.17 173.346 767.809 173.751 767.551C174.157 767.29 174.643 767.159 175.212 767.159C175.787 767.159 176.267 767.29 176.649 767.551C177.036 767.809 177.337 768.17 177.553 768.636H177.643C177.867 768.186 178.202 767.828 178.649 767.562C179.096 767.294 179.632 767.159 180.257 767.159C181.037 767.159 181.676 767.403 182.172 767.892C182.668 768.377 182.916 769.133 182.916 770.159V776H181.575V770.159C181.575 769.515 181.399 769.055 181.047 768.778C180.695 768.502 180.28 768.364 179.803 768.364C179.189 768.364 178.714 768.549 178.376 768.92C178.039 769.288 177.871 769.754 177.871 770.318V776H176.507V770.023C176.507 769.527 176.346 769.127 176.024 768.824C175.702 768.517 175.287 768.364 174.78 768.364C174.431 768.364 174.106 768.456 173.803 768.642C173.503 768.828 173.261 769.085 173.075 769.415C172.893 769.741 172.803 770.117 172.803 770.545V776H171.462ZM189.027 776.182C188.186 776.182 187.461 775.996 186.851 775.625C186.245 775.25 185.777 774.727 185.447 774.057C185.122 773.383 184.959 772.598 184.959 771.705C184.959 770.811 185.122 770.023 185.447 769.341C185.777 768.655 186.235 768.121 186.822 767.739C187.413 767.352 188.103 767.159 188.891 767.159C189.345 767.159 189.794 767.235 190.237 767.386C190.68 767.538 191.084 767.784 191.447 768.125C191.811 768.462 192.101 768.909 192.317 769.466C192.533 770.023 192.641 770.708 192.641 771.523V772.091H185.913V770.932H191.277C191.277 770.439 191.179 770 190.982 769.614C190.788 769.227 190.512 768.922 190.152 768.699C189.796 768.475 189.375 768.364 188.891 768.364C188.357 768.364 187.894 768.496 187.504 768.761C187.118 769.023 186.821 769.364 186.612 769.784C186.404 770.205 186.3 770.655 186.3 771.136V771.909C186.3 772.568 186.413 773.127 186.641 773.585C186.872 774.04 187.192 774.386 187.601 774.625C188.01 774.86 188.485 774.977 189.027 774.977C189.379 774.977 189.697 774.928 189.982 774.83C190.269 774.727 190.518 774.576 190.726 774.375C190.934 774.17 191.095 773.917 191.209 773.614L192.504 773.977C192.368 774.417 192.139 774.803 191.817 775.136C191.495 775.466 191.097 775.723 190.624 775.909C190.15 776.091 189.618 776.182 189.027 776.182ZM194.68 776V767.273H195.976V768.636H196.089C196.271 768.17 196.565 767.809 196.97 767.551C197.375 767.29 197.862 767.159 198.43 767.159C199.006 767.159 199.485 767.29 199.868 767.551C200.254 767.809 200.555 768.17 200.771 768.636H200.862C201.086 768.186 201.421 767.828 201.868 767.562C202.315 767.294 202.851 767.159 203.476 767.159C204.256 767.159 204.894 767.403 205.391 767.892C205.887 768.377 206.135 769.133 206.135 770.159V776H204.794V770.159C204.794 769.515 204.618 769.055 204.266 768.778C203.913 768.502 203.499 768.364 203.021 768.364C202.408 768.364 201.932 768.549 201.595 768.92C201.258 769.288 201.089 769.754 201.089 770.318V776H199.726V770.023C199.726 769.527 199.565 769.127 199.243 768.824C198.921 768.517 198.506 768.364 197.999 768.364C197.65 768.364 197.324 768.456 197.021 768.642C196.722 768.828 196.48 769.085 196.294 769.415C196.112 769.741 196.021 770.117 196.021 770.545V776H194.68ZM208.768 776V764.364H210.109V768.659H210.223C210.321 768.508 210.458 768.314 210.632 768.08C210.81 767.841 211.064 767.629 211.393 767.443C211.727 767.254 212.178 767.159 212.746 767.159C213.481 767.159 214.128 767.343 214.689 767.71C215.25 768.078 215.687 768.598 216.001 769.273C216.316 769.947 216.473 770.742 216.473 771.659C216.473 772.583 216.316 773.384 216.001 774.062C215.687 774.737 215.251 775.259 214.695 775.631C214.138 775.998 213.496 776.182 212.768 776.182C212.208 776.182 211.759 776.089 211.422 775.903C211.085 775.714 210.825 775.5 210.643 775.261C210.462 775.019 210.321 774.818 210.223 774.659H210.064V776H208.768ZM210.087 771.636C210.087 772.295 210.183 772.877 210.376 773.381C210.57 773.881 210.852 774.273 211.223 774.557C211.594 774.837 212.049 774.977 212.587 774.977C213.147 774.977 213.615 774.83 213.99 774.534C214.369 774.235 214.653 773.833 214.842 773.33C215.036 772.822 215.132 772.258 215.132 771.636C215.132 771.023 215.037 770.47 214.848 769.977C214.662 769.481 214.38 769.089 214.001 768.801C213.626 768.509 213.155 768.364 212.587 768.364C212.041 768.364 211.583 768.502 211.212 768.778C210.84 769.051 210.56 769.434 210.371 769.926C210.181 770.415 210.087 770.985 210.087 771.636ZM222.183 776.182C221.342 776.182 220.617 775.996 220.007 775.625C219.401 775.25 218.933 774.727 218.604 774.057C218.278 773.383 218.115 772.598 218.115 771.705C218.115 770.811 218.278 770.023 218.604 769.341C218.933 768.655 219.392 768.121 219.979 767.739C220.57 767.352 221.259 767.159 222.047 767.159C222.501 767.159 222.95 767.235 223.393 767.386C223.837 767.538 224.24 767.784 224.604 768.125C224.967 768.462 225.257 768.909 225.473 769.466C225.689 770.023 225.797 770.708 225.797 771.523V772.091H219.07V770.932H224.433C224.433 770.439 224.335 770 224.138 769.614C223.945 769.227 223.668 768.922 223.308 768.699C222.952 768.475 222.532 768.364 222.047 768.364C221.513 768.364 221.051 768.496 220.661 768.761C220.274 769.023 219.977 769.364 219.768 769.784C219.56 770.205 219.456 770.655 219.456 771.136V771.909C219.456 772.568 219.57 773.127 219.797 773.585C220.028 774.04 220.348 774.386 220.757 774.625C221.166 774.86 221.642 774.977 222.183 774.977C222.536 774.977 222.854 774.928 223.138 774.83C223.426 774.727 223.674 774.576 223.882 774.375C224.09 774.17 224.251 773.917 224.365 773.614L225.661 773.977C225.524 774.417 225.295 774.803 224.973 775.136C224.651 775.466 224.253 775.723 223.78 775.909C223.306 776.091 222.774 776.182 222.183 776.182ZM227.837 776V767.273H229.132V768.591H229.223C229.382 768.159 229.67 767.809 230.087 767.54C230.503 767.271 230.973 767.136 231.496 767.136C231.594 767.136 231.717 767.138 231.865 767.142C232.013 767.146 232.125 767.152 232.2 767.159V768.523C232.155 768.511 232.051 768.494 231.888 768.472C231.729 768.445 231.56 768.432 231.382 768.432C230.958 768.432 230.579 768.521 230.246 768.699C229.916 768.873 229.655 769.116 229.462 769.426C229.272 769.733 229.178 770.083 229.178 770.477V776H227.837ZM240.267 776L237.608 767.273H239.017L240.903 773.955H240.994L242.858 767.273H244.29L246.131 773.932H246.222L248.108 767.273H249.517L246.858 776H245.54L243.631 769.295H243.494L241.585 776H240.267ZM252.631 770.75V776H251.29V764.364H252.631V768.636H252.744C252.949 768.186 253.256 767.828 253.665 767.562C254.078 767.294 254.627 767.159 255.312 767.159C255.907 767.159 256.428 767.278 256.875 767.517C257.322 767.752 257.669 768.114 257.915 768.602C258.165 769.087 258.29 769.705 258.29 770.455V776H256.949V770.545C256.949 769.852 256.769 769.316 256.409 768.938C256.053 768.555 255.559 768.364 254.926 768.364C254.487 768.364 254.093 768.456 253.744 768.642C253.4 768.828 253.127 769.098 252.926 769.455C252.729 769.811 252.631 770.242 252.631 770.75ZM263.311 776.205C262.758 776.205 262.256 776.1 261.805 775.892C261.355 775.68 260.997 775.375 260.732 774.977C260.466 774.576 260.334 774.091 260.334 773.523C260.334 773.023 260.432 772.617 260.629 772.307C260.826 771.992 261.089 771.746 261.419 771.568C261.749 771.39 262.112 771.258 262.51 771.17C262.911 771.08 263.315 771.008 263.72 770.955C264.25 770.886 264.68 770.835 265.01 770.801C265.343 770.763 265.586 770.701 265.737 770.614C265.893 770.527 265.97 770.375 265.97 770.159V770.114C265.97 769.553 265.817 769.117 265.51 768.807C265.207 768.496 264.747 768.341 264.129 768.341C263.489 768.341 262.987 768.481 262.624 768.761C262.26 769.042 262.004 769.341 261.857 769.659L260.584 769.205C260.811 768.674 261.114 768.261 261.493 767.966C261.875 767.667 262.292 767.458 262.743 767.341C263.197 767.22 263.644 767.159 264.084 767.159C264.364 767.159 264.686 767.193 265.05 767.261C265.417 767.326 265.771 767.46 266.112 767.665C266.457 767.869 266.743 768.178 266.97 768.591C267.197 769.004 267.311 769.557 267.311 770.25V776H265.97V774.818H265.902C265.811 775.008 265.66 775.21 265.447 775.426C265.235 775.642 264.953 775.826 264.601 775.977C264.249 776.129 263.819 776.205 263.311 776.205ZM263.516 775C264.046 775 264.493 774.896 264.857 774.688C265.224 774.479 265.5 774.21 265.686 773.881C265.875 773.551 265.97 773.205 265.97 772.841V771.614C265.913 771.682 265.788 771.744 265.595 771.801C265.406 771.854 265.186 771.902 264.936 771.943C264.69 771.981 264.449 772.015 264.214 772.045C263.983 772.072 263.796 772.095 263.652 772.114C263.304 772.159 262.978 772.233 262.675 772.335C262.375 772.434 262.133 772.583 261.947 772.784C261.766 772.981 261.675 773.25 261.675 773.591C261.675 774.057 261.847 774.409 262.192 774.648C262.54 774.883 262.982 775 263.516 775ZM273.554 767.273V768.409H269.031V767.273H273.554ZM270.349 765.182H271.69V773.5C271.69 773.879 271.745 774.163 271.855 774.352C271.969 774.538 272.113 774.663 272.287 774.727C272.465 774.788 272.652 774.818 272.849 774.818C272.997 774.818 273.118 774.811 273.213 774.795C273.308 774.777 273.384 774.761 273.44 774.75L273.713 775.955C273.622 775.989 273.495 776.023 273.332 776.057C273.17 776.095 272.963 776.114 272.713 776.114C272.334 776.114 271.963 776.032 271.599 775.869C271.24 775.706 270.94 775.458 270.702 775.125C270.467 774.792 270.349 774.371 270.349 773.864V765.182ZM280.935 779.273C280.707 779.273 280.505 779.254 280.327 779.216C280.149 779.182 280.026 779.148 279.957 779.114L280.298 777.932C280.624 778.015 280.912 778.045 281.162 778.023C281.412 778 281.634 777.888 281.827 777.688C282.024 777.491 282.204 777.17 282.366 776.727L282.616 776.045L279.389 767.273H280.844L283.253 774.227H283.344L285.753 767.273H287.207L283.503 777.273C283.336 777.723 283.13 778.097 282.884 778.392C282.637 778.691 282.351 778.913 282.026 779.057C281.704 779.201 281.34 779.273 280.935 779.273ZM292.21 776.182C291.422 776.182 290.731 775.994 290.136 775.619C289.545 775.244 289.083 774.72 288.75 774.045C288.42 773.371 288.256 772.583 288.256 771.682C288.256 770.773 288.42 769.979 288.75 769.301C289.083 768.623 289.545 768.097 290.136 767.722C290.731 767.347 291.422 767.159 292.21 767.159C292.998 767.159 293.688 767.347 294.278 767.722C294.873 768.097 295.335 768.623 295.665 769.301C295.998 769.979 296.165 770.773 296.165 771.682C296.165 772.583 295.998 773.371 295.665 774.045C295.335 774.72 294.873 775.244 294.278 775.619C293.688 775.994 292.998 776.182 292.21 776.182ZM292.21 774.977C292.809 774.977 293.301 774.824 293.688 774.517C294.074 774.21 294.36 773.807 294.545 773.307C294.731 772.807 294.824 772.265 294.824 771.682C294.824 771.098 294.731 770.555 294.545 770.051C294.36 769.547 294.074 769.14 293.688 768.83C293.301 768.519 292.809 768.364 292.21 768.364C291.612 768.364 291.119 768.519 290.733 768.83C290.347 769.14 290.061 769.547 289.875 770.051C289.689 770.555 289.597 771.098 289.597 771.682C289.597 772.265 289.689 772.807 289.875 773.307C290.061 773.807 290.347 774.21 290.733 774.517C291.119 774.824 291.612 774.977 292.21 774.977ZM303.712 772.432V767.273H305.053V776H303.712V774.523H303.621C303.416 774.966 303.098 775.343 302.666 775.653C302.234 775.96 301.689 776.114 301.03 776.114C300.484 776.114 300 775.994 299.575 775.756C299.151 775.513 298.818 775.15 298.575 774.665C298.333 774.176 298.212 773.561 298.212 772.818V767.273H299.553V772.727C299.553 773.364 299.731 773.871 300.087 774.25C300.446 774.629 300.905 774.818 301.462 774.818C301.795 774.818 302.134 774.733 302.479 774.562C302.827 774.392 303.119 774.131 303.354 773.778C303.592 773.426 303.712 772.977 303.712 772.432ZM315.304 776.182C314.577 776.182 313.935 775.998 313.378 775.631C312.821 775.259 312.385 774.737 312.071 774.062C311.757 773.384 311.599 772.583 311.599 771.659C311.599 770.742 311.757 769.947 312.071 769.273C312.385 768.598 312.823 768.078 313.384 767.71C313.944 767.343 314.592 767.159 315.327 767.159C315.895 767.159 316.344 767.254 316.673 767.443C317.007 767.629 317.26 767.841 317.435 768.08C317.613 768.314 317.751 768.508 317.849 768.659H317.963V764.364H319.304V776H318.009V774.659H317.849C317.751 774.818 317.611 775.019 317.429 775.261C317.247 775.5 316.988 775.714 316.651 775.903C316.313 776.089 315.865 776.182 315.304 776.182ZM315.486 774.977C316.024 774.977 316.478 774.837 316.849 774.557C317.221 774.273 317.503 773.881 317.696 773.381C317.889 772.877 317.986 772.295 317.986 771.636C317.986 770.985 317.891 770.415 317.702 769.926C317.512 769.434 317.232 769.051 316.861 768.778C316.49 768.502 316.031 768.364 315.486 768.364C314.918 768.364 314.444 768.509 314.065 768.801C313.69 769.089 313.408 769.481 313.219 769.977C313.033 770.47 312.94 771.023 312.94 771.636C312.94 772.258 313.035 772.822 313.224 773.33C313.418 773.833 313.702 774.235 314.077 774.534C314.455 774.83 314.925 774.977 315.486 774.977ZM321.946 776V767.273H323.287V776H321.946ZM322.628 765.818C322.366 765.818 322.141 765.729 321.952 765.551C321.766 765.373 321.673 765.159 321.673 764.909C321.673 764.659 321.766 764.445 321.952 764.267C322.141 764.089 322.366 764 322.628 764C322.889 764 323.113 764.089 323.298 764.267C323.488 764.445 323.582 764.659 323.582 764.909C323.582 765.159 323.488 765.373 323.298 765.551C323.113 765.729 322.889 765.818 322.628 765.818ZM329.038 776.182C328.311 776.182 327.669 775.998 327.112 775.631C326.555 775.259 326.12 774.737 325.805 774.062C325.491 773.384 325.334 772.583 325.334 771.659C325.334 770.742 325.491 769.947 325.805 769.273C326.12 768.598 326.557 768.078 327.118 767.71C327.679 767.343 328.326 767.159 329.061 767.159C329.629 767.159 330.078 767.254 330.408 767.443C330.741 767.629 330.995 767.841 331.169 768.08C331.347 768.314 331.485 768.508 331.584 768.659H331.697V764.364H333.038V776H331.743V774.659H331.584C331.485 774.818 331.345 775.019 331.163 775.261C330.982 775.5 330.722 775.714 330.385 775.903C330.048 776.089 329.599 776.182 329.038 776.182ZM329.22 774.977C329.758 774.977 330.213 774.837 330.584 774.557C330.955 774.273 331.237 773.881 331.43 773.381C331.624 772.877 331.72 772.295 331.72 771.636C331.72 770.985 331.625 770.415 331.436 769.926C331.247 769.434 330.966 769.051 330.595 768.778C330.224 768.502 329.766 768.364 329.22 768.364C328.652 768.364 328.179 768.509 327.8 768.801C327.425 769.089 327.143 769.481 326.953 769.977C326.768 770.47 326.675 771.023 326.675 771.636C326.675 772.258 326.769 772.822 326.959 773.33C327.152 773.833 327.436 774.235 327.811 774.534C328.19 774.83 328.66 774.977 329.22 774.977ZM341.521 764.364V776H340.18V764.364H341.521ZM346.545 776.205C345.992 776.205 345.491 776.1 345.04 775.892C344.589 775.68 344.231 775.375 343.966 774.977C343.701 774.576 343.568 774.091 343.568 773.523C343.568 773.023 343.667 772.617 343.864 772.307C344.061 771.992 344.324 771.746 344.653 771.568C344.983 771.39 345.347 771.258 345.744 771.17C346.146 771.08 346.549 771.008 346.955 770.955C347.485 770.886 347.915 770.835 348.244 770.801C348.578 770.763 348.82 770.701 348.972 770.614C349.127 770.527 349.205 770.375 349.205 770.159V770.114C349.205 769.553 349.051 769.117 348.744 768.807C348.441 768.496 347.981 768.341 347.364 768.341C346.723 768.341 346.222 768.481 345.858 768.761C345.494 769.042 345.239 769.341 345.091 769.659L343.818 769.205C344.045 768.674 344.348 768.261 344.727 767.966C345.11 767.667 345.527 767.458 345.977 767.341C346.432 767.22 346.879 767.159 347.318 767.159C347.598 767.159 347.92 767.193 348.284 767.261C348.652 767.326 349.006 767.46 349.347 767.665C349.691 767.869 349.977 768.178 350.205 768.591C350.432 769.004 350.545 769.557 350.545 770.25V776H349.205V774.818H349.136C349.045 775.008 348.894 775.21 348.682 775.426C348.47 775.642 348.188 775.826 347.835 775.977C347.483 776.129 347.053 776.205 346.545 776.205ZM346.75 775C347.28 775 347.727 774.896 348.091 774.688C348.458 774.479 348.735 774.21 348.92 773.881C349.11 773.551 349.205 773.205 349.205 772.841V771.614C349.148 771.682 349.023 771.744 348.83 771.801C348.64 771.854 348.42 771.902 348.17 771.943C347.924 771.981 347.684 772.015 347.449 772.045C347.218 772.072 347.03 772.095 346.886 772.114C346.538 772.159 346.212 772.233 345.909 772.335C345.61 772.434 345.367 772.583 345.182 772.784C345 772.981 344.909 773.25 344.909 773.591C344.909 774.057 345.081 774.409 345.426 774.648C345.775 774.883 346.216 775 346.75 775ZM359.175 769.227L357.97 769.568C357.894 769.367 357.783 769.172 357.635 768.983C357.491 768.79 357.294 768.631 357.044 768.506C356.794 768.381 356.474 768.318 356.084 768.318C355.55 768.318 355.105 768.441 354.749 768.688C354.396 768.93 354.22 769.239 354.22 769.614C354.22 769.947 354.341 770.21 354.584 770.403C354.826 770.597 355.205 770.758 355.72 770.886L357.016 771.205C357.796 771.394 358.377 771.684 358.76 772.074C359.143 772.46 359.334 772.958 359.334 773.568C359.334 774.068 359.19 774.515 358.902 774.909C358.618 775.303 358.22 775.614 357.709 775.841C357.197 776.068 356.603 776.182 355.925 776.182C355.035 776.182 354.298 775.989 353.714 775.602C353.131 775.216 352.762 774.652 352.607 773.909L353.879 773.591C354 774.061 354.23 774.413 354.567 774.648C354.908 774.883 355.353 775 355.902 775C356.527 775 357.023 774.867 357.391 774.602C357.762 774.333 357.947 774.011 357.947 773.636C357.947 773.333 357.841 773.08 357.629 772.875C357.417 772.667 357.091 772.511 356.652 772.409L355.197 772.068C354.398 771.879 353.811 771.585 353.436 771.188C353.065 770.786 352.879 770.284 352.879 769.682C352.879 769.189 353.018 768.754 353.294 768.375C353.574 767.996 353.955 767.699 354.436 767.483C354.921 767.267 355.47 767.159 356.084 767.159C356.947 767.159 357.625 767.348 358.118 767.727C358.614 768.106 358.966 768.606 359.175 769.227ZM365.148 767.273V768.409H360.625V767.273H365.148ZM361.943 765.182H363.284V773.5C363.284 773.879 363.339 774.163 363.449 774.352C363.563 774.538 363.706 774.663 363.881 774.727C364.059 774.788 364.246 774.818 364.443 774.818C364.591 774.818 364.712 774.811 364.807 774.795C364.902 774.777 364.977 774.761 365.034 774.75L365.307 775.955C365.216 775.989 365.089 776.023 364.926 776.057C364.763 776.095 364.557 776.114 364.307 776.114C363.928 776.114 363.557 776.032 363.193 775.869C362.833 775.706 362.534 775.458 362.295 775.125C362.061 774.792 361.943 774.371 361.943 773.864V765.182ZM373.006 770.75V776H371.665V767.273H372.96V768.636H373.074C373.278 768.193 373.589 767.837 374.006 767.568C374.422 767.295 374.96 767.159 375.619 767.159C376.21 767.159 376.727 767.28 377.17 767.523C377.614 767.761 377.958 768.125 378.205 768.614C378.451 769.098 378.574 769.712 378.574 770.455V776H377.233V770.545C377.233 769.86 377.055 769.326 376.699 768.943C376.343 768.557 375.854 768.364 375.233 768.364C374.805 768.364 374.422 768.456 374.085 768.642C373.752 768.828 373.489 769.098 373.295 769.455C373.102 769.811 373.006 770.242 373.006 770.75ZM381.024 776V767.273H382.365V776H381.024ZM381.706 765.818C381.445 765.818 381.219 765.729 381.03 765.551C380.844 765.373 380.751 765.159 380.751 764.909C380.751 764.659 380.844 764.445 381.03 764.267C381.219 764.089 381.445 764 381.706 764C381.967 764 382.191 764.089 382.376 764.267C382.566 764.445 382.661 764.659 382.661 764.909C382.661 765.159 382.566 765.373 382.376 765.551C382.191 765.729 381.967 765.818 381.706 765.818ZM388.344 779.455C387.696 779.455 387.139 779.371 386.673 779.205C386.207 779.042 385.819 778.826 385.509 778.557C385.202 778.292 384.957 778.008 384.776 777.705L385.844 776.955C385.965 777.114 386.118 777.295 386.304 777.5C386.49 777.708 386.743 777.888 387.065 778.04C387.391 778.195 387.817 778.273 388.344 778.273C389.048 778.273 389.63 778.102 390.088 777.761C390.546 777.42 390.776 776.886 390.776 776.159V774.386H390.662C390.563 774.545 390.423 774.742 390.241 774.977C390.063 775.208 389.806 775.415 389.469 775.597C389.135 775.775 388.685 775.864 388.116 775.864C387.412 775.864 386.779 775.697 386.219 775.364C385.662 775.03 385.221 774.545 384.895 773.909C384.573 773.273 384.412 772.5 384.412 771.591C384.412 770.697 384.569 769.919 384.884 769.256C385.198 768.589 385.635 768.074 386.196 767.71C386.757 767.343 387.404 767.159 388.139 767.159C388.707 767.159 389.158 767.254 389.491 767.443C389.829 767.629 390.086 767.841 390.264 768.08C390.446 768.314 390.586 768.508 390.685 768.659H390.821V767.273H392.116V776.25C392.116 777 391.946 777.61 391.605 778.08C391.268 778.553 390.813 778.9 390.241 779.119C389.673 779.343 389.041 779.455 388.344 779.455ZM388.298 774.659C388.836 774.659 389.291 774.536 389.662 774.29C390.033 774.044 390.315 773.689 390.509 773.227C390.702 772.765 390.798 772.212 390.798 771.568C390.798 770.939 390.704 770.384 390.514 769.903C390.325 769.422 390.045 769.045 389.673 768.773C389.302 768.5 388.844 768.364 388.298 768.364C387.73 768.364 387.257 768.508 386.878 768.795C386.503 769.083 386.221 769.47 386.031 769.955C385.846 770.439 385.753 770.977 385.753 771.568C385.753 772.174 385.848 772.71 386.037 773.176C386.23 773.638 386.514 774.002 386.889 774.267C387.268 774.528 387.738 774.659 388.298 774.659ZM395.912 770.75V776H394.571V764.364H395.912V768.636H396.026C396.23 768.186 396.537 767.828 396.946 767.562C397.359 767.294 397.908 767.159 398.594 767.159C399.188 767.159 399.709 767.278 400.156 767.517C400.603 767.752 400.95 768.114 401.196 768.602C401.446 769.087 401.571 769.705 401.571 770.455V776H400.23V770.545C400.23 769.852 400.05 769.316 399.69 768.938C399.334 768.555 398.84 768.364 398.207 768.364C397.768 768.364 397.374 768.456 397.026 768.642C396.681 768.828 396.408 769.098 396.207 769.455C396.01 769.811 395.912 770.242 395.912 770.75ZM407.82 767.273V768.409H403.297V767.273H407.82ZM404.615 765.182H405.956V773.5C405.956 773.879 406.011 774.163 406.121 774.352C406.234 774.538 406.378 774.663 406.553 774.727C406.731 774.788 406.918 774.818 407.115 774.818C407.263 774.818 407.384 774.811 407.479 774.795C407.573 774.777 407.649 774.761 407.706 774.75L407.979 775.955C407.888 775.989 407.761 776.023 407.598 776.057C407.435 776.095 407.229 776.114 406.979 776.114C406.6 776.114 406.229 776.032 405.865 775.869C405.505 775.706 405.206 775.458 404.967 775.125C404.732 774.792 404.615 774.371 404.615 773.864V765.182ZM416.905 776.205C416.352 776.205 415.85 776.1 415.399 775.892C414.948 775.68 414.59 775.375 414.325 774.977C414.06 774.576 413.928 774.091 413.928 773.523C413.928 773.023 414.026 772.617 414.223 772.307C414.42 771.992 414.683 771.746 415.013 771.568C415.342 771.39 415.706 771.258 416.104 771.17C416.505 771.08 416.909 771.008 417.314 770.955C417.844 770.886 418.274 770.835 418.604 770.801C418.937 770.763 419.179 770.701 419.331 770.614C419.486 770.527 419.564 770.375 419.564 770.159V770.114C419.564 769.553 419.411 769.117 419.104 768.807C418.801 768.496 418.34 768.341 417.723 768.341C417.083 768.341 416.581 768.481 416.217 768.761C415.854 769.042 415.598 769.341 415.45 769.659L414.178 769.205C414.405 768.674 414.708 768.261 415.087 767.966C415.469 767.667 415.886 767.458 416.337 767.341C416.791 767.22 417.238 767.159 417.678 767.159C417.958 767.159 418.28 767.193 418.643 767.261C419.011 767.326 419.365 767.46 419.706 767.665C420.051 767.869 420.337 768.178 420.564 768.591C420.791 769.004 420.905 769.557 420.905 770.25V776H419.564V774.818H419.496C419.405 775.008 419.253 775.21 419.041 775.426C418.829 775.642 418.547 775.826 418.195 775.977C417.842 776.129 417.412 776.205 416.905 776.205ZM417.109 775C417.64 775 418.087 774.896 418.45 774.688C418.818 774.479 419.094 774.21 419.28 773.881C419.469 773.551 419.564 773.205 419.564 772.841V771.614C419.507 771.682 419.382 771.744 419.189 771.801C419 771.854 418.78 771.902 418.53 771.943C418.284 771.981 418.043 772.015 417.808 772.045C417.577 772.072 417.39 772.095 417.246 772.114C416.897 772.159 416.571 772.233 416.268 772.335C415.969 772.434 415.727 772.583 415.541 772.784C415.359 772.981 415.268 773.25 415.268 773.591C415.268 774.057 415.441 774.409 415.786 774.648C416.134 774.883 416.575 775 417.109 775ZM427.148 767.273V768.409H422.625V767.273H427.148ZM423.943 765.182H425.284V773.5C425.284 773.879 425.339 774.163 425.449 774.352C425.563 774.538 425.706 774.663 425.881 774.727C426.059 774.788 426.246 774.818 426.443 774.818C426.591 774.818 426.712 774.811 426.807 774.795C426.902 774.777 426.977 774.761 427.034 774.75L427.307 775.955C427.216 775.989 427.089 776.023 426.926 776.057C426.763 776.095 426.557 776.114 426.307 776.114C425.928 776.114 425.557 776.032 425.193 775.869C424.833 775.706 424.534 775.458 424.295 775.125C424.061 774.792 423.943 774.371 423.943 773.864V765.182ZM437.46 767.273V768.409H432.938V767.273H437.46ZM434.256 765.182H435.597V773.5C435.597 773.879 435.652 774.163 435.761 774.352C435.875 774.538 436.019 774.663 436.193 774.727C436.371 774.788 436.559 774.818 436.756 774.818C436.903 774.818 437.025 774.811 437.119 774.795C437.214 774.777 437.29 774.761 437.347 774.75L437.619 775.955C437.528 775.989 437.402 776.023 437.239 776.057C437.076 776.095 436.869 776.114 436.619 776.114C436.241 776.114 435.869 776.032 435.506 775.869C435.146 775.706 434.847 775.458 434.608 775.125C434.373 774.792 434.256 774.371 434.256 773.864V765.182ZM441.006 770.75V776H439.665V764.364H441.006V768.636H441.119C441.324 768.186 441.631 767.828 442.04 767.562C442.453 767.294 443.002 767.159 443.688 767.159C444.282 767.159 444.803 767.278 445.25 767.517C445.697 767.752 446.044 768.114 446.29 768.602C446.54 769.087 446.665 769.705 446.665 770.455V776H445.324V770.545C445.324 769.852 445.144 769.316 444.784 768.938C444.428 768.555 443.934 768.364 443.301 768.364C442.862 768.364 442.468 768.456 442.119 768.642C441.775 768.828 441.502 769.098 441.301 769.455C441.104 769.811 441.006 770.242 441.006 770.75ZM452.777 776.182C451.936 776.182 451.211 775.996 450.601 775.625C449.995 775.25 449.527 774.727 449.197 774.057C448.872 773.383 448.709 772.598 448.709 771.705C448.709 770.811 448.872 770.023 449.197 769.341C449.527 768.655 449.985 768.121 450.572 767.739C451.163 767.352 451.853 767.159 452.641 767.159C453.095 767.159 453.544 767.235 453.987 767.386C454.43 767.538 454.834 767.784 455.197 768.125C455.561 768.462 455.851 768.909 456.067 769.466C456.283 770.023 456.391 770.708 456.391 771.523V772.091H449.663V770.932H455.027C455.027 770.439 454.929 770 454.732 769.614C454.538 769.227 454.262 768.922 453.902 768.699C453.546 768.475 453.125 768.364 452.641 768.364C452.107 768.364 451.644 768.496 451.254 768.761C450.868 769.023 450.571 769.364 450.362 769.784C450.154 770.205 450.05 770.655 450.05 771.136V771.909C450.05 772.568 450.163 773.127 450.391 773.585C450.622 774.04 450.942 774.386 451.351 774.625C451.76 774.86 452.235 774.977 452.777 774.977C453.129 774.977 453.447 774.928 453.732 774.83C454.019 774.727 454.268 774.576 454.476 774.375C454.684 774.17 454.845 773.917 454.959 773.614L456.254 773.977C456.118 774.417 455.889 774.803 455.567 775.136C455.245 775.466 454.847 775.723 454.374 775.909C453.9 776.091 453.368 776.182 452.777 776.182ZM464.908 776L462.249 767.273H463.658L465.544 773.955H465.635L467.499 767.273H468.93L470.771 773.932H470.862L472.749 767.273H474.158L471.499 776H470.18L468.271 769.295H468.135L466.226 776H464.908ZM479.179 776.182C478.391 776.182 477.7 775.994 477.105 775.619C476.514 775.244 476.052 774.72 475.719 774.045C475.389 773.371 475.224 772.583 475.224 771.682C475.224 770.773 475.389 769.979 475.719 769.301C476.052 768.623 476.514 768.097 477.105 767.722C477.7 767.347 478.391 767.159 479.179 767.159C479.967 767.159 480.656 767.347 481.247 767.722C481.842 768.097 482.304 768.623 482.634 769.301C482.967 769.979 483.134 770.773 483.134 771.682C483.134 772.583 482.967 773.371 482.634 774.045C482.304 774.72 481.842 775.244 481.247 775.619C480.656 775.994 479.967 776.182 479.179 776.182ZM479.179 774.977C479.777 774.977 480.27 774.824 480.656 774.517C481.043 774.21 481.329 773.807 481.514 773.307C481.7 772.807 481.793 772.265 481.793 771.682C481.793 771.098 481.7 770.555 481.514 770.051C481.329 769.547 481.043 769.14 480.656 768.83C480.27 768.519 479.777 768.364 479.179 768.364C478.58 768.364 478.088 768.519 477.702 768.83C477.315 769.14 477.029 769.547 476.844 770.051C476.658 770.555 476.565 771.098 476.565 771.682C476.565 772.265 476.658 772.807 476.844 773.307C477.029 773.807 477.315 774.21 477.702 774.517C478.088 774.824 478.58 774.977 479.179 774.977ZM485.18 776V767.273H486.476V768.591H486.567C486.726 768.159 487.014 767.809 487.43 767.54C487.847 767.271 488.317 767.136 488.839 767.136C488.938 767.136 489.061 767.138 489.209 767.142C489.357 767.146 489.468 767.152 489.544 767.159V768.523C489.499 768.511 489.394 768.494 489.232 768.472C489.072 768.445 488.904 768.432 488.726 768.432C488.302 768.432 487.923 768.521 487.589 768.699C487.26 768.873 486.999 769.116 486.805 769.426C486.616 769.733 486.521 770.083 486.521 770.477V776H485.18ZM492.384 772.818L492.361 771.159H492.634L496.452 767.273H498.111L494.043 771.386H493.929L492.384 772.818ZM491.134 776V764.364H492.474V776H491.134ZM496.679 776L493.27 771.682L494.224 770.75L498.384 776H496.679ZM505.678 770.75V776H504.337V767.273H505.632V768.636H505.746C505.95 768.193 506.261 767.837 506.678 767.568C507.094 767.295 507.632 767.159 508.291 767.159C508.882 767.159 509.399 767.28 509.842 767.523C510.286 767.761 510.63 768.125 510.876 768.614C511.123 769.098 511.246 769.712 511.246 770.455V776H509.905V770.545C509.905 769.86 509.727 769.326 509.371 768.943C509.015 768.557 508.526 768.364 507.905 768.364C507.477 768.364 507.094 768.456 506.757 768.642C506.424 768.828 506.161 769.098 505.967 769.455C505.774 769.811 505.678 770.242 505.678 770.75ZM513.696 776V767.273H515.037V776H513.696ZM514.378 765.818C514.116 765.818 513.891 765.729 513.702 765.551C513.516 765.373 513.423 765.159 513.423 764.909C513.423 764.659 513.516 764.445 513.702 764.267C513.891 764.089 514.116 764 514.378 764C514.639 764 514.863 764.089 515.048 764.267C515.238 764.445 515.332 764.659 515.332 764.909C515.332 765.159 515.238 765.373 515.048 765.551C514.863 765.729 514.639 765.818 514.378 765.818ZM521.016 779.455C520.368 779.455 519.811 779.371 519.345 779.205C518.879 779.042 518.491 778.826 518.18 778.557C517.874 778.292 517.629 778.008 517.447 777.705L518.516 776.955C518.637 777.114 518.79 777.295 518.976 777.5C519.161 777.708 519.415 777.888 519.737 778.04C520.063 778.195 520.489 778.273 521.016 778.273C521.72 778.273 522.302 778.102 522.76 777.761C523.218 777.42 523.447 776.886 523.447 776.159V774.386H523.334C523.235 774.545 523.095 774.742 522.913 774.977C522.735 775.208 522.478 775.415 522.141 775.597C521.807 775.775 521.357 775.864 520.788 775.864C520.084 775.864 519.451 775.697 518.891 775.364C518.334 775.03 517.893 774.545 517.567 773.909C517.245 773.273 517.084 772.5 517.084 771.591C517.084 770.697 517.241 769.919 517.555 769.256C517.87 768.589 518.307 768.074 518.868 767.71C519.429 767.343 520.076 767.159 520.811 767.159C521.379 767.159 521.83 767.254 522.163 767.443C522.5 767.629 522.758 767.841 522.936 768.08C523.118 768.314 523.258 768.508 523.357 768.659H523.493V767.273H524.788V776.25C524.788 777 524.618 777.61 524.277 778.08C523.94 778.553 523.485 778.9 522.913 779.119C522.345 779.343 521.713 779.455 521.016 779.455ZM520.97 774.659C521.508 774.659 521.963 774.536 522.334 774.29C522.705 774.044 522.987 773.689 523.18 773.227C523.374 772.765 523.47 772.212 523.47 771.568C523.47 770.939 523.375 770.384 523.186 769.903C522.997 769.422 522.716 769.045 522.345 768.773C521.974 768.5 521.516 768.364 520.97 768.364C520.402 768.364 519.929 768.508 519.55 768.795C519.175 769.083 518.893 769.47 518.703 769.955C518.518 770.439 518.425 770.977 518.425 771.568C518.425 772.174 518.519 772.71 518.709 773.176C518.902 773.638 519.186 774.002 519.561 774.267C519.94 774.528 520.41 774.659 520.97 774.659ZM528.584 770.75V776H527.243V764.364H528.584V768.636H528.697C528.902 768.186 529.209 767.828 529.618 767.562C530.031 767.294 530.58 767.159 531.266 767.159C531.86 767.159 532.381 767.278 532.828 767.517C533.275 767.752 533.622 768.114 533.868 768.602C534.118 769.087 534.243 769.705 534.243 770.455V776H532.902V770.545C532.902 769.852 532.722 769.316 532.362 768.938C532.006 768.555 531.512 768.364 530.879 768.364C530.44 768.364 530.046 768.456 529.697 768.642C529.353 768.828 529.08 769.098 528.879 769.455C528.682 769.811 528.584 770.242 528.584 770.75ZM540.491 767.273V768.409H535.969V767.273H540.491ZM537.287 765.182H538.628V773.5C538.628 773.879 538.683 774.163 538.793 774.352C538.906 774.538 539.05 774.663 539.224 774.727C539.402 774.788 539.59 774.818 539.787 774.818C539.935 774.818 540.056 774.811 540.151 774.795C540.245 774.777 540.321 774.761 540.378 774.75L540.651 775.955C540.56 775.989 540.433 776.023 540.27 776.057C540.107 776.095 539.901 776.114 539.651 776.114C539.272 776.114 538.901 776.032 538.537 775.869C538.177 775.706 537.878 775.458 537.639 775.125C537.404 774.792 537.287 774.371 537.287 773.864V765.182ZM550.554 776.182C549.766 776.182 549.075 775.994 548.48 775.619C547.889 775.244 547.427 774.72 547.094 774.045C546.764 773.371 546.599 772.583 546.599 771.682C546.599 770.773 546.764 769.979 547.094 769.301C547.427 768.623 547.889 768.097 548.48 767.722C549.075 767.347 549.766 767.159 550.554 767.159C551.342 767.159 552.031 767.347 552.622 767.722C553.217 768.097 553.679 768.623 554.009 769.301C554.342 769.979 554.509 770.773 554.509 771.682C554.509 772.583 554.342 773.371 554.009 774.045C553.679 774.72 553.217 775.244 552.622 775.619C552.031 775.994 551.342 776.182 550.554 776.182ZM550.554 774.977C551.152 774.977 551.645 774.824 552.031 774.517C552.418 774.21 552.704 773.807 552.889 773.307C553.075 772.807 553.168 772.265 553.168 771.682C553.168 771.098 553.075 770.555 552.889 770.051C552.704 769.547 552.418 769.14 552.031 768.83C551.645 768.519 551.152 768.364 550.554 768.364C549.955 768.364 549.463 768.519 549.077 768.83C548.69 769.14 548.404 769.547 548.219 770.051C548.033 770.555 547.94 771.098 547.94 771.682C547.94 772.265 548.033 772.807 548.219 773.307C548.404 773.807 548.69 774.21 549.077 774.517C549.463 774.824 549.955 774.977 550.554 774.977ZM562.055 772.432V767.273H563.396V776H562.055V774.523H561.964C561.76 774.966 561.442 775.343 561.01 775.653C560.578 775.96 560.033 776.114 559.374 776.114C558.828 776.114 558.343 775.994 557.919 775.756C557.495 775.513 557.161 775.15 556.919 774.665C556.677 774.176 556.555 773.561 556.555 772.818V767.273H557.896V772.727C557.896 773.364 558.074 773.871 558.43 774.25C558.79 774.629 559.249 774.818 559.805 774.818C560.139 774.818 560.478 774.733 560.822 774.562C561.171 774.392 561.463 774.131 561.697 773.778C561.936 773.426 562.055 772.977 562.055 772.432ZM569.648 767.273V768.409H565.125V767.273H569.648ZM566.443 765.182H567.784V773.5C567.784 773.879 567.839 774.163 567.949 774.352C568.063 774.538 568.206 774.663 568.381 774.727C568.559 774.788 568.746 774.818 568.943 774.818C569.091 774.818 569.212 774.811 569.307 774.795C569.402 774.777 569.477 774.761 569.534 774.75L569.807 775.955C569.716 775.989 569.589 776.023 569.426 776.057C569.263 776.095 569.057 776.114 568.807 776.114C568.428 776.114 568.057 776.032 567.693 775.869C567.333 775.706 567.034 775.458 566.795 775.125C566.561 774.792 566.443 774.371 566.443 773.864V765.182ZM573.415 772.727V772.659C573.422 771.936 573.498 771.36 573.642 770.932C573.786 770.504 573.991 770.157 574.256 769.892C574.521 769.627 574.839 769.383 575.21 769.159C575.434 769.023 575.634 768.862 575.812 768.676C575.991 768.487 576.131 768.269 576.233 768.023C576.339 767.777 576.392 767.504 576.392 767.205C576.392 766.833 576.305 766.511 576.131 766.239C575.956 765.966 575.723 765.756 575.432 765.608C575.14 765.46 574.816 765.386 574.46 765.386C574.15 765.386 573.85 765.451 573.562 765.58C573.275 765.708 573.034 765.911 572.841 766.188C572.648 766.464 572.536 766.826 572.506 767.273H571.074C571.104 766.629 571.271 766.078 571.574 765.619C571.881 765.161 572.284 764.811 572.784 764.568C573.288 764.326 573.847 764.205 574.46 764.205C575.127 764.205 575.706 764.337 576.199 764.602C576.695 764.867 577.078 765.231 577.347 765.693C577.619 766.155 577.756 766.682 577.756 767.273C577.756 767.689 577.691 768.066 577.562 768.403C577.438 768.741 577.256 769.042 577.017 769.307C576.782 769.572 576.498 769.807 576.165 770.011C575.831 770.22 575.564 770.439 575.364 770.67C575.163 770.898 575.017 771.169 574.926 771.483C574.835 771.797 574.786 772.189 574.778 772.659V772.727H573.415ZM574.142 776.091C573.862 776.091 573.621 775.991 573.42 775.79C573.22 775.589 573.119 775.348 573.119 775.068C573.119 774.788 573.22 774.547 573.42 774.347C573.621 774.146 573.862 774.045 574.142 774.045C574.422 774.045 574.663 774.146 574.864 774.347C575.064 774.547 575.165 774.788 575.165 775.068C575.165 775.254 575.117 775.424 575.023 775.58C574.932 775.735 574.809 775.86 574.653 775.955C574.502 776.045 574.331 776.091 574.142 776.091Z" fill="#011627"/>
<g clip-path="url(#clip0_2888_47446)">
<path d="M557.943 791.918C557.943 789.193 555.734 786.984 553.009 786.984C551.355 786.984 549.896 787.801 549 789.049C548.105 787.801 546.645 786.984 544.992 786.984C542.267 786.984 540.058 789.193 540.058 791.918C540.058 792.304 540.107 792.678 540.191 793.039C540.876 797.295 545.608 801.786 549 803.019C552.392 801.786 557.125 797.295 557.809 793.039C557.894 792.679 557.943 792.305 557.943 791.918Z" fill="#F71735"/>
</g>
<path d="M565.972 790.273V799H564.915V791.381H564.864L562.733 792.795V791.722L564.915 790.273H565.972ZM571.277 799.119C570.692 799.119 570.175 799.016 569.726 798.808C569.28 798.598 568.932 798.31 568.682 797.943C568.432 797.574 568.308 797.153 568.311 796.682C568.308 796.312 568.381 795.972 568.528 795.659C568.676 795.344 568.878 795.081 569.134 794.871C569.392 794.658 569.68 794.523 569.999 794.466V794.415C569.581 794.307 569.249 794.072 569.001 793.712C568.754 793.348 568.632 792.935 568.635 792.472C568.632 792.028 568.744 791.632 568.972 791.283C569.199 790.933 569.511 790.658 569.909 790.456C570.31 790.254 570.766 790.153 571.277 790.153C571.783 790.153 572.234 790.254 572.632 790.456C573.03 790.658 573.342 790.933 573.57 791.283C573.8 791.632 573.916 792.028 573.919 792.472C573.916 792.935 573.79 793.348 573.54 793.712C573.293 794.072 572.964 794.307 572.555 794.415V794.466C572.871 794.523 573.155 794.658 573.408 794.871C573.661 795.081 573.862 795.344 574.013 795.659C574.163 795.972 574.24 796.312 574.243 796.682C574.24 797.153 574.112 797.574 573.859 797.943C573.609 798.31 573.261 798.598 572.815 798.808C572.372 799.016 571.859 799.119 571.277 799.119ZM571.277 798.182C571.672 798.182 572.013 798.118 572.3 797.99C572.587 797.862 572.808 797.682 572.964 797.449C573.121 797.216 573.2 796.943 573.203 796.631C573.2 796.301 573.115 796.01 572.947 795.757C572.78 795.504 572.551 795.305 572.261 795.161C571.974 795.016 571.646 794.943 571.277 794.943C570.905 794.943 570.572 795.016 570.28 795.161C569.99 795.305 569.761 795.504 569.594 795.757C569.429 796.01 569.348 796.301 569.351 796.631C569.348 796.943 569.423 797.216 569.577 797.449C569.733 797.682 569.956 797.862 570.246 797.99C570.536 798.118 570.879 798.182 571.277 798.182ZM571.277 794.04C571.589 794.04 571.866 793.977 572.108 793.852C572.352 793.727 572.544 793.553 572.683 793.328C572.822 793.104 572.893 792.841 572.896 792.54C572.893 792.244 572.824 791.987 572.688 791.768C572.551 791.547 572.362 791.376 572.121 791.257C571.879 791.135 571.598 791.074 571.277 791.074C570.95 791.074 570.665 791.135 570.42 791.257C570.176 791.376 569.987 791.547 569.854 791.768C569.72 791.987 569.655 792.244 569.658 792.54C569.655 792.841 569.722 793.104 569.858 793.328C569.997 793.553 570.189 793.727 570.433 793.852C570.678 793.977 570.959 794.04 571.277 794.04ZM576.626 797.884C576.416 797.884 576.235 797.808 576.085 797.658C575.934 797.507 575.859 797.327 575.859 797.116C575.859 796.906 575.934 796.726 576.085 796.575C576.235 796.425 576.416 796.349 576.626 796.349C576.836 796.349 577.017 796.425 577.167 796.575C577.318 796.726 577.393 796.906 577.393 797.116C577.393 797.256 577.358 797.384 577.287 797.5C577.218 797.616 577.126 797.71 577.01 797.781C576.896 797.849 576.768 797.884 576.626 797.884ZM576.626 793.469C576.416 793.469 576.235 793.393 576.085 793.243C575.934 793.092 575.859 792.912 575.859 792.702C575.859 792.491 575.934 792.311 576.085 792.161C576.235 792.01 576.416 791.935 576.626 791.935C576.836 791.935 577.017 792.01 577.167 792.161C577.318 792.311 577.393 792.491 577.393 792.702C577.393 792.841 577.358 792.969 577.287 793.085C577.218 793.202 577.126 793.295 577.01 793.366C576.896 793.435 576.768 793.469 576.626 793.469ZM582.249 790.273V799H581.192V791.381H581.141L579.01 792.795V791.722L581.192 790.273H582.249ZM584.759 799V798.233L587.64 795.08C587.978 794.71 588.256 794.389 588.475 794.116C588.694 793.841 588.855 793.582 588.961 793.341C589.069 793.097 589.123 792.841 589.123 792.574C589.123 792.267 589.049 792.001 588.901 791.777C588.756 791.553 588.557 791.379 588.304 791.257C588.051 791.135 587.767 791.074 587.452 791.074C587.117 791.074 586.824 791.143 586.574 791.283C586.327 791.419 586.135 791.611 585.999 791.858C585.865 792.105 585.799 792.395 585.799 792.727H584.793C584.793 792.216 584.911 791.767 585.147 791.381C585.382 790.994 585.703 790.693 586.11 790.477C586.519 790.261 586.978 790.153 587.486 790.153C587.998 790.153 588.451 790.261 588.846 790.477C589.24 790.693 589.55 790.984 589.775 791.351C589.999 791.717 590.111 792.125 590.111 792.574C590.111 792.895 590.053 793.209 589.936 793.516C589.823 793.82 589.624 794.159 589.34 794.534C589.059 794.906 588.668 795.361 588.168 795.898L586.208 797.994V798.062H590.265V799H584.759Z" fill="#011627"/>
<path d="M600.958 797.676L598.746 795.463C598.636 795.357 598.489 795.298 598.336 795.3C598.183 795.301 598.036 795.362 597.928 795.47C597.82 795.578 597.759 795.725 597.757 795.878C597.756 796.031 597.815 796.178 597.921 796.288L600.546 798.913C600.655 799.022 600.804 799.084 600.958 799.084C601.113 799.084 601.262 799.022 601.371 798.913L607.788 792.496C607.894 792.386 607.953 792.239 607.951 792.086C607.95 791.933 607.889 791.787 607.78 791.679C607.672 791.571 607.526 791.509 607.373 791.508C607.22 791.507 607.073 791.565 606.963 791.672L600.958 797.676Z" fill="#011627"/>
<rect x="737" y="824" width="243" height="48" rx="12" fill="#8A1538"/>
<path d="M750.227 844V835.273H751.568V844H750.227ZM750.909 833.818C750.648 833.818 750.422 833.729 750.233 833.551C750.047 833.373 749.955 833.159 749.955 832.909C749.955 832.659 750.047 832.445 750.233 832.267C750.422 832.089 750.648 832 750.909 832C751.17 832 751.394 832.089 751.58 832.267C751.769 832.445 751.864 832.659 751.864 832.909C751.864 833.159 751.769 833.373 751.58 833.551C751.394 833.729 751.17 833.818 750.909 833.818ZM761.82 844.182C761.092 844.182 760.45 843.998 759.893 843.631C759.337 843.259 758.901 842.737 758.587 842.062C758.272 841.384 758.115 840.583 758.115 839.659C758.115 838.742 758.272 837.947 758.587 837.273C758.901 836.598 759.339 836.078 759.899 835.71C760.46 835.343 761.107 835.159 761.842 835.159C762.411 835.159 762.859 835.254 763.189 835.443C763.522 835.629 763.776 835.841 763.95 836.08C764.128 836.314 764.267 836.508 764.365 836.659H764.479V832.364H765.82V844H764.524V842.659H764.365C764.267 842.818 764.126 843.019 763.945 843.261C763.763 843.5 763.503 843.714 763.166 843.903C762.829 844.089 762.38 844.182 761.82 844.182ZM762.001 842.977C762.539 842.977 762.994 842.837 763.365 842.557C763.736 842.273 764.018 841.881 764.212 841.381C764.405 840.877 764.501 840.295 764.501 839.636C764.501 838.985 764.407 838.415 764.217 837.926C764.028 837.434 763.748 837.051 763.376 836.778C763.005 836.502 762.547 836.364 762.001 836.364C761.433 836.364 760.96 836.509 760.581 836.801C760.206 837.089 759.924 837.481 759.734 837.977C759.549 838.47 759.456 839.023 759.456 839.636C759.456 840.258 759.551 840.822 759.74 841.33C759.933 841.833 760.217 842.235 760.592 842.534C760.971 842.83 761.441 842.977 762.001 842.977ZM772.007 844.182C771.219 844.182 770.528 843.994 769.933 843.619C769.342 843.244 768.88 842.72 768.547 842.045C768.217 841.371 768.053 840.583 768.053 839.682C768.053 838.773 768.217 837.979 768.547 837.301C768.88 836.623 769.342 836.097 769.933 835.722C770.528 835.347 771.219 835.159 772.007 835.159C772.795 835.159 773.484 835.347 774.075 835.722C774.67 836.097 775.132 836.623 775.462 837.301C775.795 837.979 775.962 838.773 775.962 839.682C775.962 840.583 775.795 841.371 775.462 842.045C775.132 842.72 774.67 843.244 774.075 843.619C773.484 843.994 772.795 844.182 772.007 844.182ZM772.007 842.977C772.606 842.977 773.098 842.824 773.484 842.517C773.871 842.21 774.157 841.807 774.342 841.307C774.528 840.807 774.621 840.265 774.621 839.682C774.621 839.098 774.528 838.555 774.342 838.051C774.157 837.547 773.871 837.14 773.484 836.83C773.098 836.519 772.606 836.364 772.007 836.364C771.409 836.364 770.916 836.519 770.53 836.83C770.143 837.14 769.857 837.547 769.672 838.051C769.486 838.555 769.393 839.098 769.393 839.682C769.393 840.265 769.486 840.807 769.672 841.307C769.857 841.807 770.143 842.21 770.53 842.517C770.916 842.824 771.409 842.977 772.007 842.977ZM779.349 838.75V844H778.009V835.273H779.304V836.636H779.418C779.622 836.193 779.933 835.837 780.349 835.568C780.766 835.295 781.304 835.159 781.963 835.159C782.554 835.159 783.071 835.28 783.514 835.523C783.957 835.761 784.302 836.125 784.548 836.614C784.795 837.098 784.918 837.712 784.918 838.455V844H783.577V838.545C783.577 837.86 783.399 837.326 783.043 836.943C782.687 836.557 782.198 836.364 781.577 836.364C781.149 836.364 780.766 836.456 780.429 836.642C780.096 836.828 779.832 837.098 779.639 837.455C779.446 837.811 779.349 838.242 779.349 838.75ZM788.527 832.364V836.364H787.277V832.364H788.527ZM794.71 835.273V836.409H790.188V835.273H794.71ZM791.506 833.182H792.847V841.5C792.847 841.879 792.902 842.163 793.011 842.352C793.125 842.538 793.269 842.663 793.443 842.727C793.621 842.788 793.809 842.818 794.006 842.818C794.153 842.818 794.275 842.811 794.369 842.795C794.464 842.777 794.54 842.761 794.597 842.75L794.869 843.955C794.778 843.989 794.652 844.023 794.489 844.057C794.326 844.095 794.119 844.114 793.869 844.114C793.491 844.114 793.119 844.032 792.756 843.869C792.396 843.706 792.097 843.458 791.858 843.125C791.623 842.792 791.506 842.371 791.506 841.864V833.182ZM801.227 844V835.273H802.523V836.591H802.614C802.773 836.159 803.061 835.809 803.477 835.54C803.894 835.271 804.364 835.136 804.886 835.136C804.985 835.136 805.108 835.138 805.256 835.142C805.403 835.146 805.515 835.152 805.591 835.159V836.523C805.545 836.511 805.441 836.494 805.278 836.472C805.119 836.445 804.951 836.432 804.773 836.432C804.348 836.432 803.97 836.521 803.636 836.699C803.307 836.873 803.045 837.116 802.852 837.426C802.663 837.733 802.568 838.083 802.568 838.477V844H801.227ZM810.574 844.182C809.733 844.182 809.008 843.996 808.398 843.625C807.792 843.25 807.324 842.727 806.994 842.057C806.669 841.383 806.506 840.598 806.506 839.705C806.506 838.811 806.669 838.023 806.994 837.341C807.324 836.655 807.782 836.121 808.369 835.739C808.96 835.352 809.65 835.159 810.438 835.159C810.892 835.159 811.341 835.235 811.784 835.386C812.227 835.538 812.631 835.784 812.994 836.125C813.358 836.462 813.648 836.909 813.864 837.466C814.08 838.023 814.188 838.708 814.188 839.523V840.091H807.46V838.932H812.824C812.824 838.439 812.725 838 812.528 837.614C812.335 837.227 812.059 836.922 811.699 836.699C811.343 836.475 810.922 836.364 810.438 836.364C809.903 836.364 809.441 836.496 809.051 836.761C808.665 837.023 808.367 837.364 808.159 837.784C807.951 838.205 807.847 838.655 807.847 839.136V839.909C807.847 840.568 807.96 841.127 808.188 841.585C808.419 842.04 808.739 842.386 809.148 842.625C809.557 842.86 810.032 842.977 810.574 842.977C810.926 842.977 811.244 842.928 811.528 842.83C811.816 842.727 812.064 842.576 812.273 842.375C812.481 842.17 812.642 841.917 812.756 841.614L814.051 841.977C813.915 842.417 813.686 842.803 813.364 843.136C813.042 843.466 812.644 843.723 812.17 843.909C811.697 844.091 811.165 844.182 810.574 844.182ZM816.227 844V835.273H817.523V836.636H817.636C817.818 836.17 818.112 835.809 818.517 835.551C818.922 835.29 819.409 835.159 819.977 835.159C820.553 835.159 821.032 835.29 821.415 835.551C821.801 835.809 822.102 836.17 822.318 836.636H822.409C822.633 836.186 822.968 835.828 823.415 835.562C823.862 835.294 824.398 835.159 825.023 835.159C825.803 835.159 826.441 835.403 826.938 835.892C827.434 836.377 827.682 837.133 827.682 838.159V844H826.341V838.159C826.341 837.515 826.165 837.055 825.812 836.778C825.46 836.502 825.045 836.364 824.568 836.364C823.955 836.364 823.479 836.549 823.142 836.92C822.805 837.288 822.636 837.754 822.636 838.318V844H821.273V838.023C821.273 837.527 821.112 837.127 820.79 836.824C820.468 836.517 820.053 836.364 819.545 836.364C819.197 836.364 818.871 836.456 818.568 836.642C818.269 836.828 818.027 837.085 817.841 837.415C817.659 837.741 817.568 838.117 817.568 838.545V844H816.227ZM833.793 844.182C832.952 844.182 832.226 843.996 831.616 843.625C831.01 843.25 830.543 842.727 830.213 842.057C829.887 841.383 829.724 840.598 829.724 839.705C829.724 838.811 829.887 838.023 830.213 837.341C830.543 836.655 831.001 836.121 831.588 835.739C832.179 835.352 832.868 835.159 833.656 835.159C834.111 835.159 834.56 835.235 835.003 835.386C835.446 835.538 835.849 835.784 836.213 836.125C836.577 836.462 836.866 836.909 837.082 837.466C837.298 838.023 837.406 838.708 837.406 839.523V840.091H830.679V838.932H836.043C836.043 838.439 835.944 838 835.747 837.614C835.554 837.227 835.277 836.922 834.918 836.699C834.562 836.475 834.141 836.364 833.656 836.364C833.122 836.364 832.66 836.496 832.27 836.761C831.884 837.023 831.586 837.364 831.378 837.784C831.17 838.205 831.065 838.655 831.065 839.136V839.909C831.065 840.568 831.179 841.127 831.406 841.585C831.637 842.04 831.957 842.386 832.366 842.625C832.776 842.86 833.251 842.977 833.793 842.977C834.145 842.977 834.463 842.928 834.747 842.83C835.035 842.727 835.283 842.576 835.491 842.375C835.7 842.17 835.861 841.917 835.974 841.614L837.27 841.977C837.134 842.417 836.904 842.803 836.582 843.136C836.26 843.466 835.863 843.723 835.389 843.909C834.916 844.091 834.384 844.182 833.793 844.182ZM839.446 844V835.273H840.741V836.636H840.855C841.037 836.17 841.33 835.809 841.736 835.551C842.141 835.29 842.628 835.159 843.196 835.159C843.772 835.159 844.251 835.29 844.634 835.551C845.02 835.809 845.321 836.17 845.537 836.636H845.628C845.851 836.186 846.187 835.828 846.634 835.562C847.08 835.294 847.616 835.159 848.241 835.159C849.022 835.159 849.66 835.403 850.156 835.892C850.652 836.377 850.901 837.133 850.901 838.159V844H849.56V838.159C849.56 837.515 849.384 837.055 849.031 836.778C848.679 836.502 848.264 836.364 847.787 836.364C847.173 836.364 846.698 836.549 846.361 836.92C846.024 837.288 845.855 837.754 845.855 838.318V844H844.491V838.023C844.491 837.527 844.33 837.127 844.009 836.824C843.687 836.517 843.272 836.364 842.764 836.364C842.416 836.364 842.09 836.456 841.787 836.642C841.488 836.828 841.245 837.085 841.06 837.415C840.878 837.741 840.787 838.117 840.787 838.545V844H839.446ZM853.534 844V832.364H854.875V836.659H854.989C855.087 836.508 855.223 836.314 855.398 836.08C855.576 835.841 855.83 835.629 856.159 835.443C856.492 835.254 856.943 835.159 857.511 835.159C858.246 835.159 858.894 835.343 859.455 835.71C860.015 836.078 860.453 836.598 860.767 837.273C861.081 837.947 861.239 838.742 861.239 839.659C861.239 840.583 861.081 841.384 860.767 842.062C860.453 842.737 860.017 843.259 859.46 843.631C858.903 843.998 858.261 844.182 857.534 844.182C856.973 844.182 856.525 844.089 856.188 843.903C855.85 843.714 855.591 843.5 855.409 843.261C855.227 843.019 855.087 842.818 854.989 842.659H854.83V844H853.534ZM854.852 839.636C854.852 840.295 854.949 840.877 855.142 841.381C855.335 841.881 855.617 842.273 855.989 842.557C856.36 842.837 856.814 842.977 857.352 842.977C857.913 842.977 858.381 842.83 858.756 842.534C859.134 842.235 859.419 841.833 859.608 841.33C859.801 840.822 859.898 840.258 859.898 839.636C859.898 839.023 859.803 838.47 859.614 837.977C859.428 837.481 859.146 837.089 858.767 836.801C858.392 836.509 857.92 836.364 857.352 836.364C856.807 836.364 856.348 836.502 855.977 836.778C855.606 837.051 855.326 837.434 855.136 837.926C854.947 838.415 854.852 838.985 854.852 839.636ZM866.949 844.182C866.108 844.182 865.383 843.996 864.773 843.625C864.167 843.25 863.699 842.727 863.369 842.057C863.044 841.383 862.881 840.598 862.881 839.705C862.881 838.811 863.044 838.023 863.369 837.341C863.699 836.655 864.157 836.121 864.744 835.739C865.335 835.352 866.025 835.159 866.812 835.159C867.267 835.159 867.716 835.235 868.159 835.386C868.602 835.538 869.006 835.784 869.369 836.125C869.733 836.462 870.023 836.909 870.239 837.466C870.455 838.023 870.562 838.708 870.562 839.523V840.091H863.835V838.932H869.199C869.199 838.439 869.1 838 868.903 837.614C868.71 837.227 868.434 836.922 868.074 836.699C867.718 836.475 867.297 836.364 866.812 836.364C866.278 836.364 865.816 836.496 865.426 836.761C865.04 837.023 864.742 837.364 864.534 837.784C864.326 838.205 864.222 838.655 864.222 839.136V839.909C864.222 840.568 864.335 841.127 864.562 841.585C864.794 842.04 865.114 842.386 865.523 842.625C865.932 842.86 866.407 842.977 866.949 842.977C867.301 842.977 867.619 842.928 867.903 842.83C868.191 842.727 868.439 842.576 868.648 842.375C868.856 842.17 869.017 841.917 869.131 841.614L870.426 841.977C870.29 842.417 870.061 842.803 869.739 843.136C869.417 843.466 869.019 843.723 868.545 843.909C868.072 844.091 867.54 844.182 866.949 844.182ZM872.602 844V835.273H873.898V836.591H873.989C874.148 836.159 874.436 835.809 874.852 835.54C875.269 835.271 875.739 835.136 876.261 835.136C876.36 835.136 876.483 835.138 876.631 835.142C876.778 835.146 876.89 835.152 876.966 835.159V836.523C876.92 836.511 876.816 836.494 876.653 836.472C876.494 836.445 876.326 836.432 876.148 836.432C875.723 836.432 875.345 836.521 875.011 836.699C874.682 836.873 874.42 837.116 874.227 837.426C874.038 837.733 873.943 838.083 873.943 838.477V844H872.602ZM885.624 844.205C885.071 844.205 884.569 844.1 884.118 843.892C883.667 843.68 883.309 843.375 883.044 842.977C882.779 842.576 882.646 842.091 882.646 841.523C882.646 841.023 882.745 840.617 882.942 840.307C883.139 839.992 883.402 839.746 883.732 839.568C884.061 839.39 884.425 839.258 884.822 839.17C885.224 839.08 885.627 839.008 886.033 838.955C886.563 838.886 886.993 838.835 887.322 838.801C887.656 838.763 887.898 838.701 888.05 838.614C888.205 838.527 888.283 838.375 888.283 838.159V838.114C888.283 837.553 888.129 837.117 887.822 836.807C887.519 836.496 887.059 836.341 886.442 836.341C885.802 836.341 885.3 836.481 884.936 836.761C884.572 837.042 884.317 837.341 884.169 837.659L882.896 837.205C883.124 836.674 883.427 836.261 883.805 835.966C884.188 835.667 884.605 835.458 885.055 835.341C885.51 835.22 885.957 835.159 886.396 835.159C886.677 835.159 886.999 835.193 887.362 835.261C887.73 835.326 888.084 835.46 888.425 835.665C888.769 835.869 889.055 836.178 889.283 836.591C889.51 837.004 889.624 837.557 889.624 838.25V844H888.283V842.818H888.214C888.124 843.008 887.972 843.21 887.76 843.426C887.548 843.642 887.266 843.826 886.913 843.977C886.561 844.129 886.131 844.205 885.624 844.205ZM885.828 843C886.358 843 886.805 842.896 887.169 842.688C887.536 842.479 887.813 842.21 887.999 841.881C888.188 841.551 888.283 841.205 888.283 840.841V839.614C888.226 839.682 888.101 839.744 887.908 839.801C887.718 839.854 887.499 839.902 887.249 839.943C887.002 839.981 886.762 840.015 886.527 840.045C886.296 840.072 886.108 840.095 885.964 840.114C885.616 840.159 885.29 840.233 884.987 840.335C884.688 840.434 884.446 840.583 884.26 840.784C884.078 840.981 883.987 841.25 883.987 841.591C883.987 842.057 884.16 842.409 884.504 842.648C884.853 842.883 885.294 843 885.828 843ZM893.412 838.75V844H892.071V835.273H893.366V836.636H893.48C893.685 836.193 893.995 835.837 894.412 835.568C894.829 835.295 895.366 835.159 896.026 835.159C896.616 835.159 897.134 835.28 897.577 835.523C898.02 835.761 898.365 836.125 898.611 836.614C898.857 837.098 898.98 837.712 898.98 838.455V844H897.639V838.545C897.639 837.86 897.461 837.326 897.105 836.943C896.749 836.557 896.26 836.364 895.639 836.364C895.211 836.364 894.829 836.456 894.491 836.642C894.158 836.828 893.895 837.098 893.702 837.455C893.509 837.811 893.412 838.242 893.412 838.75ZM901.982 847.273C901.754 847.273 901.552 847.254 901.374 847.216C901.196 847.182 901.072 847.148 901.004 847.114L901.345 845.932C901.671 846.015 901.959 846.045 902.209 846.023C902.459 846 902.68 845.888 902.874 845.688C903.071 845.491 903.25 845.17 903.413 844.727L903.663 844.045L900.436 835.273H901.891L904.3 842.227H904.391L906.8 835.273H908.254L904.55 845.273C904.383 845.723 904.177 846.097 903.93 846.392C903.684 846.691 903.398 846.913 903.072 847.057C902.75 847.201 902.387 847.273 901.982 847.273ZM913.82 835.273V836.409H909.297V835.273H913.82ZM910.615 833.182H911.956V841.5C911.956 841.879 912.011 842.163 912.121 842.352C912.234 842.538 912.378 842.663 912.553 842.727C912.731 842.788 912.918 842.818 913.115 842.818C913.263 842.818 913.384 842.811 913.479 842.795C913.573 842.777 913.649 842.761 913.706 842.75L913.979 843.955C913.888 843.989 913.761 844.023 913.598 844.057C913.435 844.095 913.229 844.114 912.979 844.114C912.6 844.114 912.229 844.032 911.865 843.869C911.505 843.706 911.206 843.458 910.967 843.125C910.732 842.792 910.615 842.371 910.615 841.864V833.182ZM917.365 838.75V844H916.024V832.364H917.365V836.636H917.479C917.683 836.186 917.99 835.828 918.399 835.562C918.812 835.294 919.361 835.159 920.047 835.159C920.642 835.159 921.162 835.278 921.609 835.517C922.056 835.752 922.403 836.114 922.649 836.602C922.899 837.087 923.024 837.705 923.024 838.455V844H921.683V838.545C921.683 837.852 921.503 837.316 921.143 836.938C920.787 836.555 920.293 836.364 919.661 836.364C919.221 836.364 918.827 836.456 918.479 836.642C918.134 836.828 917.861 837.098 917.661 837.455C917.464 837.811 917.365 838.242 917.365 838.75ZM925.477 844V835.273H926.818V844H925.477ZM926.159 833.818C925.898 833.818 925.672 833.729 925.483 833.551C925.297 833.373 925.205 833.159 925.205 832.909C925.205 832.659 925.297 832.445 925.483 832.267C925.672 832.089 925.898 832 926.159 832C926.42 832 926.644 832.089 926.83 832.267C927.019 832.445 927.114 832.659 927.114 832.909C927.114 833.159 927.019 833.373 926.83 833.551C926.644 833.729 926.42 833.818 926.159 833.818ZM930.615 838.75V844H929.274V835.273H930.57V836.636H930.683C930.888 836.193 931.198 835.837 931.615 835.568C932.032 835.295 932.57 835.159 933.229 835.159C933.82 835.159 934.337 835.28 934.78 835.523C935.223 835.761 935.568 836.125 935.814 836.614C936.06 837.098 936.183 837.712 936.183 838.455V844H934.842V838.545C934.842 837.86 934.664 837.326 934.308 836.943C933.952 836.557 933.464 836.364 932.842 836.364C932.414 836.364 932.032 836.456 931.695 836.642C931.361 836.828 931.098 837.098 930.905 837.455C930.712 837.811 930.615 838.242 930.615 838.75ZM942.156 847.455C941.509 847.455 940.952 847.371 940.486 847.205C940.02 847.042 939.632 846.826 939.321 846.557C939.014 846.292 938.77 846.008 938.588 845.705L939.656 844.955C939.777 845.114 939.931 845.295 940.116 845.5C940.302 845.708 940.556 845.888 940.878 846.04C941.204 846.195 941.63 846.273 942.156 846.273C942.861 846.273 943.442 846.102 943.901 845.761C944.359 845.42 944.588 844.886 944.588 844.159V842.386H944.474C944.376 842.545 944.236 842.742 944.054 842.977C943.876 843.208 943.618 843.415 943.281 843.597C942.948 843.775 942.497 843.864 941.929 843.864C941.224 843.864 940.592 843.697 940.031 843.364C939.474 843.03 939.033 842.545 938.707 841.909C938.385 841.273 938.224 840.5 938.224 839.591C938.224 838.697 938.382 837.919 938.696 837.256C939.01 836.589 939.448 836.074 940.009 835.71C940.569 835.343 941.217 835.159 941.952 835.159C942.52 835.159 942.971 835.254 943.304 835.443C943.641 835.629 943.899 835.841 944.077 836.08C944.259 836.314 944.399 836.508 944.497 836.659H944.634V835.273H945.929V844.25C945.929 845 945.759 845.61 945.418 846.08C945.08 846.553 944.626 846.9 944.054 847.119C943.486 847.343 942.853 847.455 942.156 847.455ZM942.111 842.659C942.649 842.659 943.103 842.536 943.474 842.29C943.846 842.044 944.128 841.689 944.321 841.227C944.514 840.765 944.611 840.212 944.611 839.568C944.611 838.939 944.516 838.384 944.327 837.903C944.137 837.422 943.857 837.045 943.486 836.773C943.115 836.5 942.656 836.364 942.111 836.364C941.543 836.364 941.069 836.508 940.69 836.795C940.315 837.083 940.033 837.47 939.844 837.955C939.658 838.439 939.565 838.977 939.565 839.568C939.565 840.174 939.66 840.71 939.849 841.176C940.043 841.638 940.327 842.002 940.702 842.267C941.08 842.528 941.55 842.659 942.111 842.659ZM951.656 845.12H967.656V829.12H951.656V845.12Z" fill="white"/>
<path d="M923.972 855.273V864H922.915V856.381H922.864L920.733 857.795V856.722L922.915 855.273H923.972ZM929.277 864.119C928.692 864.119 928.175 864.016 927.726 863.808C927.28 863.598 926.932 863.31 926.682 862.943C926.432 862.574 926.308 862.153 926.311 861.682C926.308 861.312 926.381 860.972 926.528 860.659C926.676 860.344 926.878 860.081 927.134 859.871C927.392 859.658 927.68 859.523 927.999 859.466V859.415C927.581 859.307 927.249 859.072 927.001 858.712C926.754 858.348 926.632 857.935 926.635 857.472C926.632 857.028 926.744 856.632 926.972 856.283C927.199 855.933 927.511 855.658 927.909 855.456C928.31 855.254 928.766 855.153 929.277 855.153C929.783 855.153 930.234 855.254 930.632 855.456C931.03 855.658 931.342 855.933 931.57 856.283C931.8 856.632 931.916 857.028 931.919 857.472C931.916 857.935 931.79 858.348 931.54 858.712C931.293 859.072 930.964 859.307 930.555 859.415V859.466C930.871 859.523 931.155 859.658 931.408 859.871C931.661 860.081 931.862 860.344 932.013 860.659C932.163 860.972 932.24 861.312 932.243 861.682C932.24 862.153 932.112 862.574 931.859 862.943C931.609 863.31 931.261 863.598 930.815 863.808C930.372 864.016 929.859 864.119 929.277 864.119ZM929.277 863.182C929.672 863.182 930.013 863.118 930.3 862.99C930.587 862.862 930.808 862.682 930.964 862.449C931.121 862.216 931.2 861.943 931.203 861.631C931.2 861.301 931.115 861.01 930.947 860.757C930.78 860.504 930.551 860.305 930.261 860.161C929.974 860.016 929.646 859.943 929.277 859.943C928.905 859.943 928.572 860.016 928.28 860.161C927.99 860.305 927.761 860.504 927.594 860.757C927.429 861.01 927.348 861.301 927.351 861.631C927.348 861.943 927.423 862.216 927.577 862.449C927.733 862.682 927.956 862.862 928.246 862.99C928.536 863.118 928.879 863.182 929.277 863.182ZM929.277 859.04C929.589 859.04 929.866 858.977 930.108 858.852C930.352 858.727 930.544 858.553 930.683 858.328C930.822 858.104 930.893 857.841 930.896 857.54C930.893 857.244 930.824 856.987 930.688 856.768C930.551 856.547 930.362 856.376 930.121 856.257C929.879 856.135 929.598 856.074 929.277 856.074C928.95 856.074 928.665 856.135 928.42 856.257C928.176 856.376 927.987 856.547 927.854 856.768C927.72 856.987 927.655 857.244 927.658 857.54C927.655 857.841 927.722 858.104 927.858 858.328C927.997 858.553 928.189 858.727 928.433 858.852C928.678 858.977 928.959 859.04 929.277 859.04ZM934.626 862.884C934.416 862.884 934.235 862.808 934.085 862.658C933.934 862.507 933.859 862.327 933.859 862.116C933.859 861.906 933.934 861.726 934.085 861.575C934.235 861.425 934.416 861.349 934.626 861.349C934.836 861.349 935.017 861.425 935.167 861.575C935.318 861.726 935.393 861.906 935.393 862.116C935.393 862.256 935.358 862.384 935.287 862.5C935.218 862.616 935.126 862.71 935.01 862.781C934.896 862.849 934.768 862.884 934.626 862.884ZM934.626 858.469C934.416 858.469 934.235 858.393 934.085 858.243C933.934 858.092 933.859 857.912 933.859 857.702C933.859 857.491 933.934 857.311 934.085 857.161C934.235 857.01 934.416 856.935 934.626 856.935C934.836 856.935 935.017 857.01 935.167 857.161C935.318 857.311 935.393 857.491 935.393 857.702C935.393 857.841 935.358 857.969 935.287 858.085C935.218 858.202 935.126 858.295 935.01 858.366C934.896 858.435 934.768 858.469 934.626 858.469ZM940.249 855.273V864H939.192V856.381H939.141L937.01 857.795V856.722L939.192 855.273H940.249ZM945.657 864.119C945.299 864.114 944.941 864.045 944.583 863.915C944.225 863.784 943.898 863.564 943.603 863.254C943.307 862.942 943.07 862.52 942.891 861.989C942.712 861.455 942.623 860.784 942.623 859.977C942.623 859.205 942.695 858.52 942.84 857.923C942.985 857.324 943.195 856.82 943.471 856.411C943.746 855.999 944.078 855.686 944.468 855.473C944.86 855.26 945.301 855.153 945.793 855.153C946.282 855.153 946.716 855.251 947.097 855.447C947.48 855.641 947.793 855.911 948.034 856.257C948.276 856.604 948.432 857.003 948.503 857.455H947.463C947.367 857.062 947.179 856.737 946.901 856.479C946.623 856.22 946.253 856.091 945.793 856.091C945.117 856.091 944.584 856.385 944.195 856.973C943.809 857.561 943.614 858.386 943.611 859.449H943.679C943.838 859.207 944.027 859.001 944.246 858.831C944.468 858.658 944.712 858.524 944.979 858.43C945.246 858.337 945.529 858.29 945.827 858.29C946.327 858.29 946.784 858.415 947.199 858.665C947.614 858.912 947.946 859.254 948.196 859.692C948.446 860.126 948.571 860.625 948.571 861.188C948.571 861.727 948.451 862.222 948.209 862.67C947.968 863.116 947.628 863.472 947.191 863.736C946.756 863.997 946.245 864.125 945.657 864.119ZM945.657 863.182C946.015 863.182 946.336 863.092 946.62 862.913C946.907 862.734 947.132 862.494 947.297 862.193C947.465 861.892 947.549 861.557 947.549 861.188C947.549 860.827 947.468 860.499 947.306 860.203C947.147 859.905 946.926 859.668 946.645 859.491C946.367 859.315 946.049 859.227 945.691 859.227C945.421 859.227 945.169 859.281 944.936 859.389C944.703 859.494 944.499 859.639 944.323 859.824C944.15 860.009 944.013 860.22 943.914 860.459C943.814 860.695 943.765 860.943 943.765 861.205C943.765 861.551 943.846 861.875 944.007 862.176C944.172 862.477 944.397 862.72 944.681 862.905C944.968 863.089 945.293 863.182 945.657 863.182Z" fill="white"/>
<path d="M958.958 862.676L956.746 860.463C956.636 860.357 956.489 860.298 956.336 860.3C956.183 860.301 956.036 860.362 955.928 860.47C955.82 860.578 955.759 860.725 955.757 860.878C955.756 861.031 955.815 861.178 955.921 861.288L958.546 863.913C958.655 864.022 958.804 864.084 958.958 864.084C959.113 864.084 959.262 864.022 959.371 863.913L965.788 857.496C965.894 857.386 965.953 857.239 965.951 857.086C965.95 856.933 965.889 856.787 965.78 856.679C965.672 856.571 965.526 856.509 965.373 856.508C965.22 856.507 965.073 856.565 964.963 856.672L958.958 862.676Z" fill="white"/>
<rect x="24" y="888" width="956" height="56" rx="12" fill="white"/>
<path d="M60 914.25C60.4142 914.25 60.75 914.586 60.75 915C60.75 919.58 57.2314 923.338 52.75 923.719V925.25H55C55.4142 925.25 55.75 925.586 55.75 926C55.75 926.414 55.4142 926.75 55 926.75H49C48.5858 926.75 48.25 926.414 48.25 926C48.25 925.586 48.5858 925.25 49 925.25H51.25V923.719C46.7686 923.338 43.25 919.58 43.25 915C43.25 914.586 43.5858 914.25 44 914.25C44.4142 914.25 44.75 914.586 44.75 915C44.75 919.004 47.9959 922.25 52 922.25C56.0041 922.25 59.25 919.004 59.25 915C59.25 914.586 59.5858 914.25 60 914.25ZM52 905.25C55.1756 905.25 57.75 907.824 57.75 911V915C57.75 918.176 55.1756 920.75 52 920.75C48.8244 920.75 46.25 918.176 46.25 915V911C46.25 907.824 48.8244 905.25 52 905.25ZM52 906.75C49.6528 906.75 47.75 908.653 47.75 911V915C47.75 917.347 49.6528 919.25 52 919.25C54.0912 919.25 55.8283 917.739 56.1826 915.75H54C53.5858 915.75 53.25 915.414 53.25 915C53.25 914.586 53.5858 914.25 54 914.25H56.25V911.75H54C53.5858 911.75 53.25 911.414 53.25 911C53.25 910.586 53.5858 910.25 54 910.25H56.1826C55.8283 908.261 54.0912 906.75 52 906.75Z" fill="#999999"/>
<path d="M84 926.75C89.9371 926.75 94.75 921.937 94.75 916C94.75 910.063 89.9371 905.25 84 905.25C78.0629 905.25 73.25 910.063 73.25 916C73.25 921.937 78.0629 926.75 84 926.75ZM84 925.25C78.8914 925.25 74.75 921.109 74.75 916C74.75 910.891 78.8914 906.75 84 906.75C89.1086 906.75 93.25 910.891 93.25 916C93.25 921.109 89.1086 925.25 84 925.25ZM80.0088 914L80.1113 913.995C80.6155 913.944 81.0088 913.518 81.0088 913C81.0088 912.482 80.6155 912.056 80.1113 912.005L80.0088 912H80C79.4477 912 79 912.448 79 913C79 913.552 79.4477 914 80 914H80.0088ZM88 914C88.5523 914 89 913.552 89 913C89 912.448 88.5523 912 88 912H87.9912C87.4389 912 86.9912 912.448 86.9912 913C86.9912 913.552 87.4389 914 87.9912 914H88ZM84 921.75C85.8816 921.75 87.5519 920.845 88.5996 919.45C88.8483 919.119 88.7814 918.649 88.4502 918.4C88.119 918.152 87.6491 918.219 87.4004 918.55C86.6238 919.584 85.3897 920.25 84 920.25C82.6103 920.25 81.3762 919.584 80.5996 918.55C80.3509 918.219 79.881 918.152 79.5498 918.4C79.2186 918.649 79.1517 919.119 79.4004 919.45C80.4481 920.845 82.1184 921.75 84 921.75Z" fill="#999999"/>
<path d="M116.058 905.75C118.248 905.75 119.968 905.75 121.312 905.931C122.688 906.116 123.78 906.503 124.639 907.361C125.497 908.22 125.884 909.312 126.069 910.688C126.25 912.032 126.25 913.752 126.25 915.942V916.058C126.25 918.248 126.25 919.968 126.069 921.312C125.884 922.688 125.497 923.78 124.639 924.639C123.78 925.497 122.688 925.884 121.312 926.069C119.968 926.25 118.248 926.25 116.058 926.25H115.942C113.752 926.25 112.032 926.25 110.688 926.069C109.312 925.884 108.22 925.497 107.361 924.639C106.503 923.78 106.116 922.688 105.931 921.312C105.75 919.968 105.75 918.248 105.75 916.058V915.942C105.75 913.752 105.75 912.032 105.931 910.688C106.116 909.312 106.503 908.22 107.361 907.361C108.22 906.503 109.312 906.116 110.688 905.931C112.032 905.75 113.752 905.75 115.942 905.75H116.058ZM108.033 918.753H108.017C107.767 918.752 107.518 918.76 107.269 918.772C107.288 919.688 107.329 920.455 107.417 921.112C107.58 922.323 107.889 923.045 108.422 923.578C108.955 924.111 109.677 924.42 110.888 924.583C112.12 924.749 113.74 924.75 116 924.75C117.033 924.75 117.933 924.748 118.723 924.731C118.017 923.276 116.901 921.97 115.447 920.947C113.366 919.483 110.738 918.7 108.033 918.753ZM122.384 920.75C121.118 920.745 119.843 921.098 118.602 921.818C119.329 922.684 119.912 923.641 120.331 924.661C120.608 924.64 120.868 924.616 121.112 924.583C122.323 924.42 123.045 924.111 123.578 923.578C124.111 923.045 124.419 922.323 124.582 921.114C123.854 920.871 123.12 920.749 122.388 920.75H122.384ZM116 907.25C113.74 907.25 112.12 907.251 110.888 907.417C109.677 907.58 108.955 907.889 108.422 908.422C107.889 908.955 107.58 909.677 107.417 910.888C107.251 912.12 107.25 913.74 107.25 916C107.25 916.448 107.251 916.872 107.252 917.271C107.505 917.26 107.758 917.252 108.012 917.253C111.015 917.196 113.956 918.064 116.311 919.721C116.746 920.027 117.155 920.357 117.538 920.708C119.072 919.749 120.712 919.244 122.388 919.25C123.169 919.249 123.944 919.363 124.706 919.583C124.748 918.602 124.75 917.429 124.75 916C124.75 913.74 124.749 912.12 124.583 910.888C124.42 909.677 124.111 908.955 123.578 908.422C123.045 907.889 122.323 907.58 121.112 907.417C119.88 907.251 118.26 907.25 116 907.25ZM120.5 909.25C121.743 909.25 122.75 910.257 122.75 911.5C122.75 912.743 121.743 913.75 120.5 913.75C119.257 913.75 118.25 912.743 118.25 911.5C118.25 910.257 119.257 909.25 120.5 909.25ZM120.5 910.75C120.086 910.75 119.75 911.086 119.75 911.5C119.75 911.914 120.086 912.25 120.5 912.25C120.914 912.25 121.25 911.914 121.25 911.5C121.25 911.086 120.914 910.75 120.5 910.75Z" fill="#999999"/>
<path d="M145.409 910.364H147.091L151.045 920.023H151.182L155.136 910.364H156.818V922H155.5V913.159H155.386L151.75 922H150.477L146.841 913.159H146.727V922H145.409V910.364ZM162.481 922.182C161.64 922.182 160.914 921.996 160.305 921.625C159.699 921.25 159.231 920.727 158.901 920.057C158.575 919.383 158.413 918.598 158.413 917.705C158.413 916.811 158.575 916.023 158.901 915.341C159.231 914.655 159.689 914.121 160.276 913.739C160.867 913.352 161.556 913.159 162.344 913.159C162.799 913.159 163.248 913.235 163.691 913.386C164.134 913.538 164.538 913.784 164.901 914.125C165.265 914.462 165.555 914.909 165.771 915.466C165.986 916.023 166.094 916.708 166.094 917.523V918.091H159.367V916.932H164.731C164.731 916.439 164.632 916 164.435 915.614C164.242 915.227 163.966 914.922 163.606 914.699C163.25 914.475 162.829 914.364 162.344 914.364C161.81 914.364 161.348 914.496 160.958 914.761C160.572 915.023 160.274 915.364 160.066 915.784C159.858 916.205 159.753 916.655 159.753 917.136V917.909C159.753 918.568 159.867 919.127 160.094 919.585C160.325 920.04 160.646 920.386 161.055 920.625C161.464 920.86 161.939 920.977 162.481 920.977C162.833 920.977 163.151 920.928 163.435 920.83C163.723 920.727 163.971 920.576 164.18 920.375C164.388 920.17 164.549 919.917 164.663 919.614L165.958 919.977C165.822 920.417 165.592 920.803 165.271 921.136C164.949 921.466 164.551 921.723 164.077 921.909C163.604 922.091 163.072 922.182 162.481 922.182ZM173.676 915.227L172.471 915.568C172.396 915.367 172.284 915.172 172.136 914.983C171.992 914.79 171.795 914.631 171.545 914.506C171.295 914.381 170.975 914.318 170.585 914.318C170.051 914.318 169.606 914.441 169.25 914.688C168.898 914.93 168.721 915.239 168.721 915.614C168.721 915.947 168.843 916.21 169.085 916.403C169.327 916.597 169.706 916.758 170.221 916.886L171.517 917.205C172.297 917.394 172.879 917.684 173.261 918.074C173.644 918.46 173.835 918.958 173.835 919.568C173.835 920.068 173.691 920.515 173.403 920.909C173.119 921.303 172.721 921.614 172.21 921.841C171.699 922.068 171.104 922.182 170.426 922.182C169.536 922.182 168.799 921.989 168.216 921.602C167.632 921.216 167.263 920.652 167.108 919.909L168.381 919.591C168.502 920.061 168.731 920.413 169.068 920.648C169.409 920.883 169.854 921 170.403 921C171.028 921 171.524 920.867 171.892 920.602C172.263 920.333 172.449 920.011 172.449 919.636C172.449 919.333 172.343 919.08 172.131 918.875C171.918 918.667 171.593 918.511 171.153 918.409L169.699 918.068C168.899 917.879 168.312 917.585 167.937 917.188C167.566 916.786 167.381 916.284 167.381 915.682C167.381 915.189 167.519 914.754 167.795 914.375C168.076 913.996 168.456 913.699 168.937 913.483C169.422 913.267 169.971 913.159 170.585 913.159C171.449 913.159 172.127 913.348 172.619 913.727C173.115 914.106 173.468 914.606 173.676 915.227ZM181.395 915.227L180.191 915.568C180.115 915.367 180.003 915.172 179.856 914.983C179.712 914.79 179.515 914.631 179.265 914.506C179.015 914.381 178.695 914.318 178.304 914.318C177.77 914.318 177.325 914.441 176.969 914.688C176.617 914.93 176.441 915.239 176.441 915.614C176.441 915.947 176.562 916.21 176.804 916.403C177.047 916.597 177.426 916.758 177.941 916.886L179.236 917.205C180.017 917.394 180.598 917.684 180.981 918.074C181.363 918.46 181.554 918.958 181.554 919.568C181.554 920.068 181.41 920.515 181.123 920.909C180.839 921.303 180.441 921.614 179.929 921.841C179.418 922.068 178.823 922.182 178.145 922.182C177.255 922.182 176.518 921.989 175.935 921.602C175.352 921.216 174.982 920.652 174.827 919.909L176.1 919.591C176.221 920.061 176.45 920.413 176.787 920.648C177.128 920.883 177.573 921 178.123 921C178.748 921 179.244 920.867 179.611 920.602C179.982 920.333 180.168 920.011 180.168 919.636C180.168 919.333 180.062 919.08 179.85 918.875C179.638 918.667 179.312 918.511 178.873 918.409L177.418 918.068C176.619 917.879 176.032 917.585 175.657 917.188C175.285 916.786 175.1 916.284 175.1 915.682C175.1 915.189 175.238 914.754 175.515 914.375C175.795 913.996 176.176 913.699 176.657 913.483C177.142 913.267 177.691 913.159 178.304 913.159C179.168 913.159 179.846 913.348 180.339 913.727C180.835 914.106 181.187 914.606 181.395 915.227ZM185.501 922.205C184.948 922.205 184.446 922.1 183.995 921.892C183.545 921.68 183.187 921.375 182.922 920.977C182.656 920.576 182.524 920.091 182.524 919.523C182.524 919.023 182.622 918.617 182.819 918.307C183.016 917.992 183.279 917.746 183.609 917.568C183.939 917.39 184.302 917.258 184.7 917.17C185.101 917.08 185.505 917.008 185.91 916.955C186.44 916.886 186.87 916.835 187.2 916.801C187.533 916.763 187.776 916.701 187.927 916.614C188.083 916.527 188.16 916.375 188.16 916.159V916.114C188.16 915.553 188.007 915.117 187.7 914.807C187.397 914.496 186.937 914.341 186.319 914.341C185.679 914.341 185.177 914.481 184.814 914.761C184.45 915.042 184.194 915.341 184.047 915.659L182.774 915.205C183.001 914.674 183.304 914.261 183.683 913.966C184.065 913.667 184.482 913.458 184.933 913.341C185.387 913.22 185.834 913.159 186.274 913.159C186.554 913.159 186.876 913.193 187.24 913.261C187.607 913.326 187.961 913.46 188.302 913.665C188.647 913.869 188.933 914.178 189.16 914.591C189.387 915.004 189.501 915.557 189.501 916.25V922H188.16V920.818H188.092C188.001 921.008 187.85 921.21 187.637 921.426C187.425 921.642 187.143 921.826 186.791 921.977C186.439 922.129 186.009 922.205 185.501 922.205ZM185.706 921C186.236 921 186.683 920.896 187.047 920.688C187.414 920.479 187.69 920.21 187.876 919.881C188.065 919.551 188.16 919.205 188.16 918.841V917.614C188.103 917.682 187.978 917.744 187.785 917.801C187.596 917.854 187.376 917.902 187.126 917.943C186.88 917.981 186.639 918.015 186.404 918.045C186.173 918.072 185.986 918.095 185.842 918.114C185.494 918.159 185.168 918.233 184.865 918.335C184.565 918.434 184.323 918.583 184.137 918.784C183.956 918.981 183.865 919.25 183.865 919.591C183.865 920.057 184.037 920.409 184.382 920.648C184.73 920.883 185.172 921 185.706 921ZM194.831 925.455C194.184 925.455 193.627 925.371 193.161 925.205C192.695 925.042 192.307 924.826 191.996 924.557C191.689 924.292 191.445 924.008 191.263 923.705L192.331 922.955C192.452 923.114 192.606 923.295 192.791 923.5C192.977 923.708 193.231 923.888 193.553 924.04C193.879 924.195 194.305 924.273 194.831 924.273C195.536 924.273 196.117 924.102 196.576 923.761C197.034 923.42 197.263 922.886 197.263 922.159V920.386H197.149C197.051 920.545 196.911 920.742 196.729 920.977C196.551 921.208 196.293 921.415 195.956 921.597C195.623 921.775 195.172 921.864 194.604 921.864C193.899 921.864 193.267 921.697 192.706 921.364C192.149 921.03 191.708 920.545 191.382 919.909C191.06 919.273 190.899 918.5 190.899 917.591C190.899 916.697 191.057 915.919 191.371 915.256C191.685 914.589 192.123 914.074 192.684 913.71C193.244 913.343 193.892 913.159 194.627 913.159C195.195 913.159 195.646 913.254 195.979 913.443C196.316 913.629 196.574 913.841 196.752 914.08C196.934 914.314 197.074 914.508 197.172 914.659H197.309V913.273H198.604V922.25C198.604 923 198.434 923.61 198.093 924.08C197.755 924.553 197.301 924.9 196.729 925.119C196.161 925.343 195.528 925.455 194.831 925.455ZM194.786 920.659C195.324 920.659 195.778 920.536 196.149 920.29C196.521 920.044 196.803 919.689 196.996 919.227C197.189 918.765 197.286 918.212 197.286 917.568C197.286 916.939 197.191 916.384 197.002 915.903C196.812 915.422 196.532 915.045 196.161 914.773C195.79 914.5 195.331 914.364 194.786 914.364C194.218 914.364 193.744 914.508 193.365 914.795C192.99 915.083 192.708 915.47 192.519 915.955C192.333 916.439 192.24 916.977 192.24 917.568C192.24 918.174 192.335 918.71 192.524 919.176C192.718 919.638 193.002 920.002 193.377 920.267C193.755 920.528 194.225 920.659 194.786 920.659ZM204.078 922.182C203.237 922.182 202.511 921.996 201.901 921.625C201.295 921.25 200.828 920.727 200.498 920.057C200.172 919.383 200.009 918.598 200.009 917.705C200.009 916.811 200.172 916.023 200.498 915.341C200.828 914.655 201.286 914.121 201.873 913.739C202.464 913.352 203.153 913.159 203.941 913.159C204.396 913.159 204.845 913.235 205.288 913.386C205.731 913.538 206.134 913.784 206.498 914.125C206.862 914.462 207.151 914.909 207.367 915.466C207.583 916.023 207.691 916.708 207.691 917.523V918.091H200.964V916.932H206.328C206.328 916.439 206.229 916 206.032 915.614C205.839 915.227 205.562 914.922 205.203 914.699C204.847 914.475 204.426 914.364 203.941 914.364C203.407 914.364 202.945 914.496 202.555 914.761C202.169 915.023 201.871 915.364 201.663 915.784C201.455 916.205 201.35 916.655 201.35 917.136V917.909C201.35 918.568 201.464 919.127 201.691 919.585C201.922 920.04 202.242 920.386 202.651 920.625C203.061 920.86 203.536 920.977 204.078 920.977C204.43 920.977 204.748 920.928 205.032 920.83C205.32 920.727 205.568 920.576 205.776 920.375C205.985 920.17 206.146 919.917 206.259 919.614L207.555 919.977C207.419 920.417 207.189 920.803 206.867 921.136C206.545 921.466 206.148 921.723 205.674 921.909C205.201 922.091 204.669 922.182 204.078 922.182Z" fill="#707991"/>
<path d="M952.815 916.196L945.283 917.452C945.196 917.466 945.115 917.503 945.047 917.559C944.98 917.615 944.928 917.688 944.897 917.77L942.3 924.727C942.052 925.367 942.721 925.977 943.335 925.67L961.335 916.67C961.46 916.608 961.565 916.512 961.638 916.393C961.711 916.275 961.75 916.138 961.75 915.999C961.75 915.86 961.711 915.723 961.638 915.604C961.565 915.486 961.46 915.39 961.335 915.328L943.335 906.328C942.721 906.021 942.052 906.632 942.3 907.271L944.898 914.228C944.929 914.31 944.98 914.383 945.048 914.439C945.116 914.495 945.197 914.532 945.284 914.547L952.816 915.802C952.862 915.81 952.904 915.834 952.935 915.87C952.965 915.906 952.982 915.952 952.982 915.999C952.982 916.046 952.965 916.091 952.935 916.128C952.904 916.164 952.862 916.188 952.816 916.196H952.815Z" fill="#9C3655"/>
<defs>
<clipPath id="clip0_2888_47446">
<rect width="18" height="18" fill="white" transform="translate(540 786)"/>
</clipPath>
</defs>
</svg>
