<svg width="24" height="24" viewBox="0 0 24 24" fill="none" xmlns="http://www.w3.org/2000/svg">
<path d="M2 12C2 17.5228 6.47715 22 12 22C17.5228 22 22 17.5228 22 12C22 6.47715 17.5228 2 12 2C6.47715 2 2 6.47715 2 12Z" stroke="#131927" stroke-width="1.5" stroke-linecap="round" stroke-linejoin="round"/>
<path d="M13 2.04688C13 2.04688 16 5.9975 16 11.9975C16 17.9975 13 21.9481 13 21.9481" stroke="#131927" stroke-width="1.5" stroke-linecap="round" stroke-linejoin="round"/>
<path d="M11 21.9481C11 21.9481 8 17.9975 8 11.9975C8 5.9975 11 2.04688 11 2.04688" stroke="#131927" stroke-width="1.5" stroke-linecap="round" stroke-linejoin="round"/>
<path d="M2.62891 15.5H21.3697" stroke="#131927" stroke-width="1.5" stroke-linecap="round" stroke-linejoin="round"/>
<path d="M2.62891 8.5H21.3697" stroke="#131927" stroke-width="1.5" stroke-linecap="round" stroke-linejoin="round"/>
</svg>
