<svg width="24" height="24" viewBox="0 0 24 24" fill="none" xmlns="http://www.w3.org/2000/svg">
<path d="M20 5.25C20.4142 5.25 20.75 5.58579 20.75 6V18.001C20.7498 18.4151 20.4141 18.751 20 18.751C19.5859 18.751 19.2502 18.4151 19.25 18.001V6C19.25 5.58579 19.5858 5.25001 20 5.25ZM11.7578 7.39258C12.4215 7.07202 13.0566 7.34966 13.5332 7.65137C14.0115 7.95414 14.5843 8.44612 15.2617 9.02832C15.2772 9.04167 15.293 9.05492 15.3086 9.06836L16.1943 9.83008C16.207 9.84095 16.2199 9.85151 16.2324 9.8623C16.6319 10.2055 16.9906 10.5135 17.2422 10.8008C17.5165 11.114 17.7519 11.4995 17.752 12.001C17.752 12.5025 17.5165 12.8879 17.2422 13.2012C16.9906 13.4885 16.6319 13.7964 16.2324 14.1396C16.2198 14.1505 16.207 14.162 16.1943 14.1729L15.2617 14.9746C14.5843 15.5568 14.0115 16.0488 13.5332 16.3516C13.0566 16.6532 12.4213 16.9299 11.7578 16.6094C11.1052 16.294 10.9113 15.6322 10.832 15.0693C10.7519 14.5 10.7519 13.7342 10.752 12.8223V12.751H4.00195C3.58774 12.751 3.25195 12.4152 3.25195 12.001C3.25203 11.5868 3.58779 11.251 4.00195 11.251H10.752V11.1797C10.7519 10.2676 10.7519 9.50199 10.832 8.93262C10.9113 8.36968 11.1051 7.70792 11.7578 7.39258ZM12.4131 8.75781C12.389 8.80536 12.3494 8.91414 12.3174 9.1416C12.2537 9.59346 12.252 10.2521 12.252 11.2402V12.7627C12.252 13.7505 12.2538 14.4085 12.3174 14.8604C12.3494 15.0878 12.389 15.1966 12.4131 15.2441C12.4628 15.2307 12.5613 15.1917 12.7314 15.084C13.1053 14.8473 13.5939 14.4294 14.3311 13.7959L15.2168 13.0352C15.6662 12.6489 15.9407 12.41 16.1133 12.2129C16.1934 12.1214 16.2279 12.0646 16.2422 12.0342C16.2521 12.0131 16.252 12.006 16.252 12.002V12C16.252 11.9959 16.2519 11.9886 16.2422 11.9678C16.2279 11.9374 16.1934 11.8806 16.1133 11.7891C15.9407 11.5921 15.666 11.3538 15.2168 10.9678L14.3311 10.2061C13.5938 9.57247 13.1053 9.15463 12.7314 8.91797C12.5612 8.81023 12.4628 8.77123 12.4131 8.75781Z" fill="#333333"/>
</svg>
