<svg width="210" height="197" viewBox="0 0 210 197" fill="none" xmlns="http://www.w3.org/2000/svg">
<path d="M12.3327 90.272L13.204 106.28C13.2193 106.554 13.3384 106.812 13.5371 107.001C13.7358 107.19 13.9992 107.297 14.2737 107.299L43.0801 107.511C43.2221 107.512 43.363 107.485 43.4947 107.432C43.6263 107.378 43.7462 107.299 43.8473 107.2C43.9484 107.1 44.0287 106.981 44.0838 106.85C44.1389 106.719 44.1675 106.579 44.1681 106.436L44.2603 93.9881C44.2616 93.8456 44.2346 93.7044 44.1809 93.5724C44.1272 93.4404 44.0479 93.3204 43.9476 93.2193C43.8473 93.1181 43.728 93.0378 43.5965 92.983C43.465 92.9282 43.3239 92.9 43.1815 92.9H25.4634C25.3218 92.9002 25.1816 92.8722 25.051 92.8176C24.9203 92.7629 24.8019 92.6828 24.7026 92.5819L21.6459 89.5298C21.4458 89.3279 21.1739 89.2135 20.8897 89.2116L13.4207 89.1563C13.2751 89.155 13.1308 89.1831 12.9963 89.2391C12.8619 89.295 12.7402 89.3776 12.6385 89.4819C12.5368 89.5861 12.4573 89.7099 12.4048 89.8457C12.3522 89.9815 12.3277 90.1265 12.3327 90.272Z" fill="#EBEBEB"/>
<path d="M44.2836 91.012L12.8086 90.7812L12.6707 109.587L44.1457 109.818L44.2836 91.012Z" fill="#F5F5F5"/>
<path d="M10.2906 92.4464L12.5497 112.078C12.5699 112.246 12.6508 112.401 12.7773 112.514C12.9038 112.627 13.0671 112.69 13.2367 112.691L43.9103 112.917C44.0856 112.92 44.2554 112.856 44.3848 112.737C44.5143 112.619 44.5936 112.456 44.6065 112.281L46.2939 92.6816C46.3022 92.586 46.2906 92.4898 46.2599 92.3989C46.2292 92.308 46.1801 92.2245 46.1156 92.1535C46.0511 92.0825 45.9726 92.0256 45.8851 91.9863C45.7976 91.9471 45.7029 91.9264 45.607 91.9255L10.9821 91.6719C10.8841 91.6719 10.7872 91.6926 10.6977 91.7327C10.6083 91.7728 10.5283 91.8313 10.463 91.9044C10.3977 91.9775 10.3486 92.0636 10.3189 92.157C10.2892 92.2504 10.2795 92.349 10.2906 92.4464Z" fill="#EBEBEB"/>
<path d="M143.119 93.037L143.871 106.822C143.883 107.059 143.985 107.282 144.157 107.445C144.328 107.608 144.556 107.699 144.793 107.698L169.597 107.883C169.842 107.883 170.076 107.786 170.249 107.613C170.422 107.44 170.519 107.205 170.519 106.961L170.598 96.232C170.598 95.9875 170.501 95.7529 170.328 95.58C170.155 95.4071 169.92 95.3099 169.676 95.3099H154.424C154.302 95.3106 154.18 95.2869 154.067 95.2402C153.954 95.1935 153.851 95.1248 153.765 95.0379L151.141 92.373C150.969 92.1999 150.735 92.102 150.491 92.101L144.06 92.0549C143.932 92.0521 143.805 92.0759 143.687 92.1248C143.568 92.1737 143.462 92.2466 143.373 92.339C143.285 92.4313 143.217 92.5411 143.173 92.6612C143.129 92.7814 143.111 92.9093 143.119 93.037Z" fill="#EBEBEB"/>
<path d="M170.629 93.6752L143.529 93.4766L143.411 109.673L170.51 109.871L170.629 93.6752Z" fill="#F5F5F5"/>
<path d="M141.362 94.9185L143.303 111.821C143.319 111.966 143.388 112.101 143.497 112.198C143.606 112.296 143.747 112.351 143.894 112.351L170.307 112.544C170.458 112.545 170.603 112.489 170.714 112.387C170.825 112.286 170.894 112.146 170.906 111.996L172.359 95.1214C172.366 95.0392 172.357 94.9562 172.331 94.8779C172.305 94.7995 172.262 94.7274 172.207 94.6663C172.151 94.6051 172.084 94.5562 172.008 94.5226C171.933 94.4891 171.851 94.4716 171.769 94.4713L141.957 94.25C141.873 94.2501 141.789 94.268 141.712 94.3027C141.635 94.3373 141.566 94.3878 141.51 94.451C141.454 94.5141 141.412 94.5884 141.386 94.669C141.361 94.7495 141.353 94.8346 141.362 94.9185Z" fill="#EBEBEB"/>
<path d="M192.645 2.70312H148.564V75.6688H192.645V2.70312Z" fill="#E0E0E0"/>
<path d="M191.179 2.70312H147.098V75.6688H191.179V2.70312Z" fill="#EBEBEB"/>
<path d="M189.303 4.1875H148.975V74.1933H189.303V4.1875Z" fill="white"/>
<path d="M181.447 13.2812H156.651V65.094H181.447V13.2812Z" fill="#EBEBEB"/>
<path d="M156.673 46.7636C156.618 41.9225 160.97 37.1968 165.761 36.519C168.066 36.2009 170.477 36.6527 172.612 35.7767C176.425 34.2138 177.637 29.1515 181.473 27.6484L181.648 65.0949H156.673V46.7636Z" fill="#E0E0E0"/>
<path d="M190.096 96.1885C190.096 96.1885 186.444 95.9257 186.781 104.119C187.117 112.311 187.952 116.668 187.952 116.668C187.952 116.668 187.846 118.485 186.439 118.13C185.033 117.775 182.387 116.004 181.082 117.328C179.777 118.651 180.206 120.799 182.004 123.275C183.802 125.751 187.537 131.316 187.878 131.823C188.219 132.33 188.339 133.248 187.343 133.155C186.347 133.063 179.616 130.786 178.726 134.045C177.836 137.305 183.977 143.377 184.637 144.05C185.296 144.723 185.328 145.157 185.061 145.567C184.794 145.977 182.604 144.995 180.663 144.423C178.721 143.852 176.375 143.534 176.015 145.456C175.656 147.379 178.366 153.004 188.496 158.919L193.369 161.353L197.98 158.412C207.468 151.496 209.593 145.645 209.045 143.769C208.496 141.892 206.191 142.446 204.314 143.206C202.438 143.967 200.363 145.161 200.054 144.778C199.745 144.396 199.741 143.972 200.326 143.229C200.912 142.487 206.417 135.853 205.204 132.685C203.992 129.518 197.528 132.473 196.541 132.662C195.554 132.851 195.619 131.911 195.877 131.385C196.135 130.859 199.326 124.93 200.866 122.293C202.406 119.656 202.678 117.512 201.188 116.299C199.699 115.087 197.302 117.139 195.937 117.632C194.572 118.125 194.287 116.332 194.287 116.332C194.287 116.332 194.683 111.91 194.199 103.727C193.715 95.543 190.017 96.2023 190.017 96.2023" fill="#EBEBEB"/>
<path d="M190.386 103.523C190.386 103.523 190.386 103.583 190.386 103.694C190.386 103.805 190.386 103.984 190.427 104.197C190.455 104.658 190.501 105.298 190.556 106.133C190.667 107.811 190.81 110.246 190.976 113.252C191.312 119.245 191.704 127.544 192.101 136.742C192.497 145.94 192.875 154.23 193.175 160.256C193.327 163.257 193.452 165.687 193.534 167.374C193.576 168.209 193.608 168.859 193.631 169.311C193.631 169.527 193.631 169.693 193.654 169.813V169.988C193.654 169.988 193.654 169.928 193.631 169.813C193.608 169.698 193.631 169.527 193.594 169.311C193.562 168.85 193.521 168.213 193.465 167.379C193.35 165.701 193.207 163.266 193.041 160.26C192.709 154.267 192.317 145.968 191.916 136.747C191.515 127.526 191.146 119.264 190.847 113.233C190.694 110.232 190.57 107.802 190.482 106.115C190.441 105.28 190.409 104.63 190.386 104.178C190.386 103.961 190.386 103.795 190.386 103.676C190.383 103.625 190.383 103.574 190.386 103.523Z" fill="#E0E0E0"/>
<path d="M184.682 119.945C184.792 120.018 184.894 120.103 184.986 120.199C185.17 120.369 185.447 120.623 185.756 120.941C186.401 121.577 187.264 122.481 188.199 123.495L190.583 126.105L191.312 126.889C191.407 126.98 191.492 127.082 191.565 127.193C191.454 127.123 191.352 127.039 191.261 126.944C191.072 126.773 190.8 126.515 190.491 126.197C189.85 125.552 188.997 124.639 188.066 123.624L185.664 121.033L184.935 120.25C184.838 120.159 184.753 120.057 184.682 119.945Z" fill="#E0E0E0"/>
<path d="M192.05 127.033C192.013 126.996 193.793 125.128 196.029 122.883C198.265 120.638 200.105 118.807 200.142 118.844C200.179 118.881 198.394 120.748 196.163 122.994C193.931 125.239 192.087 127.069 192.05 127.033Z" fill="#E0E0E0"/>
<path d="M192.026 141.158C192.131 141.072 192.245 140.999 192.368 140.941L193.322 140.406C194.124 139.945 195.231 139.327 196.429 138.59C197.628 137.852 198.693 137.156 199.463 136.64L200.385 136.036C200.492 135.954 200.608 135.884 200.731 135.828C200.641 135.929 200.539 136.017 200.427 136.091C200.224 136.252 199.924 136.478 199.551 136.75C198.804 137.29 197.748 138.014 196.545 138.747C195.341 139.48 194.216 140.097 193.396 140.522C192.985 140.734 192.649 140.9 192.414 141.006C192.29 141.069 192.16 141.12 192.026 141.158Z" fill="#E0E0E0"/>
<path d="M183.954 136.211C184.074 136.246 184.187 136.299 184.291 136.368C184.503 136.483 184.807 136.649 185.176 136.861C185.918 137.281 186.937 137.875 188.053 138.539C189.169 139.203 190.183 139.816 190.907 140.268L191.76 140.808C191.867 140.871 191.968 140.945 192.059 141.029C191.94 140.993 191.827 140.94 191.723 140.872C191.511 140.762 191.211 140.591 190.838 140.379C190.095 139.959 189.076 139.365 187.961 138.701C186.845 138.037 185.835 137.423 185.107 136.972L184.254 136.432C184.146 136.369 184.046 136.295 183.954 136.211Z" fill="#E0E0E0"/>
<path d="M182.354 148.68C182.502 148.737 182.645 148.806 182.782 148.887L183.916 149.514C184.871 150.049 186.18 150.801 187.605 151.64C189.03 152.479 190.348 153.249 191.293 153.811L192.395 154.489C192.535 154.564 192.666 154.654 192.787 154.756C192.636 154.704 192.492 154.635 192.358 154.549L191.252 153.926C190.302 153.392 188.988 152.64 187.563 151.801C186.139 150.962 184.797 150.183 183.875 149.629L182.768 148.952C182.621 148.876 182.482 148.785 182.354 148.68Z" fill="#E0E0E0"/>
<path d="M192.589 154.543C192.719 154.432 192.861 154.336 193.013 154.257L194.198 153.538C195.198 152.929 196.577 152.081 198.071 151.104C199.565 150.126 200.902 149.218 201.861 148.545L202.999 147.756C203.133 147.651 203.276 147.56 203.428 147.484C203.309 147.607 203.18 147.718 203.041 147.816C202.787 148.019 202.409 148.305 201.939 148.655C200.994 149.352 199.671 150.288 198.172 151.26C196.674 152.233 195.281 153.068 194.262 153.649C193.755 153.939 193.34 154.17 193.05 154.322C192.903 154.408 192.748 154.482 192.589 154.543Z" fill="#E0E0E0"/>
<path d="M199.916 162.953H186.435L190.833 196.259H195.513L199.916 162.953Z" fill="#E0E0E0"/>
<path d="M187.131 167.045C187.148 167.088 187.173 167.127 187.205 167.16C187.291 167.265 187.402 167.345 187.527 167.395C187.76 167.479 188.009 167.508 188.255 167.481C188.502 167.454 188.738 167.371 188.947 167.238C189.491 166.939 189.966 166.349 190.695 166.086C191.504 165.826 192.377 165.844 193.175 166.137C193.986 166.415 194.761 166.791 195.48 167.257C196.083 167.633 196.71 167.969 197.357 168.262C197.798 168.458 198.263 168.593 198.74 168.663C198.87 168.681 199.001 168.69 199.132 168.691C199.22 168.691 199.27 168.691 199.27 168.691C198.632 168.593 198.011 168.405 197.426 168.133C196.792 167.823 196.176 167.476 195.582 167.096C194.852 166.611 194.064 166.222 193.235 165.938C192.392 165.635 191.471 165.625 190.621 165.911C190.261 166.058 189.928 166.264 189.634 166.519C189.391 166.735 189.133 166.935 188.864 167.119C188.675 167.249 188.459 167.338 188.233 167.377C188.006 167.417 187.773 167.407 187.55 167.349C187.394 167.273 187.251 167.17 187.131 167.045Z" fill="#F5F5F5"/>
<path d="M187.624 173.17C187.624 173.17 187.73 173.032 187.942 172.815C188.246 172.512 188.613 172.279 189.016 172.133C189.616 171.912 190.254 171.814 190.893 171.847C191.681 171.908 192.464 172.016 193.239 172.17C194.031 172.322 194.841 172.355 195.642 172.266C196.295 172.184 196.933 172.002 197.532 171.727C197.933 171.544 198.313 171.318 198.666 171.054C198.803 170.965 198.924 170.855 199.026 170.727C198.531 171.055 198.01 171.342 197.467 171.584C196.878 171.831 196.257 171.994 195.623 172.068C194.839 172.14 194.049 172.101 193.276 171.953C192.493 171.796 191.699 171.693 190.902 171.644C190.24 171.623 189.581 171.739 188.966 171.985C188.549 172.153 188.177 172.417 187.882 172.755C187.806 172.849 187.738 172.949 187.679 173.055C187.633 173.129 187.619 173.166 187.624 173.17Z" fill="#F5F5F5"/>
<path d="M198.385 176.455C198.277 176.366 198.151 176.3 198.016 176.261C197.657 176.126 197.279 176.045 196.896 176.021C196.332 175.984 195.765 176.016 195.209 176.118C194.582 176.22 193.908 176.39 193.198 176.542C192.541 176.697 191.868 176.773 191.193 176.768C190.644 176.754 190.103 176.637 189.598 176.422C189.136 176.212 188.724 175.905 188.39 175.523C188.44 175.656 188.517 175.777 188.616 175.878C188.874 176.167 189.187 176.401 189.538 176.565C190.055 176.811 190.616 176.949 191.188 176.971C191.881 176.988 192.574 176.917 193.249 176.759C193.964 176.607 194.632 176.427 195.245 176.298C195.788 176.195 196.339 176.147 196.891 176.155C197.4 176.19 197.902 176.29 198.385 176.455Z" fill="#F5F5F5"/>
<path d="M188.813 181.068C189.227 180.893 189.683 180.848 190.123 180.939C190.603 181.054 191.067 181.225 191.506 181.451C192.066 181.718 192.668 181.883 193.286 181.94C194.413 182.039 195.544 181.778 196.513 181.193C196.802 181.017 197.072 180.81 197.315 180.575C197.408 180.492 197.489 180.395 197.555 180.289C197.19 180.569 196.81 180.829 196.416 181.068C195.462 181.591 194.374 181.82 193.29 181.728C192.013 181.654 191.036 180.893 190.151 180.805C189.809 180.746 189.458 180.776 189.132 180.893C189.013 180.924 188.903 180.984 188.813 181.068Z" fill="#F5F5F5"/>
<path d="M189.565 187.472C189.952 187.482 190.336 187.406 190.69 187.251C191.368 187.02 192.207 186.504 193.185 186.112C193.641 185.929 194.127 185.827 194.619 185.812C195.018 185.813 195.411 185.903 195.771 186.075C196.097 186.253 196.381 186.498 196.606 186.794C196.588 186.691 196.543 186.594 196.477 186.513C196.314 186.276 196.097 186.08 195.845 185.941C195.471 185.732 195.052 185.618 194.623 185.609C194.103 185.611 193.588 185.713 193.106 185.909C192.092 186.315 191.262 186.831 190.635 187.103C190.008 187.375 189.561 187.435 189.565 187.472Z" fill="#F5F5F5"/>
<path d="M190.229 190.446C190.498 190.579 190.785 190.673 191.081 190.723C192.488 191.061 193.933 191.204 195.378 191.147C195.679 191.153 195.978 191.118 196.268 191.041C196.268 190.972 194.885 191.041 193.235 190.866C191.584 190.691 190.242 190.382 190.229 190.446Z" fill="#F5F5F5"/>
<path d="M49.4883 10.6953H5.42578V74.5599H49.4883V10.6953Z" fill="#E0E0E0"/>
<path d="M47.2803 10.6953H3.21777V74.5599H47.2803V10.6953Z" fill="#F5F5F5"/>
<path d="M41.804 17.6094H8.69141V67.6379H41.804V17.6094Z" fill="white"/>
<path d="M41.8023 67.6544C41.8023 67.6544 41.8023 67.5668 41.8023 67.41C41.8023 67.2533 41.8023 67.0089 41.8023 66.7C41.8023 66.0684 41.8023 65.1509 41.8023 63.9337C41.8023 61.5363 41.8023 58.0461 41.7747 53.6293C41.7747 44.8094 41.7424 32.3149 41.7193 17.6028L41.83 17.7135L8.67592 17.7319L8.79579 17.6121C8.79579 36.4874 8.79579 53.8874 8.79579 67.6452L8.69897 67.5483L32.8026 67.5991L39.4602 67.6221H41.2076H41.8116H41.226H39.4971H32.8626L8.67592 67.7374H8.5791V67.6544C8.5791 53.8967 8.5791 36.4967 8.5791 17.6213V17.4922H8.67592H41.7839H41.8945V17.6028C41.8945 32.3564 41.853 44.8601 41.8392 53.703C41.8392 58.106 41.8392 61.5916 41.8116 63.9844C41.8116 65.1693 41.8116 66.0822 41.8116 66.7046C41.8116 67.0089 41.8116 67.2394 41.8116 67.4008C41.8116 67.5622 41.8023 67.6544 41.8023 67.6544Z" fill="#E0E0E0"/>
<path d="M47.4055 10.6953C47.1804 11.0986 46.918 11.4799 46.6217 11.8341C46.1099 12.5211 45.3815 13.4524 44.5562 14.4575C43.7309 15.4626 42.9517 16.357 42.3754 16.9886C42.0845 17.3487 41.7603 17.6806 41.4072 17.9799C41.6546 17.5891 41.9354 17.2204 42.2463 16.878L44.3672 14.3053C45.174 13.3325 45.8979 12.4611 46.488 11.7327C46.7638 11.3614 47.0707 11.0144 47.4055 10.6953Z" fill="#E0E0E0"/>
<path d="M41.9746 67.4766C43.6198 70.0936 45.5563 72.5157 47.747 74.6966L41.9746 67.4766Z" fill="white"/>
<path d="M47.747 74.698C47.3812 74.426 47.0443 74.117 46.7419 73.7759C45.207 72.2089 43.8338 70.4912 42.6431 68.649C42.3787 68.2807 42.1545 67.885 41.9746 67.4688C42.2755 67.8149 42.5498 68.1833 42.7953 68.5707C43.2563 69.253 43.9617 70.1843 44.7593 71.1802C45.557 72.1761 46.3177 73.0244 46.8756 73.6699C47.1913 73.9903 47.4826 74.334 47.747 74.698Z" fill="#E0E0E0"/>
<path d="M3.20898 74.506L8.98133 67.3828L3.20898 74.506Z" fill="white"/>
<path d="M8.98171 67.3828C8.1248 68.6436 7.2014 69.8579 6.21541 71.0205C5.28461 72.2352 4.28883 73.3988 3.23242 74.506C4.09302 73.2497 5.01789 72.0386 6.00333 70.8776C6.93625 69.6629 7.93033 68.4965 8.98171 67.3828Z" fill="#E0E0E0"/>
<path d="M3.21777 10.6953C4.21103 11.7591 5.14529 12.8765 6.01634 14.0425C6.95385 15.1581 7.82666 16.3265 8.6305 17.5419C7.63605 16.4711 6.70176 15.3459 5.83193 14.1716C4.89748 13.0617 4.02477 11.9011 3.21777 10.6953Z" fill="#E0E0E0"/>
<path d="M31.4896 27.7656H20.4014V59.2461H31.4896V27.7656Z" fill="#E0E0E0"/>
<path d="M104.71 0.0078125H70.0801V36.108H104.71V0.0078125Z" fill="#E0E0E0"/>
<path d="M102.362 0.0078125H67.7324V36.108H102.362V0.0078125Z" fill="#FAFAFA"/>
<path d="M102.375 36.1232H67.7227V0H102.375V36.1232ZM67.7457 36.1002H102.352V0.0230521H67.7457V36.1002Z" fill="#E0E0E0"/>
<path d="M97.7105 4.86719H72.3896V31.2623H97.7105V4.86719Z" fill="white"/>
<path d="M72.3892 31.4297C72.2094 31.6934 72.0007 31.9362 71.7668 32.1535C71.3611 32.5823 70.794 33.1586 70.1532 33.7857C69.5123 34.4127 68.9314 34.9752 68.5026 35.3717C68.2837 35.6034 68.0375 35.8077 67.7695 35.9802C67.9471 35.7148 68.1561 35.4717 68.392 35.2564C68.7931 34.8322 69.3648 34.2513 70.0056 33.6243C70.6465 32.9973 71.2274 32.4348 71.6608 32.0337C71.8791 31.8045 72.1236 31.6018 72.3892 31.4297Z" fill="#E0E0E0"/>
<path d="M97.71 31.3672C97.9747 31.5475 98.219 31.7562 98.4384 31.9896C98.8626 32.3953 99.4389 32.9624 100.071 33.5987C100.702 34.2349 101.255 34.8251 101.652 35.2538C101.884 35.4727 102.088 35.7189 102.261 35.9869C101.995 35.8093 101.752 35.6004 101.537 35.3645C101.113 34.9588 100.532 34.3917 99.9046 33.7508C99.2775 33.11 98.715 32.529 98.3185 32.0956C98.0873 31.878 97.883 31.6335 97.71 31.3672Z" fill="#E0E0E0"/>
<path d="M97.6592 4.9472C97.8399 4.6828 98.0503 4.43994 98.2862 4.22336C98.6873 3.79458 99.2544 3.21827 99.8953 2.59124C100.536 1.96421 101.117 1.40173 101.546 1.00523C101.761 0.769265 102.004 0.560267 102.27 0.382812C102.092 0.648282 101.883 0.891326 101.647 1.10666C101.246 1.53544 100.674 2.11175 100.034 2.74339C99.3927 3.37503 98.8118 3.93289 98.3784 4.3294C98.1638 4.56286 97.9224 4.77022 97.6592 4.9472Z" fill="#E0E0E0"/>
<path d="M72.3015 4.99472C72.034 4.81808 71.7893 4.60902 71.5731 4.3723C71.1489 3.96658 70.5726 3.39949 69.9456 2.76324C69.3185 2.12699 68.7561 1.54146 68.3596 1.10807C68.1279 0.889155 67.9235 0.64301 67.751 0.375C68.0164 0.552563 68.2595 0.761549 68.4748 0.997416C68.899 1.40314 69.4799 1.97023 70.1069 2.61109C70.734 3.25195 71.2964 3.83748 71.6976 4.26626C71.9267 4.48457 72.1294 4.72907 72.3015 4.99472Z" fill="#E0E0E0"/>
<path d="M97.6595 31.2638C97.6595 31.2638 97.6595 31.2177 97.6595 31.1347C97.6595 31.0517 97.6595 30.9226 97.6595 30.7659C97.6595 30.4339 97.6595 29.959 97.6595 29.3412C97.6595 28.0918 97.6595 26.2706 97.6595 23.9608C97.6595 19.3503 97.6272 12.7527 97.6088 4.86872L97.6595 4.95171H72.4124L72.5231 4.84105C72.5231 14.5231 72.5231 23.5919 72.5231 31.2361L72.4262 31.1393L90.7115 31.19L95.8153 31.2315H97.1708H97.5212H97.1984H95.8568H90.7437L72.3986 31.2822H72.3018V31.1854C72.3018 23.5412 72.3018 14.477 72.3018 4.79034V4.67969H72.417H97.6641H97.7609V4.77651C97.7609 12.6881 97.724 19.295 97.7102 23.9331C97.7102 26.2384 97.7102 28.0457 97.6871 29.2905C97.6871 29.8991 97.6871 30.3694 97.6871 30.6967C97.6871 30.8489 97.6871 30.9641 97.6871 31.0517C97.6848 31.1231 97.6756 31.1942 97.6595 31.2638Z" fill="#E0E0E0"/>
<path d="M89.2772 13.8359H80.8262V22.287H89.2772V13.8359Z" fill="#EBEBEB"/>
<path d="M51.9883 145.98L52.8551 161.9C52.8692 162.173 52.9873 162.431 53.1853 162.621C53.3832 162.81 53.6461 162.917 53.9201 162.919L82.5651 163.126C82.7062 163.127 82.8461 163.101 82.9769 163.048C83.1077 162.995 83.2268 162.917 83.3274 162.818C83.428 162.719 83.5082 162.601 83.5633 162.472C83.6184 162.342 83.6474 162.202 83.6486 162.061L83.7408 149.668C83.7414 149.526 83.7141 149.386 83.6604 149.255C83.6068 149.124 83.5278 149.005 83.4281 148.904C83.3283 148.803 83.2097 148.723 83.079 148.669C82.9484 148.614 82.8082 148.585 82.6665 148.585H65.0452C64.9044 148.584 64.7651 148.556 64.6353 148.501C64.5055 148.447 64.3878 148.367 64.2891 148.267L61.2462 145.228C61.0457 145.03 60.7763 144.918 60.4947 144.915L53.0671 144.859C52.9217 144.859 52.7777 144.887 52.6437 144.944C52.5097 145.001 52.3886 145.084 52.2877 145.188C52.1869 145.293 52.1083 145.417 52.0568 145.553C52.0054 145.689 51.9821 145.834 51.9883 145.98Z" fill="#EBEBEB"/>
<path d="M83.7598 146.714L52.46 146.484L52.3228 165.189L83.6227 165.418L83.7598 146.714Z" fill="#F5F5F5"/>
<path d="M49.9586 148.145L52.2039 167.67C52.2231 167.838 52.3033 167.992 52.4291 168.105C52.5549 168.217 52.7176 168.279 52.8862 168.279L83.3893 168.505C83.5633 168.506 83.7312 168.441 83.8601 168.324C83.9889 168.207 84.0693 168.046 84.0855 167.873L85.7637 148.38C85.7713 148.285 85.7592 148.189 85.7282 148.099C85.6972 148.008 85.648 147.925 85.5835 147.855C85.5191 147.785 85.4409 147.728 85.3537 147.689C85.2665 147.65 85.1722 147.63 85.0767 147.629L50.6317 147.375C50.5355 147.377 50.4407 147.399 50.3534 147.44C50.2662 147.48 50.1884 147.539 50.125 147.611C50.0617 147.684 50.0141 147.769 49.9855 147.861C49.9568 147.952 49.9476 148.049 49.9586 148.145Z" fill="#EBEBEB"/>
<path d="M101.757 154.949L102.624 170.924C102.638 171.198 102.756 171.456 102.954 171.645C103.152 171.835 103.415 171.941 103.689 171.943L132.398 172.155C132.54 172.156 132.681 172.13 132.812 172.077C132.943 172.024 133.063 171.945 133.164 171.846C133.265 171.746 133.346 171.628 133.401 171.498C133.456 171.367 133.485 171.227 133.487 171.086L133.579 158.665C133.579 158.523 133.552 158.382 133.498 158.251C133.444 158.119 133.365 158 133.264 157.899C133.164 157.798 133.045 157.719 132.914 157.664C132.783 157.61 132.642 157.581 132.5 157.581H114.842C114.7 157.582 114.561 157.555 114.43 157.501C114.299 157.447 114.181 157.368 114.081 157.268L111.038 154.22C110.836 154.022 110.565 153.909 110.282 153.907L102.841 153.852C102.697 153.85 102.554 153.878 102.421 153.933C102.288 153.988 102.168 154.069 102.067 154.171C101.966 154.273 101.886 154.395 101.833 154.529C101.78 154.662 101.754 154.805 101.757 154.949Z" fill="#EBEBEB"/>
<path d="M133.596 155.691L102.227 155.461L102.089 174.207L133.458 174.437L133.596 155.691Z" fill="#F5F5F5"/>
<path d="M99.7198 157.122L101.974 176.689C101.993 176.857 102.073 177.012 102.199 177.125C102.325 177.238 102.488 177.301 102.657 177.302L133.229 177.528C133.403 177.527 133.571 177.462 133.7 177.344C133.829 177.227 133.909 177.065 133.925 176.891L135.608 157.357C135.615 157.262 135.603 157.166 135.572 157.076C135.541 156.985 135.492 156.902 135.428 156.832C135.363 156.761 135.285 156.705 135.198 156.666C135.111 156.627 135.016 156.606 134.921 156.605L100.425 156.352C100.326 156.35 100.228 156.369 100.138 156.408C100.047 156.447 99.9654 156.505 99.8987 156.577C99.832 156.65 99.7815 156.736 99.7507 156.83C99.7198 156.924 99.7093 157.023 99.7198 157.122Z" fill="#EBEBEB"/>
<path d="M31.0648 127.976C26.3344 120.746 27.026 110.419 32.6508 103.881C34.4028 101.852 36.851 100.087 39.5251 100.317C42.1992 100.548 44.4629 102.894 45.2974 105.513C46.1319 108.132 45.8368 110.963 45.3481 113.665C44.6658 117.445 43.5039 121.313 40.8944 124.126C38.2848 126.938 34.4397 129.82 31.0464 127.976" fill="#7C663C"/>
<path d="M32.4942 162.778C31.6451 160.676 31.4789 158.36 32.0193 156.158C32.5596 153.956 33.7791 151.98 35.5049 150.51C36.593 149.62 38.013 148.933 39.3685 149.293C40.724 149.652 41.6737 151.072 41.872 152.492C42.0702 153.913 41.6553 155.351 41.162 156.697C40.4658 158.588 39.5252 160.478 37.9346 161.686C36.344 162.894 34.0802 164.033 32.5127 162.778" fill="#7C663C"/>
<path d="M22.2766 160.297C23.5768 153.87 20.2019 146.816 14.3973 143.8C12.5946 142.878 10.3815 142.307 8.56498 143.219C6.74845 144.132 5.79869 146.415 5.96005 148.489C6.12142 150.564 7.10346 152.487 8.21459 154.239C9.75449 156.705 11.6448 159.107 14.2774 160.347C16.91 161.588 20.4324 162.542 22.2858 160.297" fill="#7C663C"/>
<path d="M23.0967 142.957C25.3604 135.654 21.5245 126.82 15.1251 122.611C13.1426 121.311 10.6299 120.407 8.41224 121.228C6.19459 122.049 4.8345 124.626 4.76534 127.056C4.69618 129.485 5.6275 131.823 6.70175 134.004C8.20477 137.056 10.1227 140.071 13.0366 141.841C15.9504 143.612 20.6762 145.345 23.0967 142.953" fill="#7C663C"/>
<path d="M26.4593 178.655C26.421 178.541 26.3962 178.424 26.3856 178.304C26.3441 178.037 26.2934 177.7 26.2334 177.285C26.2012 177.06 26.1689 176.824 26.132 176.548C26.0951 176.271 26.0213 175.99 25.9614 175.681C25.8462 175.059 25.7217 174.344 25.5004 173.574C25.4035 173.182 25.3067 172.776 25.2053 172.357C25.1039 171.937 24.9563 171.504 24.8226 171.052C24.5783 170.13 24.2186 169.208 23.9005 168.207C23.0917 166.069 22.1509 163.982 21.0835 161.96C19.9882 159.957 18.7703 158.023 17.4366 156.169C16.7911 155.34 16.2102 154.519 15.5924 153.813L14.721 152.776L13.8681 151.854C13.3379 151.255 12.8123 150.761 12.3558 150.319L11.7288 149.696L11.1709 149.208L10.4056 148.516C10.2304 148.355 10.1428 148.267 10.152 148.258C10.2552 148.319 10.3524 148.39 10.4425 148.47L11.2493 149.115L11.8256 149.576L12.4757 150.176C12.9368 150.609 13.4808 151.098 14.0248 151.688L14.8962 152.61L15.7907 153.643C16.4223 154.344 17.0171 155.16 17.6717 155.994C19.027 157.854 20.2591 159.801 21.3601 161.822C22.4352 163.857 23.3747 165.961 24.1725 168.12C24.5045 169.13 24.8595 170.075 25.0946 170.988C25.2237 171.449 25.3436 171.882 25.4635 172.306C25.5834 172.73 25.6525 173.141 25.7401 173.533C25.9338 174.312 26.0398 175.031 26.1412 175.658C26.1919 175.971 26.2427 176.262 26.2842 176.534C26.3256 176.806 26.3395 177.05 26.3625 177.276C26.3994 177.696 26.4317 178.037 26.4547 178.304C26.4679 178.421 26.4694 178.538 26.4593 178.655Z" fill="#263238"/>
<path d="M26.2936 179.97C26.2875 179.921 26.2875 179.871 26.2936 179.822C26.2936 179.712 26.2936 179.573 26.3213 179.403C26.3582 179.006 26.4089 178.481 26.4734 177.78C26.5103 177.425 26.5472 177.033 26.5887 176.609C26.6302 176.185 26.6348 175.71 26.6578 175.226C26.6947 174.22 26.7916 173.077 26.7547 171.814C26.7547 171.182 26.7547 170.523 26.7547 169.831C26.7547 169.14 26.6855 168.425 26.6486 167.683C26.5979 166.198 26.3997 164.626 26.2199 162.962C25.7315 159.377 24.9826 155.833 23.9792 152.358C22.9243 148.886 21.6176 145.496 20.0695 142.214C19.3133 140.725 18.6218 139.291 17.8564 138.019C17.4784 137.378 17.1418 136.742 16.7729 136.175C16.4041 135.608 16.0537 135.017 15.6895 134.501C15.0302 133.418 14.3063 132.514 13.7531 131.693C13.458 131.288 13.1906 130.905 12.9324 130.559C12.6742 130.213 12.416 129.923 12.1947 129.637L11.185 128.36C11.0836 128.222 10.996 128.111 10.9268 128.023C10.8577 127.936 10.8438 127.903 10.8485 127.899C10.8531 127.894 10.89 127.931 10.9545 128L11.2311 128.318L12.2869 129.563L13.0477 130.485C13.3151 130.822 13.5871 131.205 13.8914 131.606C14.4815 132.417 15.2008 133.316 15.8739 134.372L16.9758 136.027C17.3539 136.608 17.695 137.244 18.0777 137.871C18.8569 139.144 19.5577 140.573 20.323 142.067C21.8951 145.343 23.2159 148.734 24.2742 152.21C25.2855 155.706 26.0299 159.274 26.5011 162.883C26.6717 164.552 26.8653 166.134 26.9068 167.623C26.9345 168.37 26.9944 169.089 26.9944 169.781C26.9944 170.472 26.9944 171.136 26.9944 171.772C26.9944 173.04 26.9022 174.184 26.8515 175.189C26.8146 175.691 26.7962 176.157 26.7547 176.572C26.7132 176.987 26.6532 177.392 26.6117 177.743L26.4043 179.361C26.4043 179.532 26.3582 179.67 26.3443 179.781C26.3365 179.846 26.3195 179.909 26.2936 179.97Z" fill="#263238"/>
<path d="M38.5985 109.055C38.5824 109.101 38.5624 109.146 38.5386 109.189L38.3311 109.567L37.5243 110.992C37.3537 111.305 37.1416 111.646 36.9434 112.034L36.3117 113.306C36.0812 113.767 35.8507 114.228 35.5833 114.763C35.3159 115.298 35.1222 115.851 34.841 116.437C34.5597 117.022 34.3016 117.635 34.0388 118.281C33.776 118.926 33.527 119.613 33.255 120.314C33.1213 120.669 32.983 121.024 32.8446 121.388L32.462 122.518C32.2084 123.279 31.941 124.062 31.6736 124.865C30.6685 128.092 29.7187 131.711 28.9073 135.543C28.0958 139.374 27.5795 143.09 27.1968 146.46C26.8141 149.83 26.5974 152.883 26.5283 155.446C26.4637 156.728 26.4499 157.89 26.4453 158.909C26.4407 159.927 26.4222 160.803 26.4453 161.523C26.4683 162.242 26.4453 162.772 26.4453 163.178C26.4453 163.348 26.4453 163.491 26.4453 163.607C26.4522 163.656 26.4522 163.705 26.4453 163.754C26.4386 163.705 26.4386 163.656 26.4453 163.607C26.4453 163.491 26.4453 163.353 26.4176 163.178C26.4176 162.777 26.3715 162.223 26.3392 161.527C26.307 160.831 26.2793 159.927 26.2793 158.909C26.2793 157.89 26.2793 156.723 26.3162 155.437C26.3577 152.869 26.5928 149.812 26.9202 146.428C27.2475 143.044 27.8423 139.346 28.626 135.501C29.4098 131.656 30.3872 128.041 31.3923 124.795C31.6644 123.993 31.9364 123.209 32.1946 122.444C32.3283 122.066 32.4574 121.688 32.5865 121.319L33.006 120.245L33.8128 118.212C34.0803 117.562 34.3707 116.953 34.6289 116.367C34.8871 115.782 35.1407 115.219 35.3942 114.698L36.1458 113.246L36.8051 111.983C37.0125 111.596 37.2292 111.259 37.409 110.95L38.2712 109.535C38.3634 109.387 38.4372 109.267 38.5017 109.171C38.5663 109.074 38.5939 109.051 38.5985 109.055Z" fill="#263238"/>
<path d="M36.989 153.406C36.8467 153.715 36.6786 154.011 36.4864 154.291C36.1406 154.84 35.6658 155.675 35.1033 156.68C34.5408 157.685 33.9322 158.948 33.3098 160.368C32.6874 161.788 32.1019 163.365 31.5716 165.057C31.0414 166.749 30.6495 168.404 30.3637 169.912C30.0778 171.419 29.9026 172.798 29.7689 173.955C29.6352 175.112 29.5845 176.058 29.5569 176.722C29.5577 177.06 29.53 177.398 29.4739 177.731C29.4341 177.395 29.4217 177.055 29.437 176.717C29.437 176.062 29.437 175.117 29.5522 173.951C29.6586 172.584 29.8356 171.223 30.0825 169.875C30.6821 166.564 31.679 163.338 33.0516 160.267C33.6879 158.856 34.3241 157.616 34.8958 156.601C35.4675 155.587 35.9839 154.785 36.3619 154.25C36.5492 153.953 36.7589 153.671 36.989 153.406Z" fill="#263238"/>
<path d="M17.1738 175.406H37.9395L35.4268 196.61H19.7603L17.1738 175.406Z" fill="#455A64"/>
<path d="M17.9346 194.328L19.6958 196.615H35.4268L37.2387 194.397L17.9346 194.328Z" fill="#263238"/>
<path d="M37.1269 181.637C37.1269 181.724 32.8207 181.793 27.5048 181.793C22.1889 181.793 17.8965 181.724 17.8965 181.637C17.8965 181.549 22.2027 181.484 27.5186 181.484C32.8345 181.484 37.1269 181.554 37.1269 181.637Z" fill="white"/>
<path d="M37.1269 183.055C37.1269 183.138 32.8207 183.207 27.5048 183.207C22.1889 183.207 17.8965 183.138 17.8965 183.055C17.8965 182.972 22.2027 182.898 27.5186 182.898C32.8345 182.898 37.1269 182.968 37.1269 183.055Z" fill="white"/>
<path d="M36.8689 184.422C36.8689 184.51 32.7195 184.579 27.5834 184.579C22.4473 184.579 18.2979 184.51 18.2979 184.422C18.2979 184.335 22.4473 184.266 27.5834 184.266C32.7195 184.266 36.8689 184.339 36.8689 184.422Z" fill="white"/>
<path d="M200.852 196.636C200.852 196.705 155.885 196.755 100.43 196.755C44.9754 196.755 0 196.705 0 196.636C0 196.566 44.9569 196.516 100.43 196.516C155.904 196.516 200.852 196.571 200.852 196.636Z" fill="#263238"/>
<path d="M192.607 50.0589C191.058 48.0994 191.026 44.5263 191.077 43.5719C191.196 41.4003 186.355 28.7261 174.359 33.959C170.057 33.959 169.988 38.2053 169.172 39.0582C168.356 39.9112 167.448 40.801 167.231 41.9628C166.853 44.0237 168.808 46.0247 168.31 48.0579C168.126 48.8186 167.614 49.4687 167.254 50.1649C166.867 50.7873 166.563 51.8016 166.729 52.3641C166.937 52.9132 167.211 53.4349 167.545 53.9178C167.882 54.4054 168.037 54.9963 167.983 55.5868C167.794 56.6288 166.599 57.2097 166.258 58.2194C165.917 59.2291 166.563 60.2342 167.13 61.1056C167.697 61.977 168.241 63.0789 167.784 64.0148C167.482 64.479 167.107 64.8915 166.673 65.2366C166.09 65.8442 165.698 66.6104 165.547 67.4394C165.396 68.2684 165.493 69.1235 165.825 69.8978L172.741 68.5147C173.048 65.2289 173.355 61.9401 173.663 58.6482C175.682 59.1507 177.891 57.8598 178.85 57.6155L180.025 56.9792C182.598 57.4403 185.373 57.2697 187.628 55.9557C189.883 54.6417 193.225 56.3245 192.787 53.7473C192.543 52.5116 193.396 51.0501 192.607 50.0589Z" fill="#263238"/>
<path d="M184.742 38.0634L175.35 35.2971C172.326 34.8361 170.159 38.5244 169.841 41.5489C169.491 44.9284 169.2 49.0687 169.5 51.609C170.099 56.7267 173.967 57.5289 173.967 57.5289C173.967 57.5289 173.29 64.772 173.23 66.5839L184.797 60.6456L186.259 39.9399C186.286 39.4942 186.145 39.0546 185.864 38.7074C185.584 38.3602 185.183 38.1305 184.742 38.0634Z" fill="#FFD3C1"/>
<path d="M170.427 45.7116C170.418 45.8811 170.475 46.0473 170.587 46.1748C170.699 46.3023 170.857 46.381 171.026 46.394C171.109 46.4042 171.192 46.3978 171.272 46.3751C171.352 46.3525 171.427 46.314 171.492 46.262C171.557 46.21 171.611 46.1455 171.65 46.0724C171.69 45.9992 171.714 45.9189 171.722 45.8361C171.731 45.6666 171.673 45.5004 171.561 45.3729C171.449 45.2454 171.292 45.1667 171.123 45.1537C171.04 45.1428 170.956 45.1488 170.876 45.1712C170.796 45.1936 170.721 45.232 170.656 45.2841C170.591 45.3363 170.537 45.401 170.498 45.4745C170.458 45.5479 170.434 45.6286 170.427 45.7116Z" fill="#263238"/>
<path d="M170.077 44.2192C170.516 44.2513 170.953 44.3068 171.386 44.3852C171.803 44.5543 172.211 44.7452 172.608 44.9569C172.654 44.9569 172.608 44.8048 172.415 44.6203C172.14 44.3729 171.812 44.1915 171.456 44.0901C171.111 43.9845 170.745 43.964 170.391 44.0302C170.146 44.0901 170.045 44.1777 170.077 44.2192Z" fill="#263238"/>
<path d="M176.927 46.2385C176.92 46.4084 176.978 46.5747 177.091 46.702C177.204 46.8294 177.362 46.9079 177.531 46.9209C177.614 46.9304 177.698 46.9234 177.778 46.9002C177.858 46.877 177.933 46.8381 177.998 46.7857C178.062 46.7334 178.116 46.6686 178.156 46.5952C178.195 46.5218 178.22 46.4413 178.228 46.3584C178.234 46.1888 178.175 46.0232 178.062 45.8961C177.95 45.769 177.793 45.6901 177.624 45.676C177.541 45.6665 177.457 45.6735 177.377 45.6967C177.297 45.7199 177.222 45.7588 177.157 45.8112C177.093 45.8635 177.039 45.9283 176.999 46.0017C176.96 46.0751 176.935 46.1556 176.927 46.2385Z" fill="#263238"/>
<path d="M177.047 45.1418C177.149 45.1879 177.651 44.8513 178.43 44.7407C179.21 44.63 179.837 44.8006 179.91 44.7407C179.984 44.6807 179.837 44.607 179.565 44.5286C179.174 44.4241 178.766 44.4021 178.366 44.464C177.976 44.5116 177.603 44.6472 177.273 44.8605C177.056 44.9988 176.996 45.1187 177.047 45.1418Z" fill="#263238"/>
<path d="M174.622 49.7202C174.259 49.5871 173.879 49.5019 173.493 49.4666C173.313 49.4436 173.147 49.3975 173.124 49.2776C173.116 49.0897 173.167 48.904 173.272 48.7474C173.456 48.3186 173.654 47.8714 173.857 47.4011C174.669 45.4924 175.268 43.9156 175.19 43.8833C175.111 43.851 174.392 45.3771 173.576 47.2859C173.382 47.7469 173.193 48.208 173.013 48.6367C172.893 48.8491 172.85 49.0971 172.894 49.3375C172.918 49.4007 172.955 49.4578 173.004 49.5049C173.052 49.5519 173.111 49.5876 173.175 49.6095C173.273 49.6412 173.376 49.6598 173.479 49.6649C173.857 49.73 174.241 49.7486 174.622 49.7202Z" fill="#263238"/>
<path d="M173.967 57.5098C176.332 57.6871 178.697 57.1763 180.777 56.0391C180.717 56.0391 178.693 59.5753 173.861 58.8561L173.967 57.5098Z" fill="#F4AF9B"/>
<path d="M174.853 51.4234C174.994 51.2608 175.173 51.1366 175.375 51.0624C175.576 50.9882 175.793 50.9664 176.006 50.9992C176.16 51.0197 176.308 51.0711 176.442 51.1503C176.576 51.2296 176.693 51.335 176.785 51.4602C176.874 51.5802 176.924 51.7246 176.928 51.8739C176.932 52.0231 176.89 52.17 176.808 52.2947C176.69 52.4143 176.54 52.4968 176.377 52.532C176.213 52.5672 176.042 52.5537 175.886 52.493C175.56 52.361 175.262 52.1668 175.01 51.9213C174.933 51.8628 174.868 51.789 174.821 51.7046C174.795 51.6665 174.781 51.6215 174.781 51.5755C174.781 51.5295 174.795 51.4845 174.821 51.4464" fill="#F4AF9B"/>
<path d="M176.67 50.2891C176.554 50.2891 176.522 51.0407 175.849 51.5524C175.176 52.0642 174.369 51.9489 174.36 52.055C174.35 52.161 174.535 52.2117 174.876 52.2348C175.321 52.2577 175.76 52.1239 176.116 51.8567C176.458 51.5986 176.688 51.2189 176.757 50.7963C176.799 50.4782 176.72 50.2845 176.67 50.2891Z" fill="#263238"/>
<path d="M177.135 42.6458C177.2 42.8349 177.9 42.7749 178.721 42.9086C179.542 43.0423 180.196 43.2913 180.312 43.1253C180.362 43.0423 180.256 42.8625 179.994 42.6643C179.644 42.4238 179.245 42.2661 178.825 42.203C178.406 42.1399 177.978 42.1731 177.573 42.3C177.269 42.4061 177.112 42.5536 177.135 42.6458Z" fill="#263238"/>
<path d="M170.833 42.1936C170.948 42.3596 171.437 42.1936 172.018 42.2305C172.598 42.2674 173.087 42.378 173.207 42.2305C173.262 42.1521 173.207 41.9908 172.981 41.8294C172.697 41.6401 172.363 41.5391 172.022 41.5391C171.681 41.5391 171.347 41.6401 171.063 41.8294C170.856 41.9539 170.777 42.1152 170.833 42.1936Z" fill="#263238"/>
<path d="M174.244 34.625C178.027 35.2203 181.725 36.2667 185.259 37.7417C186.08 38.0875 186.937 38.4886 187.398 39.2447C187.859 40.0008 187.822 41.052 187.744 42.011L186.568 55.6627L186.08 55.635C184.696 55.8656 184.577 55.1463 183.567 54.1366C183.068 53.6246 182.695 53.0036 182.477 52.3227C182.26 51.6417 182.203 50.9195 182.313 50.2131C182.516 48.9729 183.235 47.728 182.848 46.5247C182.336 44.9387 180.164 44.3762 179.643 42.7948C179.344 41.8727 179.685 40.8307 179.334 39.9271C178.984 39.0234 178.15 38.5439 177.306 38.2212C176.462 37.8984 175.554 37.631 174.858 37.0455C174.161 36.46 173.733 35.3765 174.244 34.625Z" fill="#263238"/>
<path d="M143.428 25.4766H106.212C104.697 25.4766 103.469 26.7048 103.469 28.2198V58.1327C103.469 59.6478 104.697 60.8759 106.212 60.8759H143.428C144.943 60.8759 146.171 59.6478 146.171 58.1327V28.2198C146.171 26.7048 144.943 25.4766 143.428 25.4766Z" fill="#263238"/>
<path d="M124.82 48.646C128.219 48.646 130.975 45.8903 130.975 42.4909C130.975 39.0916 128.219 36.3359 124.82 36.3359C121.421 36.3359 118.665 39.0916 118.665 42.4909C118.665 45.8903 121.421 48.646 124.82 48.646Z" fill="#7C663C"/>
<path d="M123.34 44.2939V40.6608C123.339 40.6208 123.35 40.5814 123.37 40.5465C123.389 40.5116 123.418 40.4826 123.452 40.4621C123.487 40.4416 123.526 40.4304 123.566 40.4297C123.606 40.429 123.646 40.4388 123.681 40.458L126.908 42.3022C126.944 42.3229 126.973 42.3526 126.993 42.3881C127.014 42.4237 127.024 42.464 127.024 42.505C127.024 42.5461 127.014 42.5864 126.993 42.6219C126.973 42.6575 126.944 42.6872 126.908 42.7079L123.681 44.506C123.645 44.5273 123.604 44.5384 123.563 44.538C123.521 44.5377 123.481 44.5259 123.446 44.504C123.41 44.4821 123.382 44.4509 123.363 44.4138C123.344 44.3768 123.336 44.3353 123.34 44.2939Z" fill="white"/>
<path d="M163.443 179.937L164.512 190.195C164.512 190.195 154.443 194.722 154.452 196.65L174.416 195.303L173.411 179.227L163.443 179.937Z" fill="#455A64"/>
<g opacity="0.3">
<path d="M163.444 179.937L164.513 190.195C164.513 190.195 154.444 194.722 154.453 196.65L174.417 195.303L173.411 179.227L163.444 179.937Z" fill="black"/>
</g>
<g opacity="0.6">
<path d="M170.621 188.906C170.816 188.951 170.989 189.067 171.104 189.231C171.22 189.396 171.271 189.597 171.248 189.796C171.209 189.994 171.097 190.17 170.933 190.287C170.769 190.405 170.567 190.455 170.367 190.428C170.16 190.378 169.978 190.254 169.856 190.079C169.734 189.904 169.682 189.69 169.708 189.478C169.769 189.276 169.906 189.106 170.09 189.003C170.274 188.9 170.49 188.872 170.694 188.925" fill="white"/>
</g>
<g opacity="0.6">
<path d="M174.409 195.29L174.248 193.672L155.165 195.571C155.165 195.571 154.303 196.032 154.446 196.636L174.409 195.29Z" fill="white"/>
</g>
<path d="M164.176 190.114C164.176 190.21 164.678 190.22 165.176 190.501C165.674 190.782 165.96 191.174 166.048 191.133C166.135 191.091 165.951 190.533 165.338 190.21C164.724 189.888 164.148 190.026 164.176 190.114Z" fill="#263238"/>
<path d="M162.142 191.124C162.142 191.221 162.557 191.359 162.916 191.746C163.276 192.134 163.377 192.567 163.497 192.558C163.617 192.549 163.617 191.991 163.161 191.516C162.704 191.041 162.137 191.032 162.142 191.124Z" fill="#263238"/>
<path d="M161.118 193.712C161.21 193.712 161.311 193.251 161.026 192.716C160.74 192.181 160.269 192.015 160.233 192.098C160.196 192.181 160.5 192.449 160.726 192.878C160.952 193.306 161.021 193.712 161.118 193.712Z" fill="#263238"/>
<path d="M164.194 187.756C164.24 187.839 164.678 187.677 165.232 187.677C165.785 187.677 166.227 187.82 166.269 187.733C166.31 187.645 165.882 187.327 165.227 187.336C164.572 187.345 164.139 187.682 164.194 187.756Z" fill="#263238"/>
<path d="M164.014 185.679C164.348 185.745 164.694 185.72 165.014 185.605C165.37 185.517 165.714 185.386 166.038 185.213C166.23 185.112 166.415 184.998 166.591 184.872C166.7 184.802 166.796 184.715 166.877 184.614C166.936 184.54 166.967 184.448 166.967 184.353C166.967 184.259 166.936 184.167 166.877 184.093C166.824 184.028 166.757 183.977 166.681 183.944C166.605 183.91 166.522 183.895 166.439 183.899C166.311 183.905 166.185 183.932 166.065 183.978C165.856 184.044 165.652 184.129 165.457 184.231C165.13 184.407 164.833 184.633 164.576 184.9C164.143 185.361 164.009 185.734 164.046 185.753C164.083 185.771 164.295 185.462 164.742 185.075C165.002 184.851 165.291 184.662 165.6 184.512C165.782 184.426 165.97 184.354 166.162 184.296C166.37 184.227 166.549 184.213 166.623 184.296C166.697 184.379 166.651 184.346 166.623 184.411C166.561 184.482 166.492 184.545 166.416 184.6C166.245 184.724 166.075 184.835 165.904 184.937C165.611 185.109 165.302 185.254 164.982 185.37C164.652 185.45 164.329 185.553 164.014 185.679Z" fill="#263238"/>
<path d="M164.152 185.809C164.321 185.509 164.39 185.164 164.35 184.822C164.342 184.452 164.27 184.085 164.138 183.739C164.061 183.532 163.962 183.334 163.843 183.149C163.78 183.02 163.685 182.91 163.567 182.829C163.449 182.748 163.312 182.699 163.17 182.688C163.081 182.695 162.997 182.727 162.927 182.781C162.856 182.835 162.803 182.908 162.773 182.992C162.732 183.113 162.706 183.238 162.695 183.365C162.646 183.975 162.842 184.578 163.239 185.043C163.663 185.537 164.078 185.624 164.082 185.592C164.087 185.56 163.76 185.375 163.428 184.896C163.234 184.62 163.104 184.305 163.045 183.974C163.02 183.783 163.02 183.589 163.045 183.398C163.045 183.181 163.128 183.006 163.211 183.019C163.294 183.033 163.488 183.162 163.585 183.324C163.692 183.491 163.787 183.667 163.866 183.849C164.001 184.164 164.09 184.496 164.129 184.836C164.175 185.422 164.096 185.795 164.152 185.809Z" fill="#263238"/>
<path d="M161.708 104.859C161.708 104.859 152.865 145.008 152.593 148.595C152.321 152.181 163.557 183.127 163.557 183.127L173.239 181.283C173.239 181.283 172.625 135.579 172.316 134.685C172.008 133.79 174.783 111.323 174.783 111.323L161.708 104.859Z" fill="#263238"/>
<path d="M167.887 180.414L167.993 190.723C167.993 190.723 157.545 194.296 157.389 196.205L177.389 196.412L177.882 180.64L167.887 180.414Z" fill="#455A64"/>
<g opacity="0.6">
<path d="M174.192 190.018C174.379 190.081 174.537 190.208 174.637 190.378C174.737 190.547 174.772 190.747 174.736 190.94C174.679 191.13 174.553 191.292 174.382 191.393C174.211 191.494 174.008 191.526 173.814 191.484C173.612 191.417 173.443 191.276 173.338 191.091C173.233 190.905 173.201 190.687 173.247 190.479C173.326 190.283 173.477 190.125 173.67 190.039C173.863 189.953 174.082 189.946 174.28 190.018" fill="white"/>
</g>
<g opacity="0.6">
<path d="M177.381 196.42V195.102L158.206 195.217C158.206 195.217 157.307 195.581 157.39 196.213L177.381 196.42Z" fill="white"/>
</g>
<path d="M167.67 190.62C167.67 190.717 168.159 190.773 168.634 191.081C169.109 191.39 169.349 191.824 169.441 191.787C169.533 191.75 169.399 191.183 168.823 190.8C168.247 190.418 167.652 190.528 167.67 190.62Z" fill="#263238"/>
<path d="M165.55 191.427C165.527 191.523 165.946 191.699 166.264 192.118C166.582 192.538 166.675 192.98 166.772 192.98C166.868 192.98 166.942 192.427 166.536 191.911C166.131 191.394 165.554 191.334 165.55 191.427Z" fill="#263238"/>
<path d="M164.294 193.914C164.381 193.914 164.529 193.452 164.294 192.913C164.059 192.374 163.607 192.148 163.561 192.226C163.515 192.304 163.791 192.6 163.98 193.047C164.169 193.494 164.197 193.904 164.294 193.914Z" fill="#263238"/>
<path d="M167.909 188.261C167.946 188.353 168.398 188.229 168.947 188.261C169.495 188.293 169.924 188.501 169.98 188.418C170.035 188.335 169.629 187.957 168.979 187.924C168.329 187.892 167.863 188.183 167.909 188.261Z" fill="#263238"/>
<g opacity="0.3">
<path d="M167.91 182.453L167.924 184.288L177.758 184.449L177.814 182.794L167.91 182.453Z" fill="black"/>
</g>
<path d="M167.923 186.182C168.25 186.274 168.596 186.274 168.923 186.182C169.288 186.127 169.644 186.028 169.984 185.887C170.184 185.804 170.378 185.707 170.565 185.596C170.679 185.538 170.783 185.461 170.874 185.37C170.939 185.302 170.98 185.214 170.991 185.12C171.002 185.026 170.982 184.931 170.934 184.849C170.886 184.78 170.823 184.723 170.749 184.683C170.675 184.643 170.593 184.621 170.509 184.619C170.382 184.612 170.254 184.626 170.131 184.66C169.916 184.705 169.706 184.772 169.504 184.858C169.168 185.003 168.857 185.199 168.582 185.439C168.121 185.859 167.941 186.219 167.974 186.237C168.006 186.255 168.25 185.97 168.73 185.628C169.016 185.435 169.326 185.28 169.652 185.167C169.84 185.096 170.035 185.04 170.233 185.001C170.445 184.955 170.625 184.955 170.694 185.052C170.763 185.149 170.717 185.103 170.671 185.163C170.604 185.229 170.528 185.285 170.445 185.329C170.271 185.436 170.091 185.533 169.905 185.619C169.592 185.766 169.264 185.882 168.928 185.965C168.588 186.012 168.252 186.084 167.923 186.182Z" fill="#263238"/>
<path d="M168.048 186.325C168.243 186.043 168.345 185.708 168.339 185.366C168.364 184.995 168.326 184.622 168.228 184.264C168.17 184.051 168.09 183.846 167.988 183.651C167.938 183.516 167.854 183.397 167.744 183.305C167.634 183.213 167.502 183.151 167.361 183.125C167.272 183.124 167.184 183.15 167.109 183.198C167.033 183.246 166.974 183.315 166.937 183.397C166.882 183.512 166.844 183.635 166.826 183.761C166.79 183.984 166.79 184.212 166.826 184.434C166.872 184.811 167.01 185.17 167.227 185.481C167.605 186.007 168.011 186.136 168.016 186.103C168.02 186.071 167.716 185.859 167.43 185.352C167.265 185.06 167.164 184.736 167.135 184.402C167.12 184.209 167.133 184.015 167.172 183.826C167.209 183.614 167.292 183.443 167.37 183.466C167.449 183.489 167.633 183.632 167.712 183.803C167.805 183.979 167.883 184.162 167.947 184.351C168.049 184.677 168.106 185.015 168.117 185.356C168.108 185.947 167.997 186.306 168.048 186.325Z" fill="#263238"/>
<path d="M184.184 104.242L161.708 104.86L164.935 144.851L166.936 183.4L178.596 183.806C179.191 176.364 179.232 150.071 179.232 150.071L181.57 134.192C182.114 129.909 183.834 125.409 184.664 121.564C185.148 119.309 185.858 116.382 186.01 115.423C186.476 112.596 184.184 104.242 184.184 104.242Z" fill="#263238"/>
<path d="M163.017 114.062C163.022 114.122 163.022 114.182 163.017 114.242C163.017 114.371 163.017 114.547 163.017 114.768C163.017 115.229 162.971 115.921 162.939 116.787C162.907 117.654 162.856 118.738 162.819 119.982C162.782 121.227 162.718 122.647 162.69 124.215C162.602 127.35 162.556 131.084 162.575 135.234C162.593 139.383 162.704 143.939 162.939 148.72C163.174 153.501 163.543 158.051 163.958 162.178C164.184 164.239 164.382 166.198 164.631 168.028C164.751 168.95 164.852 169.826 164.972 170.675C165.092 171.523 165.217 172.335 165.332 173.109C165.544 174.663 165.793 176.06 165.991 177.291C166.189 178.522 166.378 179.596 166.544 180.44L166.899 182.427C166.936 182.648 166.969 182.819 166.987 182.943C166.992 183.003 166.992 183.063 166.987 183.123C166.967 183.066 166.952 183.007 166.941 182.948C166.918 182.823 166.881 182.653 166.835 182.436C166.738 181.975 166.604 181.307 166.434 180.454C166.263 179.601 166.051 178.54 165.844 177.309C165.636 176.078 165.383 174.686 165.147 173.132C165.028 172.358 164.903 171.546 164.774 170.698C164.649 169.849 164.543 168.964 164.419 168.051C164.161 166.207 163.958 164.262 163.723 162.196C163.299 158.07 162.93 153.519 162.685 148.733C162.441 143.948 162.358 139.383 162.34 135.234C162.321 131.084 162.4 127.345 162.506 124.21C162.542 122.643 162.616 121.223 162.667 119.978C162.718 118.733 162.773 117.673 162.824 116.783C162.874 115.893 162.921 115.238 162.948 114.763C162.948 114.542 162.976 114.371 162.985 114.242C162.991 114.182 163.002 114.121 163.017 114.062Z" fill="#455A64"/>
<path d="M150.223 60.5755L144.469 54.4297L139.933 57.6063L144.469 64.3192L150.223 60.5755Z" fill="#FFD3C1"/>
<path d="M186.615 62.8459L186.338 58.95L173.341 58.7656L173.231 63.6574C173.231 63.6574 166.85 70.5731 164.531 78.2957C160.639 91.3065 159.229 107.867 159.229 107.867H185.826C185.55 103.285 183.66 93.0308 183.66 93.0308L189.57 75.3957C191.041 69.0563 186.615 62.8459 186.615 62.8459Z" fill="#7C663C"/>
<path d="M154.433 80.46C154.433 80.46 154.506 80.5337 154.654 80.6582C154.866 80.8507 155.092 81.0264 155.332 81.1838C156.206 81.7729 157.202 82.156 158.245 82.3042C158.965 82.4068 159.695 82.399 160.412 82.2811C161.182 82.1935 162.008 82.0875 162.874 81.9722C164.613 81.7371 166.517 81.442 168.508 81.1054L178.698 79.3212L181.791 78.814L182.635 78.6803L182.925 78.625L182.63 78.6619L181.787 78.7771C181.054 78.8786 179.993 79.0399 178.684 79.2382C176.07 79.6578 172.473 80.3217 168.49 80.9994C166.498 81.336 164.599 81.631 162.865 81.8708C161.998 81.9861 161.173 82.0967 160.399 82.1889C158.644 82.4836 156.843 82.1102 155.35 81.1423C155.113 80.986 154.886 80.8167 154.668 80.6352C154.516 80.5199 154.433 80.46 154.433 80.46Z" fill="#263238"/>
<path d="M187.435 74.1732C187.449 74.1395 187.458 74.1037 187.462 74.0672C187.462 73.975 187.504 73.8736 187.527 73.7675C187.577 73.5047 187.642 73.1267 187.711 72.6518C187.912 71.4195 187.88 70.1604 187.614 68.9403C187.317 67.7105 186.581 66.6315 185.544 65.9066C185.229 65.6975 184.882 65.5418 184.516 65.4456C184.383 65.4074 184.248 65.3811 184.11 65.3672C184.603 65.4853 185.072 65.6898 185.494 65.9712C186.499 66.6993 187.211 67.7618 187.504 68.968C187.767 70.18 187.807 71.4298 187.624 72.6564C187.568 73.1174 187.513 73.5093 187.471 73.7721C187.471 73.8828 187.458 73.9842 187.43 74.0764C187.427 74.1088 187.429 74.1413 187.435 74.1732Z" fill="#263238"/>
<path d="M159.768 77.3345C159.775 77.2378 159.775 77.1407 159.768 77.0441L159.694 76.2511C159.623 75.3816 159.597 74.5091 159.616 73.6369C159.64 72.7641 159.71 71.8931 159.823 71.0274C159.865 70.7461 159.902 70.4879 159.938 70.2436C159.957 70.1477 159.967 70.0506 159.971 69.9531C159.94 70.0451 159.915 70.1391 159.897 70.2344C159.855 70.4188 159.805 70.6954 159.754 71.0181C159.479 72.7521 159.434 74.5146 159.62 76.2603C159.657 76.5922 159.694 76.8643 159.726 77.0487C159.731 77.1451 159.744 77.2409 159.768 77.3345Z" fill="#263238"/>
<path d="M173.382 63.5831C173.708 62.6787 174.188 61.8379 174.802 61.098C175.724 59.8394 176.738 58.5208 178.19 57.926C179.177 57.5249 181.727 57.7462 182.409 56.9255C184.53 54.3529 181.422 52.7761 182.547 49.2214C183.788 45.3532 183.147 45.948 183.244 42.9004L187.951 40.8672C188.693 41.4204 190.749 43.4168 190.524 44.3158C190.304 45.2998 190.367 46.3256 190.703 47.2758C191.427 49.5487 193.931 50.8858 195.111 52.9559C196.291 55.026 194.954 57.8845 194.922 60.3327C194.89 62.7809 195.812 65.7085 198.195 66.2387C197.294 68.0412 195.827 69.4987 194.018 70.3882L192.525 68.355C192.644 69.2841 192.432 70.2255 191.926 71.0139C191.42 71.8023 190.653 72.3872 189.758 72.6658C189.256 70.5219 188.73 68.3181 187.43 66.5384C186.13 64.7588 183.875 63.5001 181.75 64.0718C180.325 64.4499 179.228 65.5472 177.955 66.2895C176.683 67.0317 174.885 67.3499 173.87 66.2895C173.563 65.9188 173.356 65.4748 173.27 65.0006C173.184 64.5264 173.223 64.038 173.382 63.5831Z" fill="#263238"/>
<g opacity="0.3">
<path d="M164.514 81.6528C170.646 80.5371 178.806 79.2 184.938 78.0797C185.164 78.0151 185.404 78.0151 185.63 78.0797C185.821 78.1851 185.964 78.3612 186.028 78.5705C186.092 78.7798 186.071 79.0057 185.971 79.2C185.753 79.5826 185.416 79.8836 185.012 80.0576C182.997 81.1088 180.641 81.1964 178.373 81.2563L164.514 81.6482V81.6528Z" fill="black"/>
</g>
<path d="M160.054 82.2711C161.962 82.308 183.908 78.2969 183.908 78.2969L160.054 82.2711Z" fill="#7C663C"/>
<path d="M183.534 64.5965C185.143 64.7948 186.19 65.0576 188.071 67.0862C188.289 67.3253 188.476 67.59 188.629 67.8746C190.722 71.563 189.21 76.6345 185.199 78.0407L181.317 78.8383L160.053 82.2732C160.053 82.2732 155.526 83.2875 151.634 77.2523C150.21 75.0347 140.385 60.3825 140.385 60.3825L146.839 56.0625L159.85 69.9816L183.534 64.5965Z" fill="#7C663C"/>
<path d="M154.433 80.46C154.433 80.46 154.506 80.5337 154.654 80.6582C154.866 80.8507 155.092 81.0264 155.332 81.1838C156.206 81.7729 157.202 82.156 158.245 82.3042C158.965 82.4068 159.695 82.399 160.412 82.2811C161.182 82.1935 162.008 82.0875 162.874 81.9722C164.613 81.7371 166.517 81.442 168.508 81.1054L178.698 79.3212L181.791 78.814L182.635 78.6803L182.925 78.625L182.63 78.6619L181.787 78.7771C181.054 78.8786 179.993 79.0399 178.684 79.2382C176.07 79.6578 172.473 80.3217 168.49 80.9994C166.498 81.336 164.599 81.631 162.865 81.8708C161.998 81.9861 161.173 82.0967 160.399 82.1889C158.644 82.4836 156.843 82.1102 155.35 81.1423C155.113 80.986 154.886 80.8167 154.668 80.6352C154.516 80.5199 154.433 80.46 154.433 80.46Z" fill="#263238"/>
<path d="M187.435 74.1732C187.449 74.1395 187.458 74.1037 187.462 74.0672C187.462 73.975 187.504 73.8736 187.527 73.7675C187.577 73.5047 187.642 73.1267 187.711 72.6518C187.912 71.4195 187.88 70.1604 187.614 68.9403C187.317 67.7105 186.581 66.6315 185.544 65.9066C185.229 65.6975 184.882 65.5418 184.516 65.4456C184.383 65.4074 184.248 65.3811 184.11 65.3672C184.603 65.4853 185.072 65.6898 185.494 65.9712C186.499 66.6993 187.211 67.7618 187.504 68.968C187.767 70.18 187.807 71.4298 187.624 72.6564C187.568 73.1174 187.513 73.5093 187.471 73.7721C187.471 73.8828 187.458 73.9842 187.43 74.0764C187.427 74.1088 187.429 74.1413 187.435 74.1732Z" fill="#263238"/>
<path d="M159.768 77.3345C159.775 77.2378 159.775 77.1407 159.768 77.0441L159.694 76.2511C159.623 75.3816 159.597 74.5091 159.616 73.6369C159.64 72.7641 159.71 71.8931 159.823 71.0274C159.865 70.7461 159.902 70.4879 159.938 70.2436C159.957 70.1477 159.967 70.0506 159.971 69.9531C159.94 70.0451 159.915 70.1391 159.897 70.2344C159.855 70.4188 159.805 70.6954 159.754 71.0181C159.479 72.7521 159.434 74.5146 159.62 76.2603C159.657 76.5922 159.694 76.8643 159.726 77.0487C159.731 77.1451 159.744 77.2409 159.768 77.3345Z" fill="#263238"/>
<path d="M144.443 49.6689C144.314 48.793 144.274 47.9064 144.323 47.0225C144.327 46.9776 144.322 46.9322 144.306 46.8898C144.291 46.8474 144.266 46.809 144.234 46.7775C144.201 46.7461 144.162 46.7223 144.119 46.708C144.077 46.6938 144.031 46.6894 143.986 46.6952C143.709 46.7315 143.449 46.8489 143.238 47.0326C143.027 47.2164 142.875 47.4582 142.801 47.7279C142.659 48.2106 142.614 48.7167 142.668 49.2171C142.668 50.0378 142.668 50.6878 142.668 50.6878C142.668 50.6878 138.574 45.7869 137.744 45.5656C137.675 45.5322 137.6 45.5128 137.523 45.5087C137.447 45.5045 137.37 45.5156 137.298 45.5414C137.226 45.5671 137.16 45.607 137.103 45.6587C137.047 45.7103 137.001 45.7727 136.969 45.8422C136.817 46.0866 137.121 46.6583 137.121 46.6583L139.427 49.9594C139.427 49.9594 135.936 45.856 135.305 45.8653C134.673 45.8745 134.383 46.3263 134.793 47.087C135.093 47.6449 138.14 51.2365 138.14 51.2365C138.14 51.2365 134.881 48.0921 134.23 48.1152C133.58 48.1382 133.691 48.8298 134.032 49.1157C134.373 49.4015 136.799 52.2093 136.799 52.2093C136.799 52.2093 134.443 50.2176 133.968 50.3651C133.493 50.5126 133.696 51.0475 133.945 51.4762C134.194 51.905 140.104 57.8111 140.104 57.8111L145.231 55.2384C145.364 54.5191 145.338 53.7793 145.153 53.0715C144.843 51.9538 144.606 50.8172 144.443 49.6689Z" fill="#FFD3C1"/>
<path d="M69.162 107.899C67.9143 107.894 66.7193 107.395 65.8388 106.511C64.9582 105.627 64.4639 104.43 64.4639 103.182V62.1766C64.5 61.1415 64.9448 60.1629 65.7009 59.4552C66.4571 58.7474 67.4629 58.3682 68.4981 58.4006H72.3524C73.1108 58.4156 73.8583 58.2181 74.5101 57.8302C75.162 57.4423 75.6923 56.8797 76.0408 56.206L76.8661 54.5231C77.2129 53.853 77.7395 53.2927 78.3869 52.905C79.0344 52.5174 79.7769 52.3178 80.5314 52.3285H98.8305C99.5181 52.3196 100.197 52.4839 100.804 52.8062C101.412 53.1284 101.929 53.5984 102.307 54.1727L103.206 55.5974C103.583 56.1714 104.099 56.6411 104.706 56.9634C105.313 57.2857 105.991 57.4501 106.678 57.4416H130.007C131.043 57.408 132.05 57.7875 132.807 58.4964C133.563 59.2054 134.007 60.1859 134.041 61.2222V103.178C134.041 104.429 133.544 105.628 132.659 106.513C131.775 107.397 130.575 107.894 129.324 107.894L69.162 107.899Z" fill="#7C663C"/>
<g opacity="0.3">
<path d="M69.1629 107.899C67.9152 107.894 66.7203 107.395 65.8398 106.511C64.9592 105.627 64.4648 104.43 64.4648 103.182V62.1766C64.5009 61.1415 64.9458 60.1629 65.7019 59.4552C66.458 58.7474 67.4638 58.3682 68.499 58.4006H72.3534C73.1118 58.4156 73.8593 58.2181 74.5111 57.8302C75.163 57.4423 75.6932 56.8797 76.0418 56.206L76.8671 54.5231C77.2139 53.853 77.7405 53.2927 78.3879 52.905C79.0353 52.5174 79.7779 52.3178 80.5324 52.3285H98.8315C99.5191 52.3196 100.198 52.4839 100.805 52.8062C101.413 53.1284 101.93 53.5984 102.308 54.1727L103.207 55.5974C103.584 56.1714 104.1 56.6411 104.707 56.9634C105.314 57.2857 105.992 57.4501 106.679 57.4416H130.008C131.044 57.408 132.051 57.7875 132.808 58.4964C133.564 59.2054 134.008 60.1859 134.042 61.2222V103.178C134.042 104.429 133.545 105.628 132.66 106.513C131.776 107.397 130.576 107.894 129.325 107.894L69.1629 107.899Z" fill="black"/>
</g>
<path d="M104.335 57.4646L89.4895 57.4324L88.1663 54.9519C87.7164 54.1467 87.0574 53.4779 86.2588 53.0161C85.4603 52.5544 84.5519 52.3168 83.6296 52.3285H69.1204C66.5385 52.3285 64.4453 54.288 64.4453 56.7085V102.924C64.4453 105.69 66.8243 107.899 69.7566 107.899H128.688C131.625 107.899 133.999 105.672 133.999 102.924V60.8626C133.999 59.9614 133.641 59.0971 133.004 58.4599C132.367 57.8226 131.503 57.4646 130.601 57.4646H104.335Z" fill="#7C663C"/>
<path d="M111.818 92.4918H105.248C105.126 92.4918 105.009 92.4432 104.922 92.3568C104.836 92.2703 104.787 92.153 104.787 92.0308C104.787 91.9085 104.836 91.7912 104.922 91.7047C105.009 91.6183 105.126 91.5697 105.248 91.5697H111.818C113.522 91.5731 115.16 90.9107 116.382 89.7239C117.605 88.537 118.315 86.9196 118.362 85.2165C118.409 83.5134 117.788 81.8593 116.633 80.607C115.478 79.3547 113.879 78.6032 112.178 78.5128C112.08 78.508 111.985 78.4719 111.909 78.4096C111.833 78.3474 111.778 78.2624 111.754 78.167C111.268 76.2927 110.271 74.5903 108.874 73.2502C107.477 71.91 105.734 70.9849 103.841 70.5783C101.948 70.1717 99.9795 70.2996 98.155 70.9476C96.3306 71.5957 94.7223 72.7384 93.5101 74.2481C93.4607 74.3102 93.3962 74.3586 93.3227 74.3884C93.2492 74.4183 93.1692 74.4287 93.0905 74.4187C92.7603 74.376 92.4277 74.3545 92.0947 74.3541C89.8468 74.4061 87.7086 75.3356 86.1372 76.9438C84.5658 78.552 83.6861 80.7112 83.6861 82.9596C83.6861 85.208 84.5658 87.3672 86.1372 88.9754C87.7086 90.5836 89.8468 91.5131 92.0947 91.5651H97.4198C97.5421 91.5651 97.6593 91.6137 97.7458 91.7001C97.8323 91.7866 97.8808 91.9039 97.8808 92.0261C97.8808 92.1484 97.8323 92.2657 97.7458 92.3522C97.6593 92.4386 97.5421 92.4872 97.4198 92.4872H92.0716C89.5429 92.4872 87.1178 91.4827 85.3297 89.6946C83.5416 87.9065 82.5371 85.4814 82.5371 82.9527C82.5371 80.424 83.5416 77.9988 85.3297 76.2108C87.1178 74.4227 89.5429 73.4182 92.0716 73.4182C92.355 73.4183 92.6382 73.4337 92.9199 73.4643C94.244 71.8818 95.9737 70.6894 97.9238 70.0151C99.8738 69.3407 101.971 69.2096 103.989 69.6361C106.008 70.0625 107.873 71.0302 109.384 72.4356C110.894 73.841 111.994 75.631 112.565 77.6137C114.48 77.7919 116.253 78.7029 117.512 80.1566C118.772 81.6102 119.421 83.4942 119.325 85.4152C119.228 87.3363 118.394 89.1458 116.995 90.4661C115.596 91.7864 113.742 92.5155 111.818 92.501V92.4918Z" fill="white"/>
<path d="M101.195 96.6984C101.073 96.6984 100.956 96.6499 100.869 96.5634C100.783 96.4769 100.734 96.3597 100.734 96.2374V84.2501C100.734 84.1278 100.783 84.0106 100.869 83.9241C100.956 83.8376 101.073 83.7891 101.195 83.7891C101.318 83.7891 101.435 83.8376 101.521 83.9241C101.608 84.0106 101.656 84.1278 101.656 84.2501V96.2374C101.656 96.3597 101.608 96.4769 101.521 96.5634C101.435 96.6499 101.318 96.6984 101.195 96.6984Z" fill="white"/>
<path d="M104.7 89.017C104.628 89.0177 104.556 89.0014 104.491 88.9693C104.427 88.9373 104.37 88.8904 104.327 88.8326L101.275 84.7384C101.263 84.725 101.249 84.7142 101.233 84.707C101.217 84.6998 101.2 84.6964 101.182 84.6969C101.166 84.6974 101.149 84.7013 101.134 84.7084C101.119 84.7156 101.106 84.7258 101.095 84.7384L97.8675 88.7173C97.7898 88.8133 97.6772 88.8745 97.5545 88.8875C97.4317 88.9004 97.3088 88.8641 97.2128 88.7865C97.1168 88.7088 97.0556 88.5962 97.0426 88.4734C97.0296 88.3507 97.066 88.2277 97.1436 88.1318L100.371 84.1529C100.472 84.0314 100.599 83.9338 100.743 83.8668C100.886 83.7999 101.043 83.7654 101.201 83.7656C101.358 83.7679 101.513 83.806 101.654 83.8771C101.795 83.9482 101.917 84.0504 102.012 84.176L105.074 88.2747C105.11 88.3235 105.137 88.3792 105.152 88.4385C105.167 88.4978 105.17 88.5595 105.161 88.62C105.152 88.6805 105.131 88.7386 105.1 88.7909C105.068 88.8433 105.026 88.8888 104.977 88.9248C104.897 88.9846 104.8 89.017 104.7 89.017Z" fill="white"/>
<path d="M92.2012 117.62V115.555H92.5885V117.606C92.5885 118.464 92.9896 118.856 93.6904 118.856C94.3912 118.856 94.7969 118.464 94.7969 117.606V115.555H95.1703V117.62C95.1703 118.658 94.6125 119.192 93.6904 119.192C92.7683 119.192 92.2012 118.658 92.2012 117.62Z" fill="#263238"/>
<path d="M98.9832 117.814C98.9936 117.995 98.966 118.177 98.9022 118.347C98.8384 118.518 98.7398 118.673 98.6127 118.803C98.4856 118.933 98.3328 119.035 98.164 119.103C97.9952 119.171 97.8141 119.203 97.6323 119.197C97.4288 119.203 97.227 119.158 97.0461 119.064C96.8653 118.97 96.7115 118.832 96.5996 118.662V120.174H96.2354V116.486H96.5857V116.988C96.6958 116.812 96.8505 116.667 97.0342 116.569C97.218 116.471 97.4242 116.423 97.6323 116.43C97.8139 116.425 97.9947 116.457 98.1632 116.525C98.3316 116.593 98.4841 116.696 98.6111 116.826C98.738 116.956 98.8367 117.111 98.9007 117.281C98.9648 117.451 98.9928 117.632 98.9832 117.814ZM98.619 117.814C98.6108 117.615 98.5445 117.423 98.4282 117.262C98.312 117.101 98.1508 116.977 97.9649 116.907C97.779 116.836 97.5765 116.822 97.3826 116.866C97.1886 116.909 97.0118 117.009 96.8741 117.152C96.7363 117.296 96.6438 117.476 96.6079 117.672C96.572 117.867 96.5943 118.069 96.6722 118.252C96.75 118.435 96.8799 118.591 97.0457 118.701C97.2115 118.811 97.4059 118.869 97.6047 118.869C97.742 118.871 97.8783 118.845 98.0051 118.792C98.1318 118.74 98.2464 118.661 98.3415 118.562C98.4367 118.463 98.5104 118.345 98.5581 118.217C98.6059 118.088 98.6266 117.951 98.619 117.814Z" fill="#263238"/>
<path d="M99.7305 115.336H100.095V119.163H99.7305V115.336Z" fill="#263238"/>
<path d="M100.841 117.813C100.841 117.539 100.922 117.272 101.074 117.044C101.226 116.817 101.442 116.64 101.695 116.535C101.947 116.43 102.225 116.403 102.494 116.456C102.762 116.51 103.008 116.641 103.202 116.835C103.395 117.028 103.527 117.275 103.58 117.543C103.634 117.811 103.606 118.089 103.502 118.342C103.397 118.595 103.22 118.811 102.992 118.963C102.765 119.115 102.497 119.196 102.224 119.196C102.04 119.202 101.858 119.171 101.687 119.104C101.516 119.037 101.361 118.935 101.231 118.805C101.102 118.675 101 118.52 100.933 118.35C100.866 118.179 100.834 117.996 100.841 117.813ZM103.229 117.813C103.22 117.615 103.153 117.424 103.036 117.265C102.92 117.105 102.759 116.982 102.574 116.913C102.388 116.844 102.187 116.831 101.994 116.875C101.801 116.919 101.625 117.019 101.489 117.163C101.353 117.306 101.261 117.486 101.226 117.681C101.191 117.876 101.215 118.077 101.293 118.258C101.371 118.44 101.501 118.595 101.667 118.703C101.832 118.812 102.026 118.869 102.224 118.869C102.361 118.871 102.497 118.845 102.623 118.792C102.749 118.739 102.863 118.66 102.958 118.561C103.052 118.462 103.125 118.344 103.172 118.215C103.218 118.087 103.238 117.95 103.229 117.813Z" fill="#263238"/>
<path d="M106.377 117.478V119.161H106.027V118.737C105.928 118.889 105.79 119.011 105.628 119.092C105.466 119.173 105.286 119.21 105.105 119.198C104.492 119.198 104.118 118.88 104.118 118.41C104.118 117.939 104.386 117.644 105.165 117.644H106.022V117.478C106.022 117.017 105.76 116.759 105.257 116.759C104.921 116.751 104.593 116.866 104.335 117.082L104.169 116.805C104.484 116.561 104.873 116.432 105.271 116.441C105.415 116.419 105.563 116.43 105.702 116.473C105.842 116.516 105.97 116.59 106.077 116.69C106.183 116.79 106.266 116.913 106.318 117.05C106.37 117.186 106.39 117.333 106.377 117.478ZM106.008 118.345V117.884H105.16C104.635 117.884 104.464 118.091 104.464 118.368C104.464 118.645 104.718 118.88 105.151 118.88C105.33 118.893 105.508 118.85 105.662 118.758C105.815 118.666 105.936 118.528 106.008 118.364V118.345Z" fill="#263238"/>
<path d="M109.854 115.337V119.164H109.504V118.625C109.396 118.803 109.241 118.95 109.057 119.048C108.873 119.147 108.666 119.195 108.457 119.187C108.091 119.187 107.739 119.041 107.479 118.782C107.22 118.523 107.074 118.171 107.074 117.804C107.074 117.437 107.22 117.085 107.479 116.826C107.739 116.567 108.091 116.421 108.457 116.421C108.661 116.414 108.863 116.459 109.044 116.553C109.225 116.646 109.378 116.785 109.49 116.956V115.328L109.854 115.337ZM109.495 117.809C109.486 117.611 109.419 117.42 109.302 117.26C109.186 117.1 109.025 116.978 108.839 116.909C108.654 116.84 108.452 116.826 108.26 116.871C108.067 116.915 107.891 117.015 107.755 117.158C107.618 117.302 107.527 117.482 107.492 117.677C107.457 117.872 107.48 118.072 107.559 118.254C107.637 118.436 107.767 118.591 107.933 118.699C108.098 118.808 108.292 118.865 108.49 118.864C108.626 118.866 108.762 118.839 108.888 118.786C109.014 118.733 109.128 118.654 109.222 118.555C109.316 118.456 109.389 118.339 109.436 118.21C109.483 118.082 109.503 117.945 109.495 117.809Z" fill="#263238"/>
<path d="M110.638 118.906C110.637 118.87 110.643 118.833 110.656 118.799C110.669 118.765 110.689 118.734 110.714 118.708C110.74 118.682 110.77 118.661 110.804 118.647C110.837 118.632 110.873 118.625 110.91 118.625C110.947 118.625 110.983 118.632 111.017 118.646C111.051 118.661 111.081 118.681 111.107 118.708C111.133 118.734 111.153 118.765 111.167 118.799C111.18 118.833 111.187 118.87 111.187 118.906C111.187 118.98 111.158 119.051 111.106 119.103C111.054 119.156 110.984 119.186 110.91 119.187C110.874 119.187 110.838 119.179 110.804 119.165C110.771 119.15 110.741 119.129 110.716 119.103C110.69 119.077 110.67 119.046 110.657 119.012C110.644 118.979 110.637 118.943 110.638 118.906Z" fill="#263238"/>
<path d="M111.731 118.906C111.731 118.87 111.737 118.834 111.751 118.8C111.764 118.766 111.784 118.735 111.809 118.709C111.834 118.683 111.865 118.662 111.898 118.648C111.931 118.633 111.967 118.626 112.004 118.625C112.04 118.625 112.077 118.632 112.11 118.646C112.144 118.661 112.175 118.681 112.201 118.708C112.227 118.734 112.247 118.765 112.26 118.799C112.274 118.833 112.281 118.87 112.28 118.906C112.28 118.98 112.251 119.051 112.199 119.103C112.148 119.156 112.077 119.186 112.004 119.187C111.967 119.187 111.931 119.179 111.898 119.165C111.865 119.15 111.834 119.129 111.809 119.103C111.784 119.077 111.764 119.046 111.751 119.012C111.737 118.979 111.731 118.943 111.731 118.906Z" fill="#263238"/>
<path d="M112.823 118.906C112.822 118.87 112.828 118.833 112.841 118.799C112.855 118.765 112.874 118.734 112.9 118.708C112.925 118.682 112.956 118.661 112.989 118.647C113.023 118.632 113.059 118.625 113.095 118.625C113.132 118.625 113.168 118.632 113.202 118.646C113.236 118.661 113.267 118.681 113.293 118.708C113.318 118.734 113.339 118.765 113.352 118.799C113.366 118.833 113.373 118.87 113.372 118.906C113.372 118.98 113.343 119.051 113.291 119.103C113.24 119.156 113.169 119.186 113.095 119.187C113.059 119.187 113.023 119.179 112.99 119.165C112.957 119.15 112.926 119.129 112.901 119.103C112.876 119.077 112.856 119.046 112.843 119.012C112.829 118.979 112.823 118.943 112.823 118.906Z" fill="#263238"/>
<path d="M136.301 125.336H64.3956C62.7074 125.336 61.3389 126.704 61.3389 128.393V129.283C61.3389 130.971 62.7074 132.339 64.3956 132.339H136.301C137.989 132.339 139.358 130.971 139.358 129.283V128.393C139.358 126.704 137.989 125.336 136.301 125.336Z" fill="#E0E0E0"/>
<path d="M97.2915 125.336H64.3956C62.7074 125.336 61.3389 126.704 61.3389 128.393V129.283C61.3389 130.971 62.7074 132.339 64.3956 132.339H97.2915C98.9797 132.339 100.348 130.971 100.348 129.283V128.393C100.348 126.704 98.9797 125.336 97.2915 125.336Z" fill="#7C663C"/>
<g opacity="0.3">
<path d="M67.2295 125.336L63.0801 131.924L63.7302 132.215C63.9143 132.297 64.1139 132.34 64.3157 132.339H65.6343L70.1434 125.336H67.2295Z" fill="white"/>
</g>
<g opacity="0.3">
<path d="M74.6525 125.336L70.2402 132.339H73.0572L77.5617 125.336H74.6525Z" fill="white"/>
</g>
<g opacity="0.3">
<path d="M82.0724 125.336L77.6602 132.339H80.4772L84.9862 125.336H82.0724Z" fill="white"/>
</g>
<g opacity="0.3">
<path d="M89.493 125.336L85.0762 132.339H87.8932L92.4022 125.336H89.493Z" fill="white"/>
</g>
<g opacity="0.3">
<path d="M96.9122 125.336L92.5 132.339H95.317L98.8671 126.807L99.2913 126.207C98.7472 125.622 97.9127 125.377 96.9122 125.336Z" fill="white"/>
</g>
<path d="M136.388 132.339C136.388 132.339 136.531 132.339 136.808 132.293C137.219 132.236 137.613 132.093 137.965 131.873C138.542 131.52 138.985 130.984 139.224 130.352C139.375 129.951 139.444 129.525 139.427 129.097C139.455 128.611 139.418 128.122 139.316 127.645C139.17 127.092 138.869 126.592 138.45 126.202C138.03 125.813 137.509 125.551 136.946 125.446C136.629 125.401 136.308 125.384 135.987 125.395H132.834H122.774L64.5339 125.428C63.8477 125.428 63.1828 125.666 62.6525 126.102C62.1221 126.537 61.7589 127.143 61.6246 127.816C61.5733 128.154 61.5548 128.497 61.5693 128.839C61.5546 129.18 61.5778 129.522 61.6385 129.858C61.7766 130.51 62.1309 131.096 62.6439 131.521C63.1569 131.946 63.7986 132.186 64.4647 132.2H70.5967H86.0603L112.243 132.228L129.897 132.265L134.696 132.288H129.897L112.243 132.329L86.0603 132.352H70.5967H64.4647C63.7388 132.346 63.0367 132.093 62.4736 131.634C61.9106 131.176 61.5202 130.54 61.3664 129.831C61.301 129.478 61.2762 129.119 61.2927 128.761C61.2762 128.403 61.2963 128.045 61.3526 127.691C61.4959 126.963 61.888 126.307 62.4616 125.836C63.0352 125.365 63.7548 125.108 64.497 125.109L122.737 125.146H132.797H135.95C136.279 125.134 136.608 125.154 136.932 125.206C137.513 125.317 138.051 125.59 138.482 125.994C138.914 126.398 139.222 126.916 139.371 127.488C139.47 127.975 139.504 128.473 139.473 128.968C139.484 129.406 139.411 129.841 139.256 130.25C139.004 130.891 138.547 131.431 137.956 131.785C137.595 132.001 137.193 132.14 136.776 132.191C136.651 132.252 136.522 132.301 136.388 132.339Z" fill="#263238"/>
</svg>
