<svg width="24" height="24" viewBox="0 0 24 24" fill="none" xmlns="http://www.w3.org/2000/svg">
<path d="M12.0576 1.75C14.2479 1.74999 15.9683 1.75012 17.3115 1.93066C18.6882 2.11575 19.7805 2.50313 20.6387 3.36133C21.4969 4.21953 21.8842 5.31182 22.0693 6.68848C22.2499 8.03174 22.25 9.75212 22.25 11.9424V12.0576C22.25 14.2479 22.2499 15.9683 22.0693 17.3115C21.8842 18.6882 21.4969 19.7805 20.6387 20.6387C19.7805 21.4969 18.6882 21.8842 17.3115 22.0693C15.9683 22.2499 14.2479 22.25 12.0576 22.25H11.9424C9.75212 22.25 8.03174 22.2499 6.68848 22.0693C5.31182 21.8842 4.21953 21.4969 3.36133 20.6387C2.50313 19.7805 2.11575 18.6882 1.93066 17.3115C1.75012 15.9683 1.74999 14.2479 1.75 12.0576V11.9424C1.74999 9.75212 1.75012 8.03174 1.93066 6.68848C2.11575 5.31182 2.50313 4.21953 3.36133 3.36133C4.21953 2.50313 5.31182 2.11575 6.68848 1.93066C8.03174 1.75012 9.75213 1.74999 11.9424 1.75H12.0576ZM12 3.25C9.73963 3.25 8.1196 3.25137 6.8877 3.41699C5.67747 3.57972 4.9549 3.88885 4.42188 4.42188C3.88885 4.9549 3.57972 5.67747 3.41699 6.8877C3.25137 8.1196 3.25 9.73963 3.25 12C3.25 14.2604 3.25137 15.8804 3.41699 17.1123C3.57972 18.3225 3.88885 19.0451 4.42188 19.5781C4.9549 20.1111 5.67747 20.4203 6.8877 20.583C8.1196 20.7486 9.73963 20.75 12 20.75C14.2604 20.75 15.8804 20.7486 17.1123 20.583C18.3225 20.4203 19.0451 20.1111 19.5781 19.5781C20.1111 19.0451 20.4203 18.3225 20.583 17.1123C20.7486 15.8804 20.75 14.2604 20.75 12C20.75 9.73963 20.7486 8.1196 20.583 6.8877C20.4203 5.67747 20.1111 4.9549 19.5781 4.42188C19.0451 3.88885 18.3225 3.57972 17.1123 3.41699C15.8804 3.25137 14.2604 3.25 12 3.25ZM9.79883 7.82129C10.3499 7.65124 10.8783 7.81274 11.3418 8.02734C11.7989 8.23904 12.3502 8.58009 13.0068 8.98633L13.0889 9.03711C13.7704 9.45872 14.3392 9.81017 14.751 10.1377C15.1747 10.4748 15.5473 10.8735 15.6816 11.4287C15.7722 11.8032 15.7722 12.1968 15.6816 12.5713C15.5473 13.1265 15.1747 13.5252 14.751 13.8623C14.3392 14.1898 13.7704 14.5413 13.0889 14.9629L13.0068 15.0137C12.3502 15.4199 11.7989 15.761 11.3418 15.9727C10.8783 16.1873 10.3499 16.3488 9.79883 16.1787C9.43467 16.0663 9.11102 15.8558 8.85547 15.5752C8.48357 15.1666 8.36113 14.6323 8.30566 14.0986C8.25039 13.5668 8.24998 12.8797 8.25 12.043V11.957C8.24998 11.1203 8.25039 10.4332 8.30566 9.90137C8.36113 9.36768 8.48358 8.83336 8.85547 8.4248C9.11102 8.14416 9.43467 7.93367 9.79883 7.82129ZM10.2412 9.25391C10.1445 9.28375 10.048 9.3433 9.96484 9.43457C9.92692 9.47623 9.84386 9.60451 9.79688 10.0566C9.75067 10.5015 9.75 11.1098 9.75 12C9.75 12.8901 9.75067 13.4985 9.79688 13.9434C9.84386 14.3955 9.92692 14.5238 9.96484 14.5654C10.048 14.6567 10.1445 14.7162 10.2412 14.7461C10.2511 14.7492 10.3513 14.7783 10.7119 14.6113C11.0767 14.4424 11.5507 14.1506 12.2598 13.7119C12.9916 13.2592 13.4826 12.9539 13.8164 12.6885C14.1459 12.4264 14.2063 12.29 14.2236 12.2188C14.2582 12.0758 14.2582 11.9242 14.2236 11.7812C14.2063 11.71 14.1458 11.5735 13.8164 11.3115C13.4826 11.0461 12.9916 10.7408 12.2598 10.2881C11.5507 9.84943 11.0767 9.55764 10.7119 9.38867C10.3514 9.2217 10.2512 9.25077 10.2412 9.25391Z" fill="#333333"/>
</svg>
