<svg width="46" height="40" viewBox="0 0 46 40" fill="none" xmlns="http://www.w3.org/2000/svg">
<path opacity="0.4" d="M21.1225 2.08307L8.03707 9.77642C6.87449 10.4599 6.1582 11.7232 6.1582 13.0904V28.4772C6.1582 29.8443 6.87434 31.1075 8.03707 31.7912L21.1225 39.4846C22.2851 40.1681 23.7175 40.1681 24.8803 39.4846L37.9657 31.7912C39.1283 31.1077 39.8446 29.8444 39.8446 28.4772V13.0904C39.8446 11.7233 39.1284 10.4601 37.9657 9.77642L24.8803 2.08307C23.7175 1.39939 22.2853 1.39939 21.1225 2.08307Z" fill="#101B2F"/>
<path opacity="0.4" d="M46.0001 18.2969L44.1392 22.4146L46.0001 26.5322H37.0859V18.2969H46.0001Z" fill="#101B2F"/>
<path opacity="0.4" d="M0 18.2969L1.8609 22.4146L0 26.5322H8.91412V18.2969H0Z" fill="#101B2F"/>
<path d="M46.0001 16.9844L44.1392 21.1021L46.0001 25.2197H37.0859V16.9844H46.0001Z" fill="url(#paint0_linear_2869_49463)"/>
<path d="M41.1753 14.1719V22.4074L37.0859 25.2148V16.9795L41.1753 14.1719Z" fill="url(#paint1_linear_2869_49463)"/>
<path d="M0 16.9844L1.8609 21.1021L0 25.2197H8.91412V16.9844H0Z" fill="url(#paint2_linear_2869_49463)"/>
<path d="M4.82422 14.1719V22.4074L8.91361 25.2148V16.9795L4.82422 14.1719Z" fill="url(#paint3_linear_2869_49463)"/>
<path d="M21.1225 0.512758L8.03707 8.20611C6.87449 8.88963 6.1582 10.1529 6.1582 11.5201V26.9069C6.1582 28.274 6.87434 29.5372 8.03707 30.2209L21.1225 37.9142C22.2851 38.5978 23.7175 38.5978 24.8803 37.9142L37.9657 30.2209C39.1283 29.5374 39.8446 28.2741 39.8446 26.9069V11.5201C39.8446 10.153 39.1284 8.88978 37.9657 8.20611L24.8803 0.512758C23.7175 -0.170919 22.2853 -0.170919 21.1225 0.512758Z" fill="url(#paint4_linear_2869_49463)"/>
<g opacity="0.3">
<path d="M23.0014 0.315495C23.6058 0.315495 24.2019 0.478134 24.7254 0.7859L37.8108 8.47925C38.8741 9.1044 39.5348 10.2695 39.5348 11.52V26.9068C39.5348 28.1572 38.8742 29.3223 37.8108 29.9476L24.7254 37.6409C24.2019 37.9487 23.6058 38.1113 23.0014 38.1113C22.3969 38.1113 21.8009 37.9487 21.2774 37.6409L8.19198 29.9476C7.1287 29.3224 6.46802 28.1573 6.46802 26.9068V11.52C6.46802 10.2697 7.12854 9.10456 8.19198 8.47925L21.2774 0.7859C21.8009 0.478134 22.3969 0.315495 23.0014 0.315495ZM23.0014 0C22.3526 0 21.7039 0.170841 21.1225 0.51268L8.03707 8.20603C6.87449 8.88955 6.1582 10.1528 6.1582 11.52V26.9068C6.1582 28.2739 6.87434 29.5371 8.03707 30.2208L21.1225 37.9142C21.7039 38.256 22.3526 38.4268 23.0014 38.4268C23.6501 38.4268 24.2989 38.256 24.8803 37.9142L37.9657 30.2208C39.1283 29.5373 39.8446 28.274 39.8446 26.9068V11.52C39.8446 10.153 39.1284 8.88971 37.9657 8.20603L24.8803 0.51268C24.2989 0.170841 23.6501 0 23.0014 0Z" fill="url(#paint5_linear_2869_49463)"/>
</g>
<path opacity="0.4" d="M39.8444 21.9688H6.1582V23.7313H39.8444V21.9688Z" fill="#101B2F"/>
<path opacity="0.4" d="M21.7756 8.59216L13.2427 13.609C12.4846 14.0548 12.0176 14.8786 12.0176 15.77V25.8037C12.0176 26.6951 12.4846 27.5189 13.2427 27.9647L21.7756 32.9815C22.5337 33.4273 23.4678 33.4273 24.226 32.9815L32.7588 27.9647C33.517 27.5189 33.984 26.6951 33.984 25.8037V15.77C33.984 14.8786 33.517 14.0548 32.7588 13.609L24.226 8.59216C23.4678 8.14636 22.5337 8.14636 21.7756 8.59216Z" fill="#101B2F"/>
<path d="M41.1755 14.1719H4.82422V22.4072H41.1755V14.1719Z" fill="url(#paint6_linear_2869_49463)"/>
<path d="M21.7756 7.01403L13.2427 12.0309C12.4846 12.4767 12.0176 13.3004 12.0176 14.1919V24.2256C12.0176 25.117 12.4846 25.9407 13.2427 26.3865L21.7756 31.4034C22.5337 31.8492 23.4678 31.8492 24.226 31.4034L32.7588 26.3865C33.517 25.9407 33.984 25.117 33.984 24.2256V14.1919C33.984 13.3004 33.517 12.4767 32.7588 12.0309L24.226 7.01403C23.4678 6.56824 22.5337 6.56824 21.7756 7.01403Z" fill="#E0E8F3"/>
<g opacity="0.3">
<path d="M23.0008 6.99518C23.376 6.99518 23.746 7.09614 24.071 7.28718L32.6039 12.304C33.2642 12.6921 33.6742 13.4155 33.6742 14.1918V24.2255C33.6742 25.0018 33.2642 25.725 32.6039 26.1132L24.071 31.1301C23.746 31.3211 23.376 31.4221 23.0008 31.4221C22.6256 31.4221 22.2555 31.3211 21.9305 31.1301L13.3976 26.1132C12.7374 25.7252 12.3274 25.0018 12.3274 24.2255V14.1918C12.3274 13.4155 12.7374 12.6922 13.3976 12.304L21.9305 7.28718C22.2555 7.09614 22.6256 6.99518 23.0008 6.99518ZM23.0008 6.67969C22.5777 6.67969 22.1547 6.79106 21.7756 7.01396L13.2427 12.0308C12.4846 12.4766 12.0176 13.3004 12.0176 14.1918V24.2255C12.0176 25.1169 12.4846 25.9407 13.2427 26.3865L21.7756 31.4033C22.1547 31.6262 22.5777 31.7376 23.0008 31.7376C23.4238 31.7376 23.8469 31.6262 24.226 31.4033L32.7588 26.3865C33.517 25.9407 33.984 25.1169 33.984 24.2255V14.1918C33.984 13.3004 33.517 12.4766 32.7588 12.0308L24.226 7.01396C23.8469 6.79122 23.4238 6.67969 23.0008 6.67969Z" fill="url(#paint7_linear_2869_49463)"/>
</g>
<path d="M23.432 23.5234C23.3147 23.5234 23.2187 23.4861 23.144 23.4114C23.08 23.3368 23.048 23.2461 23.048 23.1394V14.8514L20.616 16.7234C20.52 16.7874 20.424 16.8141 20.328 16.8034C20.232 16.7821 20.1467 16.7234 20.072 16.6274L19.4 15.7634C19.336 15.6674 19.3093 15.5661 19.32 15.4594C19.3413 15.3528 19.4 15.2674 19.496 15.2034L23.08 12.4354C23.144 12.3821 23.208 12.3501 23.272 12.3394C23.336 12.3288 23.4053 12.3234 23.48 12.3234H24.888C24.9947 12.3234 25.0853 12.3608 25.16 12.4354C25.2347 12.5101 25.272 12.6008 25.272 12.7074V23.1394C25.272 23.2461 25.2347 23.3368 25.16 23.4114C25.0853 23.4861 24.9947 23.5234 24.888 23.5234H23.432Z" fill="#6A85A3"/>
<defs>
<linearGradient id="paint0_linear_2869_49463" x1="41.543" y1="16.9844" x2="41.543" y2="25.2198" gradientUnits="userSpaceOnUse">
<stop stop-color="#FFD846"/>
<stop offset="1" stop-color="#FF9900"/>
</linearGradient>
<linearGradient id="paint1_linear_2869_49463" x1="39.1306" y1="14.1719" x2="39.1306" y2="25.2149" gradientUnits="userSpaceOnUse">
<stop stop-color="#F8AC3F"/>
<stop offset="1" stop-color="#FA4143"/>
</linearGradient>
<linearGradient id="paint2_linear_2869_49463" x1="4.45706" y1="16.9844" x2="4.45706" y2="25.2198" gradientUnits="userSpaceOnUse">
<stop stop-color="#FFD846"/>
<stop offset="1" stop-color="#FF9900"/>
</linearGradient>
<linearGradient id="paint3_linear_2869_49463" x1="6.8689" y1="14.1719" x2="6.8689" y2="25.2149" gradientUnits="userSpaceOnUse">
<stop stop-color="#F8AC3F"/>
<stop offset="1" stop-color="#FA4143"/>
</linearGradient>
<linearGradient id="paint4_linear_2869_49463" x1="23.0014" y1="3.15495e-05" x2="23.0014" y2="38.4268" gradientUnits="userSpaceOnUse">
<stop stop-color="#FF9900"/>
<stop offset="1" stop-color="#F59E0B"/>
</linearGradient>
<linearGradient id="paint5_linear_2869_49463" x1="23.0014" y1="-4.73243e-05" x2="23.0014" y2="38.4267" gradientUnits="userSpaceOnUse">
<stop stop-color="white"/>
<stop offset="1"/>
</linearGradient>
<linearGradient id="paint6_linear_2869_49463" x1="22.9998" y1="14.1719" x2="22.9998" y2="22.4074" gradientUnits="userSpaceOnUse">
<stop stop-color="#FFD846"/>
<stop offset="1" stop-color="#FF9900"/>
</linearGradient>
<linearGradient id="paint7_linear_2869_49463" x1="23.0008" y1="6.67973" x2="23.0008" y2="31.7375" gradientUnits="userSpaceOnUse">
<stop stop-color="white"/>
<stop offset="1"/>
</linearGradient>
</defs>
</svg>
