<svg width="46" height="40" viewBox="0 0 46 40" fill="none" xmlns="http://www.w3.org/2000/svg">
<path opacity="0.4" d="M21.1204 2.05039L8.03509 9.6051C6.87253 10.2763 6.15625 11.5168 6.15625 12.8593V27.9689C6.15625 29.3113 6.87237 30.5518 8.03509 31.2231L21.1204 38.7778C22.2829 39.4491 23.7153 39.4491 24.878 38.7778L37.9633 31.2231C39.1259 30.5519 39.8422 29.3115 39.8422 27.9689V12.8593C39.8422 11.5169 39.126 10.2765 37.9633 9.6051L24.878 2.05039C23.7153 1.37904 22.2831 1.37904 21.1204 2.05039Z" fill="#101B2F"/>
<path opacity="0.4" d="M45.9999 17.9688L44.1391 22.0122L45.9999 26.0557H37.0859V17.9688H45.9999Z" fill="#101B2F"/>
<path opacity="0.4" d="M0 17.9688L1.86087 22.0122L0 26.0557H8.914V17.9688H0Z" fill="#101B2F"/>
<path d="M45.9999 16.6797L44.1391 20.7232L45.9999 24.7667H37.0859V16.6797H45.9999Z" fill="url(#paint0_linear_2869_49422)"/>
<path d="M41.1753 13.9219V22.009L37.0859 24.7658V16.6789L41.1753 13.9219Z" fill="url(#paint1_linear_2869_49422)"/>
<path d="M0 16.6797L1.86087 20.7232L0 24.7667H8.914V16.6797H0Z" fill="url(#paint2_linear_2869_49422)"/>
<path d="M4.82422 13.9219V22.009L8.91355 24.7658V16.6789L4.82422 13.9219Z" fill="url(#paint3_linear_2869_49422)"/>
<path d="M21.1204 0.503518L8.03509 8.05822C6.87253 8.72942 6.15625 9.9699 6.15625 11.3125V26.422C6.15625 27.7644 6.87237 29.0049 8.03509 29.6763L21.1204 37.231C22.2829 37.9022 23.7153 37.9022 24.878 37.231L37.9633 29.6763C39.1259 29.0051 39.8422 27.7646 39.8422 26.422V11.3125C39.8422 9.97006 39.126 8.72958 37.9633 8.05822L24.878 0.503518C23.7153 -0.167839 22.2831 -0.167839 21.1204 0.503518Z" fill="url(#paint4_linear_2869_49422)"/>
<g opacity="0.3">
<path d="M22.9992 0.30981C23.6036 0.30981 24.1997 0.469518 24.7231 0.771737L37.8084 8.32644C38.8717 8.94033 39.5323 10.0845 39.5323 11.3124V26.422C39.5323 27.6497 38.8718 28.7939 37.8084 29.4079L24.7231 36.9626C24.1997 37.2648 23.6036 37.4245 22.9992 37.4245C22.3948 37.4245 21.7987 37.2648 21.2753 36.9626L8.18999 29.4079C7.12673 28.794 6.46606 27.6499 6.46606 26.422V11.3124C6.46606 10.0846 7.12657 8.94049 8.18999 8.32644L21.2753 0.771737C21.7987 0.469518 22.3948 0.30981 22.9992 0.30981ZM22.9992 0C22.3505 0 21.7017 0.167762 21.1204 0.503441L8.03509 8.05815C6.87253 8.72935 6.15625 9.96983 6.15625 11.3124V26.422C6.15625 27.7644 6.87237 29.0048 8.03509 29.6762L21.1204 37.2309C21.7017 37.5666 22.3505 37.7343 22.9992 37.7343C23.6479 37.7343 24.2967 37.5666 24.878 37.2309L37.9633 29.6762C39.1259 29.005 39.8422 27.7645 39.8422 26.422V11.3124C39.8422 9.96998 39.126 8.7295 37.9633 8.05815L24.878 0.503441C24.2967 0.167762 23.6479 0 22.9992 0Z" fill="url(#paint5_linear_2869_49422)"/>
</g>
<path opacity="0.4" d="M39.842 21.5703H6.15625V23.3011H39.842V21.5703Z" fill="#101B2F"/>
<path opacity="0.4" d="M21.7755 8.4377L13.2427 13.3641C12.4846 13.8019 12.0176 14.6108 12.0176 15.4862V25.339C12.0176 26.2144 12.4846 27.0233 13.2427 27.4611L21.7755 32.3875C22.5336 32.8253 23.4677 32.8253 24.2258 32.3875L32.7586 27.4611C33.5167 27.0233 33.9837 26.2144 33.9837 25.339V15.4862C33.9837 14.6108 33.5167 13.8019 32.7586 13.3641L24.2258 8.4377C23.4677 7.99993 22.5336 7.99993 21.7755 8.4377Z" fill="#101B2F"/>
<path d="M41.1749 13.9219H4.82422V22.0088H41.1749V13.9219Z" fill="url(#paint6_linear_2869_49422)"/>
<path d="M21.7755 6.89082L13.2427 11.8173C12.4846 12.255 12.0176 13.0639 12.0176 13.9393V23.7922C12.0176 24.6675 12.4846 25.4764 13.2427 25.9142L21.7755 30.8406C22.5336 31.2784 23.4677 31.2784 24.2258 30.8406L32.7586 25.9142C33.5167 25.4764 33.9837 24.6675 33.9837 23.7922V13.9393C33.9837 13.0639 33.5167 12.255 32.7586 11.8173L24.2258 6.89082C23.4677 6.45306 22.5336 6.45306 21.7755 6.89082Z" fill="#E0E8F3"/>
<g opacity="0.3">
<path d="M23.0006 6.87231C23.3758 6.87231 23.7459 6.97145 24.0709 7.15904L32.6036 12.0855C33.2639 12.4665 33.6739 13.1769 33.6739 13.9392V23.7921C33.6739 24.5544 33.2639 25.2646 32.6036 25.6458L24.0709 30.5723C23.7459 30.7599 23.3758 30.859 23.0006 30.859C22.6255 30.859 22.2554 30.7599 21.9304 30.5723L13.3976 25.6458C12.7374 25.2648 12.3274 24.5544 12.3274 23.7921V13.9392C12.3274 13.1769 12.7374 12.4667 13.3976 12.0855L21.9304 7.15904C22.2554 6.97145 22.6255 6.87231 23.0006 6.87231ZM23.0006 6.5625C22.5776 6.5625 22.1545 6.67187 21.7755 6.89075L13.2427 11.8172C12.4846 12.2549 12.0176 13.0639 12.0176 13.9392V23.7921C12.0176 24.6675 12.4846 25.4764 13.2427 25.9141L21.7755 30.8406C22.1545 31.0595 22.5776 31.1688 23.0006 31.1688C23.4237 31.1688 23.8467 31.0595 24.2258 30.8406L32.7586 25.9141C33.5167 25.4764 33.9837 24.6675 33.9837 23.7921V13.9392C33.9837 13.0639 33.5167 12.2549 32.7586 11.8172L24.2258 6.89075C23.8467 6.67202 23.4237 6.5625 23.0006 6.5625Z" fill="url(#paint7_linear_2869_49422)"/>
</g>
<path d="M20.104 23.5938C19.9973 23.5938 19.9067 23.5564 19.832 23.4817C19.7573 23.4071 19.72 23.3164 19.72 23.2097V22.3937C19.72 22.2977 19.7413 22.1857 19.784 22.0577C19.8373 21.9191 19.9493 21.7804 20.12 21.6417L22.648 19.1297C23.352 18.5751 23.9173 18.1057 24.344 17.7217C24.7813 17.3271 25.096 16.9697 25.288 16.6497C25.4907 16.3191 25.592 15.9937 25.592 15.6737C25.592 15.1937 25.4587 14.8044 25.192 14.5057C24.936 14.2071 24.5253 14.0577 23.96 14.0577C23.5867 14.0577 23.272 14.1377 23.016 14.2977C22.76 14.4471 22.5573 14.6497 22.408 14.9057C22.2693 15.1617 22.1733 15.4444 22.12 15.7537C22.0987 15.8924 22.04 15.9884 21.944 16.0417C21.848 16.0951 21.752 16.1217 21.656 16.1217H20.232C20.136 16.1217 20.056 16.0897 19.992 16.0257C19.928 15.9617 19.896 15.8871 19.896 15.8017C19.9067 15.3431 20.0027 14.9004 20.184 14.4737C20.3653 14.0364 20.6267 13.6524 20.968 13.3217C21.32 12.9804 21.7467 12.7084 22.248 12.5057C22.7493 12.3031 23.3147 12.2017 23.944 12.2017C24.8293 12.2017 25.56 12.3511 26.136 12.6497C26.7227 12.9484 27.16 13.3537 27.448 13.8657C27.7467 14.3777 27.896 14.9537 27.896 15.5938C27.896 16.0951 27.8 16.5591 27.608 16.9857C27.416 17.4017 27.1387 17.8071 26.776 18.2017C26.4133 18.5857 25.976 18.9804 25.464 19.3857L23.192 21.6897H27.752C27.8693 21.6897 27.96 21.7271 28.024 21.8017C28.0987 21.8657 28.136 21.9564 28.136 22.0737V23.2097C28.136 23.3164 28.0987 23.4071 28.024 23.4817C27.96 23.5564 27.8693 23.5938 27.752 23.5938H20.104Z" fill="#6A85A3"/>
<defs>
<linearGradient id="paint0_linear_2869_49422" x1="41.5429" y1="16.6797" x2="41.5429" y2="24.7667" gradientUnits="userSpaceOnUse">
<stop stop-color="#CECECE"/>
<stop offset="1" stop-color="#C1C1C1"/>
</linearGradient>
<linearGradient id="paint1_linear_2869_49422" x1="39.1306" y1="13.9219" x2="39.1306" y2="24.7659" gradientUnits="userSpaceOnUse">
<stop stop-color="#636363"/>
<stop offset="1" stop-color="#807F7F"/>
</linearGradient>
<linearGradient id="paint2_linear_2869_49422" x1="4.457" y1="16.6797" x2="4.457" y2="24.7667" gradientUnits="userSpaceOnUse">
<stop stop-color="#CECECE"/>
<stop offset="1" stop-color="#C1C1C1"/>
</linearGradient>
<linearGradient id="paint3_linear_2869_49422" x1="6.86887" y1="13.9219" x2="6.86887" y2="24.7659" gradientUnits="userSpaceOnUse">
<stop stop-color="#636363"/>
<stop offset="1" stop-color="#807F7F"/>
</linearGradient>
<linearGradient id="paint4_linear_2869_49422" x1="22.9992" y1="3.0981e-05" x2="22.9992" y2="37.7343" gradientUnits="userSpaceOnUse">
<stop stop-color="#FFFBEA"/>
<stop offset="1" stop-color="#C1C1C1"/>
</linearGradient>
<linearGradient id="paint5_linear_2869_49422" x1="22.9992" y1="-4.64714e-05" x2="22.9992" y2="37.7342" gradientUnits="userSpaceOnUse">
<stop stop-color="#FFFBEA"/>
<stop offset="1" stop-color="#C1C1C1"/>
</linearGradient>
<linearGradient id="paint6_linear_2869_49422" x1="22.9995" y1="13.9219" x2="22.9995" y2="22.009" gradientUnits="userSpaceOnUse">
<stop stop-color="#DEDEDE"/>
<stop offset="1" stop-color="#BDBDBD"/>
</linearGradient>
<linearGradient id="paint7_linear_2869_49422" x1="23.0006" y1="6.56255" x2="23.0006" y2="31.1688" gradientUnits="userSpaceOnUse">
<stop stop-color="white"/>
<stop offset="1"/>
</linearGradient>
</defs>
</svg>
