<svg width="37" height="39" viewBox="0 0 37 39" fill="none" xmlns="http://www.w3.org/2000/svg">
<path opacity="0.4" d="M16.9641 0.512723L3.87884 8.20554C2.71628 8.88901 2 10.1522 2 11.5193V26.9051C2 28.272 2.71612 29.5352 3.87884 30.2188L16.9641 37.9116C18.1267 38.5951 19.5591 38.5951 20.7218 37.9116L33.8071 30.2188C34.9696 29.5353 35.6859 28.2722 35.6859 26.9051V11.5193C35.6859 10.1523 34.9698 8.88917 33.8071 8.20554L20.7218 0.512723C19.5591 -0.170908 18.1268 -0.170908 16.9641 0.512723Z" fill="#101B2F"/>
<path opacity="0.4" d="M22.914 15L21.0531 19.1174L22.914 23.2348H14V15H22.914Z" fill="#101B2F"/>
<path opacity="0.4" d="M14 15L15.8609 19.1174L14 23.2348H22.914V15H14Z" fill="#101B2F"/>
<path d="M22.914 15L21.0531 19.1174L22.914 23.2348H14V15H22.914Z" fill="url(#paint0_linear_2869_49504)"/>
<path d="M20.0893 13V21.235L16 24.0422V15.8074L20.0893 13Z" fill="url(#paint1_linear_2869_49504)"/>
<path d="M14 15L15.8609 19.1174L14 23.2348H22.914V15H14Z" fill="url(#paint2_linear_2869_49504)"/>
<path d="M16 13V21.235L20.0893 24.0422V15.8074L16 13Z" fill="url(#paint3_linear_2869_49504)"/>
<path d="M16.9641 0.512723L3.87884 8.20554C2.71628 8.88901 2 10.1522 2 11.5193V26.9051C2 28.272 2.71612 29.5352 3.87884 30.2188L16.9641 37.9116C18.1267 38.5951 19.5591 38.5951 20.7218 37.9116L33.8071 30.2188C34.9696 29.5353 35.6859 28.2722 35.6859 26.9051V11.5193C35.6859 10.1523 34.9698 8.88917 33.8071 8.20554L20.7218 0.512723C19.5591 -0.170908 18.1268 -0.170908 16.9641 0.512723Z" fill="url(#paint4_linear_2869_49504)"/>
<g opacity="0.3">
<path d="M18.843 0.315473C19.4474 0.315473 20.0435 0.478101 20.5669 0.785845L33.6522 8.47866C34.7154 9.10377 35.3761 10.2688 35.3761 11.5192V26.905C35.3761 28.1552 34.7156 29.3202 33.6522 29.9455L20.5669 37.6383C20.0435 37.9461 19.4474 38.1087 18.843 38.1087C18.2385 38.1087 17.6424 37.9461 17.119 37.6383L4.03374 29.9455C2.97048 29.3204 2.30981 28.1554 2.30981 26.905V11.5192C2.30981 10.269 2.97032 9.10393 4.03374 8.47866L17.119 0.785845C17.6424 0.478101 18.2385 0.315473 18.843 0.315473ZM18.843 0C18.1942 0 17.5455 0.170829 16.9641 0.512644L3.87884 8.20546C2.71628 8.88893 2 10.1521 2 11.5192V26.905C2 28.2719 2.71612 29.5351 3.87884 30.2187L16.9641 37.9115C17.5455 38.2533 18.1942 38.4242 18.843 38.4242C19.4917 38.4242 20.1404 38.2533 20.7218 37.9115L33.8071 30.2187C34.9696 29.5352 35.6859 28.2721 35.6859 26.905V11.5192C35.6859 10.1522 34.9698 8.88909 33.8071 8.20546L20.7218 0.512644C20.1404 0.170829 19.4917 0 18.843 0Z" fill="url(#paint5_linear_2869_49504)"/>
</g>
<path opacity="0.4" d="M35.6857 18H2V19.7624H35.6857V18Z" fill="#101B2F"/>
<path opacity="0.4" d="M17.7579 6.33432L9.22514 11.3508C8.46704 11.7966 8 12.6203 8 13.5117V23.5446C8 24.436 8.46704 25.2597 9.22514 25.7055L17.7579 30.722C18.516 31.1677 19.4501 31.1677 20.2082 30.722L28.741 25.7055C29.4991 25.2597 29.9661 24.436 29.9661 23.5446V13.5117C29.9661 12.6203 29.4991 11.7966 28.741 11.3508L20.2082 6.33432C19.4501 5.88856 18.516 5.88856 17.7579 6.33432Z" fill="#101B2F"/>
<path d="M36.3507 15H0V23.2348H36.3507V15Z" fill="url(#paint6_linear_2869_49504)"/>
<path d="M17.7579 6.33432L9.22514 11.3508C8.46704 11.7966 8 12.6203 8 13.5117V23.5446C8 24.436 8.46704 25.2597 9.22514 25.7055L17.7579 30.722C18.516 31.1677 19.4501 31.1677 20.2082 30.722L28.741 25.7055C29.4991 25.2597 29.9661 24.436 29.9661 23.5446V13.5117C29.9661 12.6203 29.4991 11.7966 28.741 11.3508L20.2082 6.33432C19.4501 5.88856 18.516 5.88856 17.7579 6.33432Z" fill="#E0E8F3"/>
<g opacity="0.3">
<path d="M18.9831 6.31547C19.3582 6.31547 19.7283 6.41643 20.0533 6.60745L28.5861 11.6239C29.2463 12.012 29.6563 12.7354 29.6563 13.5116V23.5446C29.6563 24.3208 29.2463 25.044 28.5861 25.4322L20.0533 30.4487C19.7283 30.6397 19.3582 30.7407 18.9831 30.7407C18.6079 30.7407 18.2378 30.6397 17.9128 30.4487L9.38005 25.4322C8.71984 25.0442 8.30981 24.3208 8.30981 23.5446V13.5116C8.30981 12.7354 8.71984 12.0121 9.38005 11.6239L17.9128 6.60745C18.2378 6.41643 18.6079 6.31547 18.9831 6.31547ZM18.9831 6C18.56 6 18.137 6.11136 17.7579 6.33425L9.22514 11.3507C8.46704 11.7965 8 12.6202 8 13.5116V23.5446C8 24.4359 8.46704 25.2596 9.22514 25.7054L17.7579 30.7219C18.137 30.9448 18.56 31.0561 18.9831 31.0561C19.4061 31.0561 19.8291 30.9448 20.2082 30.7219L28.741 25.7054C29.4991 25.2596 29.9661 24.4359 29.9661 23.5446V13.5116C29.9661 12.6202 29.4991 11.7965 28.741 11.3507L20.2082 6.33425C19.8291 6.11152 19.4061 6 18.9831 6Z" fill="url(#paint7_linear_2869_49504)"/>
</g>
<path d="M17.976 25.16C17.2293 25.16 16.584 25.0693 16.04 24.888C15.496 24.7067 15.0427 24.472 14.68 24.184C14.328 23.8853 14.0613 23.5653 13.88 23.224C13.6987 22.872 13.6027 22.5253 13.592 22.184C13.592 22.088 13.624 22.0133 13.688 21.96C13.7627 21.896 13.848 21.864 13.944 21.864H15.384C15.4907 21.864 15.5813 21.8853 15.656 21.928C15.7307 21.9707 15.7947 22.056 15.848 22.184C15.944 22.472 16.0987 22.7013 16.312 22.872C16.536 23.0427 16.792 23.1653 17.08 23.24C17.368 23.304 17.672 23.336 17.992 23.336C18.632 23.336 19.1387 23.1867 19.512 22.888C19.896 22.5787 20.088 22.1413 20.088 21.576C20.088 21.0107 19.912 20.6053 19.56 20.36C19.208 20.104 18.7173 19.976 18.088 19.976H16.44C16.3227 19.976 16.2267 19.944 16.152 19.88C16.0773 19.8053 16.04 19.7093 16.04 19.592V18.92C16.04 18.8133 16.0613 18.7227 16.104 18.648C16.1573 18.5627 16.2107 18.4933 16.264 18.44L19.128 15.64H14.552C14.4347 15.64 14.3387 15.6027 14.264 15.528C14.2 15.4533 14.168 15.3627 14.168 15.256V14.2C14.168 14.0827 14.2 13.9867 14.264 13.912C14.3387 13.8373 14.4347 13.8 14.552 13.8H21.416C21.5333 13.8 21.6293 13.8373 21.704 13.912C21.7787 13.9867 21.816 14.0827 21.816 14.2V15.16C21.816 15.256 21.7947 15.3413 21.752 15.416C21.7093 15.4907 21.6613 15.5547 21.608 15.608L18.84 18.456L19.032 18.472C19.6827 18.5253 20.2587 18.6747 20.76 18.92C21.272 19.1547 21.6667 19.5013 21.944 19.96C22.232 20.4187 22.376 20.9947 22.376 21.688C22.376 22.4133 22.184 23.0373 21.8 23.56C21.4267 24.072 20.9093 24.4667 20.248 24.744C19.5867 25.0213 18.8293 25.16 17.976 25.16Z" fill="#6A85A3"/>
<defs>
<linearGradient id="paint0_linear_2869_49504" x1="18.457" y1="15" x2="18.457" y2="23.2349" gradientUnits="userSpaceOnUse">
<stop stop-color="#C87766"/>
<stop offset="1" stop-color="#AA4A3D"/>
</linearGradient>
<linearGradient id="paint1_linear_2869_49504" x1="18.0447" y1="13.0001" x2="18.0447" y2="24.0423" gradientUnits="userSpaceOnUse">
<stop stop-color="#C87767"/>
<stop offset="1" stop-color="#FA4143"/>
</linearGradient>
<linearGradient id="paint2_linear_2869_49504" x1="18.457" y1="15" x2="18.457" y2="23.2349" gradientUnits="userSpaceOnUse">
<stop stop-color="#C87766"/>
<stop offset="1" stop-color="#AA4A3D"/>
</linearGradient>
<linearGradient id="paint3_linear_2869_49504" x1="18.0447" y1="13.0001" x2="18.0447" y2="24.0423" gradientUnits="userSpaceOnUse">
<stop stop-color="#C87766"/>
<stop offset="1" stop-color="#A54B40"/>
</linearGradient>
<linearGradient id="paint4_linear_2869_49504" x1="18.843" y1="3.15473e-05" x2="18.843" y2="38.4241" gradientUnits="userSpaceOnUse">
<stop stop-color="#AB564A"/>
<stop offset="1" stop-color="#C77665"/>
</linearGradient>
<linearGradient id="paint5_linear_2869_49504" x1="18.843" y1="-4.7321e-05" x2="18.843" y2="38.4241" gradientUnits="userSpaceOnUse">
<stop stop-color="white"/>
<stop offset="1"/>
</linearGradient>
<linearGradient id="paint6_linear_2869_49504" x1="18.1753" y1="15.0001" x2="18.1753" y2="23.2349" gradientUnits="userSpaceOnUse">
<stop stop-color="#C16E5E"/>
<stop offset="1" stop-color="#CB7767"/>
</linearGradient>
<linearGradient id="paint7_linear_2869_49504" x1="18.9831" y1="6.00005" x2="18.9831" y2="31.0561" gradientUnits="userSpaceOnUse">
<stop stop-color="white"/>
<stop offset="1"/>
</linearGradient>
</defs>
</svg>
