<svg width="16" height="16" viewBox="0 0 16 16" fill="none" xmlns="http://www.w3.org/2000/svg">
<path fill-rule="evenodd" clip-rule="evenodd" d="M10.2252 0.832031C11.2924 0.837229 11.9698 0.891802 12.4399 1.46482C12.7515 1.84642 12.8385 2.27348 12.8252 2.83148L13.3502 2.83164C13.6475 2.83245 13.9127 2.83747 14.1301 2.8677C14.4099 2.90657 14.709 2.9987 14.929 3.2637C15.1521 3.53244 15.1824 3.84427 15.1603 4.12558C15.1401 4.38321 15.0678 4.6972 14.9877 5.04546L14.9799 5.07951L14.7194 6.21226C14.2931 8.06588 12.7745 9.44575 10.9249 9.79475C10.5132 10.449 10.0511 10.9616 9.55321 11.3089C10.2099 11.7414 10.7293 12.4321 11.0517 13.2321C11.226 13.6646 11.1905 14.1218 11.0199 14.4798C10.8552 14.8254 10.5117 15.1648 10.0272 15.1648H5.97221C5.48773 15.1648 5.14417 14.8254 4.97946 14.4798C4.80884 14.1218 4.7734 13.6646 4.94771 13.2321C5.26947 12.4336 5.7874 11.744 6.44237 11.3114C5.94187 10.9637 5.47731 10.4495 5.06354 9.79268C3.21883 9.44028 1.70541 8.06222 1.27999 6.21226L1.0195 5.07951L1.01167 5.04546L0.972464 4.87429C0.908902 4.5941 0.855918 4.34027 0.839046 4.12558C0.816933 3.84427 0.847313 3.53244 1.07039 3.2637C1.29037 2.9987 1.58951 2.90657 1.86922 2.8677C2.13017 2.83142 2.45981 2.83145 2.83132 2.83148H3.16113C3.14781 2.27348 3.23483 1.84642 3.54645 1.46482C4.01658 0.891802 4.69395 0.837229 5.7611 0.832031L10.2252 0.832031ZM7.99967 11.8315C7.15887 11.8315 6.33087 12.4752 5.87523 13.6058C5.81007 13.7675 5.82671 13.9332 5.88218 14.0496C5.92753 14.1448 5.97023 14.1622 5.97821 14.1648H10.0212C10.0291 14.1622 10.0719 14.1448 10.1172 14.0496C10.1727 13.9332 10.1893 13.7675 10.1241 13.6058C9.66854 12.4752 8.84054 11.8315 7.99967 11.8315ZM10.0398 1.82496L6.11793 1.82481C4.99873 1.82481 4.53241 1.83816 4.31923 2.09816C4.09272 2.37816 4.13269 2.8315 4.26593 3.9315C4.75225 7.93148 6.31763 10.8315 7.99641 10.8315C9.67521 10.8315 11.2341 7.93148 11.7204 3.9315C11.8537 2.8315 11.8936 2.37816 11.6671 2.09816C11.4652 1.85185 11.036 1.8269 10.0398 1.82496ZM13.2831 3.83159L12.7392 3.83149C12.7307 3.90306 12.722 3.97636 12.7131 4.0515C12.5032 5.79648 12.1051 7.32675 11.5703 8.55802C12.6535 8.08995 13.4775 7.15075 13.7448 5.98814L14.0053 4.8554C14.0957 4.46204 14.1497 4.22171 14.1634 4.04721C14.1697 3.96633 14.1647 3.92586 14.1608 3.90868L14.1598 3.9045L14.1589 3.90176C14.1589 3.90176 14.1547 3.89867 14.145 3.89434C14.1233 3.88468 14.0786 3.87014 13.9925 3.85817C13.8317 3.83583 13.6135 3.83216 13.2831 3.83159ZM3.24717 3.83149H2.86481C2.44943 3.83149 2.19062 3.83264 2.00689 3.85817C1.92075 3.87014 1.87607 3.88468 1.85439 3.89434L1.84394 3.89956L1.84038 3.90182C1.83995 3.90314 1.8393 3.90535 1.83855 3.90868C1.8347 3.92586 1.82961 3.96633 1.83597 4.04721C1.84969 4.22171 1.90361 4.46204 1.99406 4.8554L2.25455 5.98814C2.52079 7.14588 3.33906 8.08208 4.41561 8.55215C3.88095 7.32188 3.48282 5.7937 3.27331 4.0515C3.26433 3.97636 3.25557 3.90306 3.24717 3.83149Z" fill="#8A1538"/>
</svg>
