<svg width="16" height="16" viewBox="0 0 16 16" fill="none" xmlns="http://www.w3.org/2000/svg">
<path d="M5.97836 15.1655C5.92036 15.1655 5.86104 15.1555 5.80437 15.1341C3.83437 14.4015 2.44504 12.9988 1.99171 11.2862C1.55571 9.63683 2.02505 7.88217 3.31371 6.34417C3.74038 5.83483 4.12238 5.40281 4.45971 5.02148C5.65971 3.66414 6.32102 2.91615 6.80102 1.19749C6.84302 1.04749 6.95303 0.924808 7.0977 0.867474C7.24303 0.809474 7.40637 0.823477 7.54037 0.903477C9.40504 2.02548 11.1757 3.67614 12.399 5.43281C13.7484 7.37081 14.3577 9.32614 14.113 10.9368C13.8944 12.3801 12.8917 14.2835 9.35704 15.1508C9.14504 15.2028 8.92303 15.1108 8.81036 14.9241C8.69703 14.7375 8.71836 14.4982 8.86303 14.3348C10.1624 12.8602 10.731 11.5588 10.6017 10.3568C10.5117 9.52083 10.073 8.70548 9.29304 7.92281C9.30104 9.07815 8.86769 10.0595 8.38836 10.6488C8.26636 10.7988 8.06838 10.8648 7.88038 10.8182C7.69238 10.7715 7.54836 10.6208 7.51036 10.4308C7.32969 9.52615 6.79436 9.10415 6.25502 8.82415C6.22102 9.57481 5.90237 10.1102 5.65037 10.5322C5.57503 10.6588 5.5037 10.7775 5.4477 10.8895C4.7617 12.2621 5.45237 13.2641 6.21837 14.1728C6.2717 14.2361 6.3217 14.2955 6.3657 14.3495C6.50837 14.5241 6.51569 14.7728 6.38435 14.9568C6.28835 15.0908 6.13571 15.1655 5.97771 15.1655H5.97836ZM8.58569 6.16549C8.68969 6.16549 8.79372 6.19815 8.88171 6.26282C10.5277 7.47282 11.441 8.81414 11.5957 10.2495C11.7144 11.3515 11.3944 12.4835 10.621 13.6808C12.091 13.0322 12.931 12.0628 13.1244 10.7868C13.3304 9.42948 12.781 7.73149 11.5784 6.00416C10.5517 4.52949 9.1117 3.13414 7.5657 2.10348C7.03903 3.61414 6.31836 4.42947 5.20903 5.68414C4.87636 6.06081 4.49905 6.48748 4.08038 6.98681C3.00638 8.26814 2.60771 9.70482 2.95838 11.0308C3.17904 11.8648 3.68436 12.6135 4.41036 13.2122C4.10769 12.4562 4.01437 11.5201 4.55304 10.4421C4.6257 10.2968 4.70969 10.1562 4.79103 10.0195C5.10503 9.49349 5.40105 8.99681 5.18172 8.12014C5.13438 7.93014 5.20237 7.72948 5.35571 7.60748C5.50904 7.48548 5.71971 7.46414 5.89438 7.55348C5.97771 7.59614 6.0837 7.64283 6.19636 7.69283C6.74103 7.9335 7.55905 8.29481 8.08038 9.15348C8.29971 8.54214 8.40436 7.72348 8.11036 6.82014C8.04303 6.61348 8.11704 6.38748 8.29304 6.26015C8.38038 6.19682 8.48302 6.16549 8.58569 6.16549Z" fill="#CFAE70"/>
</svg>
