<svg width="20" height="20" viewBox="0 0 20 20" fill="none" xmlns="http://www.w3.org/2000/svg">
<rect width="20" height="20" rx="10" fill="#FAFAFA"/>
<path fill-rule="evenodd" clip-rule="evenodd" d="M9.99963 2.83203C10.5314 2.83203 10.915 3.23183 11.1402 3.68792L11.8457 5.1107C11.8457 5.1107 11.8474 5.11393 11.8511 5.11942C11.8552 5.12527 11.861 5.13294 11.869 5.142C11.8854 5.16052 11.9074 5.18088 11.9334 5.20022C11.9594 5.21956 11.9854 5.23486 12.0082 5.24548C12.0194 5.25068 12.0287 5.25422 12.0358 5.25652C12.0392 5.25765 12.042 5.2584 12.0439 5.25888L12.0468 5.25952L13.3226 5.47324C13.8188 5.55662 14.2946 5.8108 14.4526 6.30644C14.6104 6.80146 14.3705 7.28454 14.0142 7.64168L14.0135 7.64234L13.0228 8.64121C13.0134 8.65077 12.9833 8.6925 12.9623 8.76643C12.9418 8.83896 12.9441 8.89216 12.9478 8.90976L13.2312 10.1456C13.3526 10.6766 13.3363 11.3004 12.8704 11.6428C12.4025 11.9868 11.8025 11.8112 11.3357 11.5332L10.5013 11.0352V13.4987H10.7009C11.1441 13.4987 11.526 13.4986 11.8318 13.5398C12.1596 13.5838 12.4738 13.6832 12.7286 13.938C12.9834 14.1929 13.0828 14.507 13.1269 14.8348C13.1612 15.0897 13.1668 15.3974 13.1678 15.7493L13.168 16.1654H14.0013C14.2774 16.1654 14.5013 16.3892 14.5013 16.6654C14.5013 16.9415 14.2774 17.1654 14.0013 17.1654H6.0013C5.72516 17.1654 5.5013 16.9415 5.5013 16.6654C5.5013 16.3892 5.72516 16.1654 6.0013 16.1654H6.83463V15.9658C6.83461 15.5226 6.83459 15.1406 6.87571 14.8348C6.91977 14.507 7.01915 14.1929 7.27397 13.938C7.52881 13.6832 7.84298 13.5838 8.17074 13.5398C8.4256 13.5055 8.7333 13.4998 9.08528 13.4989L9.5013 13.4987V11.0338L8.6648 11.533C8.19758 11.8126 7.59866 11.9852 7.13109 11.6412C6.66599 11.299 6.64708 10.6768 6.76909 10.1452L7.05246 8.90976C7.05609 8.89223 7.05849 8.83896 7.03789 8.76643C7.01689 8.6925 6.98688 8.65077 6.9774 8.64121L5.98551 7.64112C5.63135 7.28404 5.39239 6.80148 5.54889 6.30734C5.70599 5.8113 6.18123 5.55666 6.67786 5.4732L7.95195 5.25977C7.95195 5.25977 7.95557 5.259 7.96117 5.25716C7.96787 5.25495 7.97689 5.25148 7.98792 5.2463C8.01046 5.23572 8.03638 5.22038 8.06241 5.20092C8.08844 5.18146 8.11047 5.16095 8.12699 5.14228C8.13507 5.13314 8.14098 5.12542 8.14504 5.1195C8.14913 5.11356 8.15053 5.1107 8.15053 5.1107L8.15232 5.10704L8.8567 3.68663C9.08383 3.23104 9.46857 2.83203 9.99963 2.83203ZM10.9672 14.4992H9.0354C8.71369 14.5007 8.48385 14.5067 8.30399 14.5308C8.08712 14.56 8.01915 14.6071 7.98108 14.6452C7.94302 14.6832 7.89595 14.7512 7.86679 14.968C7.8357 15.1993 7.83463 15.5132 7.83463 15.9987V16.1654H12.168L12.1675 15.6995C12.166 15.3777 12.16 15.1479 12.1358 14.968C12.1066 14.7512 12.0596 14.6832 12.0215 14.6452C11.9834 14.6071 11.9155 14.56 11.6986 14.5308C11.5188 14.5067 11.2889 14.5007 10.9672 14.4992ZM9.9995 3.83315C9.97803 3.83981 9.87677 3.88198 9.7517 4.13277L9.04897 5.54977C8.95657 5.7388 8.80717 5.89269 8.66117 6.00184C8.51475 6.11131 8.32549 6.21037 8.12071 6.24543L8.11893 6.24574L6.84333 6.45942C6.69183 6.48488 6.60023 6.52688 6.55112 6.56053C6.52737 6.5768 6.51507 6.59 6.50925 6.59746C6.50376 6.6045 6.50221 6.60928 6.50221 6.60928C6.50221 6.60928 6.50062 6.61446 6.50108 6.6241C6.50156 6.63427 6.50415 6.65298 6.51439 6.68088C6.53555 6.73848 6.58668 6.82719 6.69552 6.93693L7.68741 7.93702C7.84591 8.09683 7.94589 8.30314 7.99987 8.49331C8.05397 8.68383 8.07675 8.91036 8.02847 9.1275L8.02774 9.13083L7.74376 10.3688C7.69769 10.5696 7.69875 10.7042 7.71316 10.7819C7.71753 10.8055 7.72247 10.8212 7.72644 10.831C7.73644 10.8317 7.75161 10.8315 7.77325 10.8288C7.84941 10.8192 7.97595 10.7799 8.15155 10.6748L9.35117 9.95883C9.55543 9.83896 9.79203 9.7933 10.0016 9.7933C10.2106 9.7933 10.4481 9.83883 10.6523 9.96076L11.8478 10.6743C12.0248 10.7797 12.1526 10.8196 12.2295 10.8294C12.2502 10.8321 12.265 10.8324 12.275 10.832C12.2788 10.8221 12.2834 10.8069 12.2874 10.7846C12.3018 10.7064 12.3026 10.571 12.2564 10.3688L11.9718 9.1275C11.9234 8.91036 11.9462 8.68383 12.0004 8.49331C12.0544 8.30314 12.1543 8.09683 12.3128 7.93702L13.3047 6.93693C13.4155 6.82597 13.4666 6.73744 13.4877 6.68033C13.4979 6.65268 13.5004 6.63426 13.501 6.6244C13.5013 6.61506 13.4998 6.61018 13.4998 6.61018C13.4998 6.61018 13.4982 6.60542 13.4926 6.59822C13.4867 6.59063 13.4742 6.57727 13.4502 6.56086C13.4005 6.52696 13.3084 6.48489 13.1569 6.45942L11.8813 6.24573C11.675 6.21107 11.4843 6.11252 11.3365 6.00254C11.1894 5.89308 11.0397 5.73898 10.9472 5.54982L10.2441 4.13184C10.1208 3.88197 10.0211 3.8399 9.9995 3.83315Z" fill="#8A1538"/>
</svg>
